{
.appVersion = "1131";
classes = (
{
automatic = 1;
code = "A Aacute Abreve Acircumflex Adieresis Agrave Amacron Aogonek Aring Aringacute Atilde AE AEacute B C Cacute Ccaron Ccedilla Cdotaccent D Eth Dcaron Dcroat E Eacute Ecaron Ecircumflex Edieresis Edotaccent Egrave Emacron Eogonek F G Gbreve Gcommaaccent Gdotaccent H Hbar I IJ Iacute Icircumflex Idieresis Idotaccent Igrave Imacron Iogonek J K Kcommaaccent L Lacute Lcaron Lcommaaccent Ldot Lslash M N Nacute Ncaron Ncommaaccent Eng Ntilde O Oacute Ocircumflex Odieresis Ograve Ohungarumlaut Omacron Oslash Oslashacute Otilde OE P Thorn Q R Racute Rcaron Rcommaaccent S Sacute Scaron Scedilla Scommaaccent Germandbls T Tbar Tcaron Tcedilla Tcommaaccent U Uacute Ubreve Ucircumflex Udieresis Ugrave Uhungarumlaut Umacron Uogonek Uring V W Wacute Wcircumflex Wdieresis Wgrave X Y Yacute Ycircumflex Ydieresis Ygrave Z Zacute Zcaron Zdotaccent A.ss03 Aacute.ss03 Abreve.ss03 Acircumflex.ss03 Adieresis.ss03 Agrave.ss03 Amacron.ss03 Aogonek.ss03 Aring.ss03 Aringacute.ss03 Atilde.ss03 AE.ss03 AEacute.ss03 M.ss03 N.ss03 Nacute.ss03 Ncaron.ss03 Ncommaaccent.ss03 Eng.ss03 Ntilde.ss03 V.ss03 W.ss03 Wacute.ss03 Wcircumflex.ss03 Wdieresis.ss03 Wgrave.ss03 I.ss04 IJ.ss04 Iacute.ss04 Icircumflex.ss04 Idieresis.ss04 Idotaccent.ss04 Igrave.ss04 Imacron.ss04 Iogonek.ss04 J.ss04 R.ss05 Racute.ss05 Rcaron.ss05 Rcommaaccent.ss05";
name = Uppercase;
},
{
code = "zero zero.zero one two three four five six seven eight nine zero.tf zero.tf.zero one.tf two.tf three.tf four.tf five.tf six.tf seven.tf eight.tf nine.tf";
name = Numbers;
}
);
copyright = "Copyright 2016 Google Inc. & Colophon Foundry. Copyright 2017 Florian Karsten. All rights reserved.";
customParameters = (
{
name = vendorID;
value = FK;
},
{
name = license;
value = "This Font Software is licensed under the SIL Open Font License, Version 1.1. This license is available with a FAQ at: http://scripts.sil.org/OFL";
},
{
name = licenseURL;
value = "http://scripts.sil.org/OFL";
},
{

glyphs = (
{
glyphname = A;
lastChange = "2018-08-19 09:04:07 +0000";
layers = (
{
anchors = (
{
name = bottom;
position = "{557, 0}";
},
{
name = top;
position = "{304, 700}";
}
);
layerId = "A285862E-BE3D-4D67-A40D-0E28E121AD88";
paths = (
{
closed = 1;
nodes = (
"18 0 LINE",
"78 0 LINE",
"142 190 LINE",
"466 190 LINE",
"530 0 LINE",
"590 0 LINE",
"344 700 LINE",
"264 700 LINE"
);
},
{
closed = 1;
nodes = (
"298 647 LINE",
"310 647 LINE",
"449 238 LINE",
"159 238 LINE"
);
}
);
width = 608;
},
{
anchors = (
{
name = bottom;
position = "{543, 0}";
},
{
name = top;
position = "{302, 700}";
}
);
layerId = "5117E3E8-E17C-4812-BAF5-9E7064564A59";
paths = (
{
closed = 1;
nodes = (
"2 0 LINE",
"138 0 LINE",
"180 156 LINE",
"424 156 LINE",
"466 0 LINE",
"602 0 LINE",
"408 700 LINE",
"196 700 LINE"
);
},
{
closed = 1;
nodes = (
"296 590 LINE",
"308 590 LINE",
"393 276 LINE",
"211 276 LINE"
);
}
);
width = 604;
}
);
leftKerningGroup = A;
note = A;
rightKerningGroup = A;
unicode = 0041;
},
{
glyphname = AE;
lastChange = "2018-08-13 18:45:24 +0000";
layers = (
{
anchors = (
{
name = top;
position = "{338, 700}";
}
);
layerId = "A285862E-BE3D-4D67-A40D-0E28E121AD88";
paths = (
{
closed = 1;
nodes = (
"304 238 LINE",
"157 238 LINE",
"292 652 LINE",
"304 652 LINE",
"304 700 LINE",
"255 700 LINE",
"18 0 LINE",
"76 0 LINE",
"140 190 LINE",
"304 190 LINE"
);
},
{
closed = 1;
nodes = (
"304 0 LINE",
"518 0 LINE",
"518 48 LINE",
"358 48 LINE",
"358 327 LINE",
"490 327 LINE",
"490 375 LINE",
"358 375 LINE",
"358 652 LINE",
"514 652 LINE",
"514 700 LINE",
"304 700 LINE"
);
}
);
width = 566;
},
{
anchors = (
{
name = top;
position = "{316, 700}";
}
);
layerId = "5117E3E8-E17C-4812-BAF5-9E7064564A59";
paths = (
{
closed = 1;
nodes = (
"266 276 LINE",
"193 276 LINE",
"254 576 LINE",
"266 576 LINE",
"266 700 LINE",
"161 700 LINE",
"2 0 LINE",
"136 0 LINE",
"168 154 LINE",
"266 154 LINE"
);
},
{
closed = 1;
nodes = (
"266 0 LINE",
"520 0 LINE",
"520 124 LINE",
"398 124 LINE",
"398 289 LINE",
"488 289 LINE",
"488 413 LINE",
"398 413 LINE",
"398 576 LINE",
"514 576 LINE",
"514 700 LINE",
"266 700 LINE"
);
}
);
width = 548;
}
);
leftKerningGroup = A;
leftMetricsKey = A;
note = AE;
rightKerningGroup = E;
rightMetricsKey = E;
unicode = 00C6;
},
{
glyphname = B;
lastChange = "2018-08-19 09:03:58 +0000";
layers = (
{
layerId = "A285862E-BE3D-4D67-A40D-0E28E121AD88";
paths = (
{
closed = 1;
nodes = (
"82 0 LINE",
"354 0 LINE SMOOTH",
"474 0 OFFCURVE",
"564 67 OFFCURVE",
"564 185 CURVE SMOOTH",
"564 280 OFFCURVE",
"497 334 OFFCURVE",
"437 346 CURVE",
"437 358 LINE",
"494 374 OFFCURVE",
"564 423 OFFCURVE",
"564 519 CURVE SMOOTH",
"564 631 OFFCURVE",
"475 700 OFFCURVE",
"358 700 CURVE SMOOTH",
"82 700 LINE"
);
},
{
closed = 1;
nodes = (
"350 328 LINE SMOOTH",
"456 328 OFFCURVE",
"510 273 OFFCURVE",
"510 189 CURVE SMOOTH",
"510 109 OFFCURVE",
"456 48 OFFCURVE",
"356 48 CURVE SMOOTH",
"136 48 LINE",
"136 328 LINE"
);
},
{
closed = 1;
nodes = (
"354 652 LINE SMOOTH",
"450 652 OFFCURVE",
"510 596 OFFCURVE",
"510 517 CURVE SMOOTH",
"510 435 OFFCURVE",
"454 376 OFFCURVE",
"356 376 CURVE SMOOTH",
"136 376 LINE",
"136 652 LINE"
);
}
);
width = 622;
},
{
layerId = "5117E3E8-E17C-4812-BAF5-9E7064564A59";
paths = (
{
closed = 1;
nodes = (
"58 0 LINE",
"377 0 LINE SMOOTH",
"497 0 OFFCURVE",
"584 73 OFFCURVE",
"584 189 CURVE SMOOTH",
"584 274 OFFCURVE",
"534 326 OFFCURVE",
"466 345 CURVE",
"466 357 LINE",
"534 376 OFFCURVE",
"584 428 OFFCURVE",
"584 512 CURVE SMOOTH",
"584 632 OFFCURVE",
"498 700 OFFCURVE",
"377 700 CURVE SMOOTH",
"58 700 LINE"
);
},
{
closed = 1;
nodes = (
"364 291 LINE SMOOTH",
"420 291 OFFCURVE",
"458 262 OFFCURVE",
"458 205 CURVE SMOOTH",
"458 148 OFFCURVE",
"420 120 OFFCURVE",
"364 120 CURVE SMOOTH",
"190 120 LINE",
"190 291 LINE"
);
},
{
closed = 1;
nodes = (
"364 580 LINE SMOOTH",
"420 580 OFFCURVE",
"458 553 OFFCURVE",
"458 496 CURVE SMOOTH",
"458 439 OFFCURVE",
"420 411 OFFCURVE",
"364 411 CURVE SMOOTH",
"190 411 LINE",
"190 580 LINE"
);
}
);
width = 614;
}
);
leftKerningGroup = H;
leftMetricsKey = I;
note = B.alt;
rightKerningGroup = B;
unicode = 0042;
},
{
glyphname = C;
lastChange = "2018-08-19 09:00:11 +0000";
layers = (
{
anchors = (
{
name = bottom;
position = "{331, 0}";
},
{
name = top;
position = "{334, 700}";
}
);
layerId = "A285862E-BE3D-4D67-A40D-0E28E121AD88";
paths = (
{
closed = 1;
nodes = (
"64 283 LINE SMOOTH",
"64 95 OFFCURVE",
"164 -14 OFFCURVE",
"334 -14 CURVE SMOOTH",
"488 -14 OFFCURVE",
"584 79 OFFCURVE",
"584 233 CURVE SMOOTH",
"584 250 LINE",
"530 250 LINE",
"530 233 LINE SMOOTH",
"530 107 OFFCURVE",
"469 34 OFFCURVE",
"334 34 CURVE SMOOTH",
"198 34 OFFCURVE",
"118 125 OFFCURVE",
"118 281 CURVE SMOOTH",
"118 419 LINE SMOOTH",
"118 575 OFFCURVE",
"196 666 OFFCURVE",
"334 666 CURVE SMOOTH",
"460 666 OFFCURVE",
"530 590 OFFCURVE",
"530 464 CURVE SMOOTH",
"530 450 LINE",
"584 450 LINE",
"584 464 LINE SMOOTH",
"584 618 OFFCURVE",
"497 714 OFFCURVE",
"334 714 CURVE SMOOTH",
"167 714 OFFCURVE",
"64 605 OFFCURVE",
"64 417 CURVE SMOOTH"
);
}
);
width = 638;
},
{
anchors = (
{
name = bottom;
position = "{318, 0}";
},
{
name = top;
position = "{318, 700}";
}
);
layerId = "5117E3E8-E17C-4812-BAF5-9E7064564A59";
paths = (
{
closed = 1;
nodes = (
"30 270 LINE SMOOTH",
"30 84 OFFCURVE",
"148 -14 OFFCURVE",
"320 -14 CURVE SMOOTH",
"505 -14 OFFCURVE",
"596 85 OFFCURVE",
"596 240 CURVE SMOOTH",
"596 264 LINE",
"464 264 LINE",
"464 238 LINE SMOOTH",
"464 159 OFFCURVE",
"425 104 OFFCURVE",
"320 104 CURVE SMOOTH",
"217 104 OFFCURVE",
"162 168 OFFCURVE",
"162 264 CURVE SMOOTH",
"162 436 LINE SMOOTH",
"162 524 OFFCURVE",
"221 596 OFFCURVE",
"320 596 CURVE SMOOTH",
"416 596 OFFCURVE",
"464 542 OFFCURVE",
"464 462 CURVE SMOOTH",
"464 436 LINE",
"596 436 LINE",
"596 460 LINE SMOOTH",
"596 616 OFFCURVE",
"497 714 OFFCURVE",
"320 714 CURVE SMOOTH",
"143 714 OFFCURVE",
"30 604 OFFCURVE",
"30 430 CURVE SMOOTH"
);
}
);
width = 622;
}
);
leftKerningGroup = O;
leftMetricsKey = O;
note = C;
rightKerningGroup = O;
unicode = 0043;
},
{
glyphname = D;
lastChange = "2018-08-19 09:03:21 +0000";
layers = (
{
anchors = (
{
name = stroke;
position = "{140, 496}";
},
{
name = top;
position = "{295, 700}";
}
);
layerId = "A285862E-BE3D-4D67-A40D-0E28E121AD88";
paths = (
{
closed = 1;
nodes = (
"82 0 LINE",
"289 0 LINE SMOOTH",
"465 0 OFFCURVE",
"570 82 OFFCURVE",
"570 279 CURVE SMOOTH",
"570 421 LINE SMOOTH",
"570 618 OFFCURVE",
"465 700 OFFCURVE",
"289 700 CURVE SMOOTH",
"82 700 LINE"
);
},
{
closed = 1;
nodes = (
"286 652 LINE SMOOTH",
"441 652 OFFCURVE",
"516 594 OFFCURVE",
"516 426 CURVE SMOOTH",
"516 274 LINE SMOOTH",
"516 106 OFFCURVE",
"445 48 OFFCURVE",
"286 48 CURVE SMOOTH",
"136 48 LINE",
"136 652 LINE"
);
}
);
width = 634;
},
{
anchors = (
{
name = stroke;
position = "{150, 496}";
},
{
name = top;
position = "{303, 700}";
}
);
layerId = "5117E3E8-E17C-4812-BAF5-9E7064564A59";
paths = (
{
closed = 1;
nodes = (
"58 0 LINE",
"298 0 LINE SMOOTH",
"486 0 OFFCURVE",
"586 93 OFFCURVE",
"586 284 CURVE SMOOTH",
"586 416 LINE SMOOTH",
"586 607 OFFCURVE",
"486 700 OFFCURVE",
"298 700 CURVE SMOOTH",
"58 700 LINE"
);
},
{
closed = 1;
nodes = (
"300 580 LINE SMOOTH",
"413 580 OFFCURVE",
"454 522 OFFCURVE",
"454 420 CURVE SMOOTH",
"454 280 LINE SMOOTH",
"454 178 OFFCURVE",
"413 120 OFFCURVE",
"300 120 CURVE SMOOTH",
"190 120 LINE",
"190 580 LINE"
);
}
);
width = 616;
}
);
leftKerningGroup = H;
leftMetricsKey = I;
note = D.alt;
rightKerningGroup = O;
rightMetricsKey = O;
unicode = 0044;
},
{
glyphname = E;
lastChange = "2018-08-19 09:03:09 +0000";
layers = (
{
anchors = (
{
name = bottom;
position = "{305, 0}";
},
{
name = top;
position = "{303, 700}";
}
);
layerId = "A285862E-BE3D-4D67-A40D-0E28E121AD88";
paths = (
{
closed = 1;
nodes = (
"82 0 LINE",
"514 0 LINE",
"514 48 LINE",
"136 48 LINE",
"136 327 LINE",
"482 327 LINE",
"482 375 LINE",
"136 375 LINE",
"136 652 LINE",
"510 652 LINE",
"510 700 LINE",
"82 700 LINE"
);
}
);
width = 562;
},
{
anchors = (
{
name = bottom;
position = "{302, 0}";
},
{
name = top;
position = "{293, 700}";
}
);
layerId = "5117E3E8-E17C-4812-BAF5-9E7064564A59";
paths = (
{
closed = 1;
nodes = (
"58 0 LINE",
"524 0 LINE",
"524 120 LINE",
"190 120 LINE",
"190 293 LINE",
"490 293 LINE",
"490 413 LINE",
"190 413 LINE",
"190 580 LINE",
"518 580 LINE",
"518 700 LINE",
"58 700 LINE"
);
}
);
width = 552;
}
);
leftKerningGroup = H;
leftMetricsKey = I;
note = E;
rightKerningGroup = E;
unicode = 0045;
},
{
glyphname = F;
lastChange = "2018-08-19 09:03:07 +0000";
layers = (
{
layerId = "A285862E-BE3D-4D67-A40D-0E28E121AD88";
paths = (
{
closed = 1;
nodes = (
"82 0 LINE",
"136 0 LINE",
"136 327 LINE",
"482 327 LINE",
"482 375 LINE",
"136 375 LINE",
"136 652 LINE",
"502 652 LINE",
"502 700 LINE",
"82 700 LINE"
);
}
);
width = 538;
},
{
layerId = "5117E3E8-E17C-4812-BAF5-9E7064564A59";
paths = (
{
closed = 1;
nodes = (
"58 0 LINE",
"190 0 LINE",
"190 291 LINE",
"484 291 LINE",
"484 411 LINE",
"190 411 LINE",
"190 580 LINE",
"504 580 LINE",
"504 700 LINE",
"58 700 LINE"
);
}
);
width = 524;
}
);
leftKerningGroup = H;
leftMetricsKey = I;
note = F;
rightKerningGroup = F;
unicode = 0046;
},
{
glyphname = G;
lastChange = "2018-08-19 09:00:24 +0000";
layers = (
{
anchors = (
{
name = bottom;
position = "{331, 0}";
},
{
name = top;
position = "{328, 700}";
}
);
layerId = "A285862E-BE3D-4D67-A40D-0E28E121AD88";
paths = (
{
closed = 1;
nodes = (
"64 95 OFFCURVE",
"162 -14 OFFCURVE",
"332 -14 CURVE SMOOTH",
"485 -14 OFFCURVE",
"580 79 OFFCURVE",
"580 233 CURVE SMOOTH",
"580 319 LINE",
"294 319 LINE",
"294 271 LINE",
"526 271 LINE",
"526 233 LINE SMOOTH",
"526 107 OFFCURVE",
"466 34 OFFCURVE",
"332 34 CURVE SMOOTH",
"196 34 OFFCURVE",
"118 125 OFFCURVE",
"118 281 CURVE SMOOTH",
"118 419 LINE SMOOTH",
"118 575 OFFCURVE",
"196 666 OFFCURVE",
"334 666 CURVE SMOOTH",
"459 666 OFFCURVE",
"526 590 OFFCURVE",
"526 464 CURVE SMOOTH",
"526 455 LINE",
"580 455 LINE",
"580 464 LINE SMOOTH",
"580 618 OFFCURVE",
"496 714 OFFCURVE",
"333 714 CURVE SMOOTH",
"167 714 OFFCURVE",
"64 605 OFFCURVE",
"64 417 CURVE SMOOTH",
"64 282 LINE SMOOTH"
);
}
);
width = 644;
},
{
anchors = (
{
name = bottom;
position = "{318, 0}";
},
{
name = top;
position = "{318, 700}";
}
);
layerId = "5117E3E8-E17C-4812-BAF5-9E7064564A59";
paths = (
{
closed = 1;
nodes = (
"30 84 OFFCURVE",
"148 -14 OFFCURVE",
"320 -14 CURVE SMOOTH",
"501 -14 OFFCURVE",
"598 79 OFFCURVE",
"598 246 CURVE SMOOTH",
"598 362 LINE",
"296 362 LINE",
"296 246 LINE",
"466 246 LINE",
"466 239 LINE SMOOTH",
"466 155 OFFCURVE",
"425 104 OFFCURVE",
"320 104 CURVE SMOOTH",
"217 104 OFFCURVE",
"162 168 OFFCURVE",
"162 264 CURVE SMOOTH",
"162 436 LINE SMOOTH",
"162 524 OFFCURVE",
"221 596 OFFCURVE",
"320 596 CURVE SMOOTH",
"416 596 OFFCURVE",
"466 540 OFFCURVE",
"466 456 CURVE SMOOTH",
"466 446 LINE",
"598 446 LINE",
"598 454 LINE SMOOTH",
"598 618 OFFCURVE",
"497 714 OFFCURVE",
"320 714 CURVE SMOOTH",
"143 714 OFFCURVE",
"30 604 OFFCURVE",
"30 430 CURVE SMOOTH",
"30 270 LINE SMOOTH"
);
}
);
width = 628;
}
);
leftKerningGroup = O;
leftMetricsKey = O;
note = G;
rightKerningGroup = O;
rightMetricsKey = O;
unicode = 0047;
},
{
glyphname = H;
lastChange = "2018-08-19 09:02:22 +0000";
layers = (
{
anchors = (
{
name = stroke;
position = "{320, 496}";
}
);
layerId = "A285862E-BE3D-4D67-A40D-0E28E121AD88";
paths = (
{
closed = 1;
nodes = (
"82 0 LINE",
"136 0 LINE",
"136 327 LINE",
"504 327 LINE",
"504 0 LINE",
"558 0 LINE",
"558 700 LINE",
"504 700 LINE",
"504 375 LINE",
"136 375 LINE",
"136 700 LINE",
"82 700 LINE"
);
}
);
width = 640;
},
{
anchors = (
{
name = stroke;
position = "{322, 496}";
}
);
layerId = "5117E3E8-E17C-4812-BAF5-9E7064564A59";
paths = (
{
closed = 1;
nodes = (
"58 0 LINE",
"190 0 LINE",
"190 291 LINE",
"454 291 LINE",
"454 0 LINE",
"586 0 LINE",
"586 700 LINE",
"454 700 LINE",
"454 411 LINE",
"190 411 LINE",
"190 700 LINE",
"58 700 LINE"
);
}
);
width = 644;
}
);
leftKerningGroup = H;
leftMetricsKey = I;
note = H;
rightKerningGroup = H;
rightMetricsKey = I;
unicode = 0048;
},
{
glyphname = I;
lastChange = "2018-08-16 10:59:13 +0000";
layers = (
{
anchors = (
{
name = bottom;
position = "{109, 0}";
},
{
name = top;
position = "{109, 700}";
}
);
layerId = "A285862E-BE3D-4D67-A40D-0E28E121AD88";
paths = (
{
closed = 1;
nodes = (
"82 0 LINE",
"136 0 LINE",
"136 700 LINE",
"82 700 LINE"
);
}
);
width = 218;
},
{
anchors = (
{
name = bottom;
position = "{124, 0}";
},
{
name = top;
position = "{124, 700}";
}
);
layerId = "5117E3E8-E17C-4812-BAF5-9E7064564A59";
paths = (
{
closed = 1;
nodes = (
"58 0 LINE",
"190 0 LINE",
"190 700 LINE",
"58 700 LINE"
);
}
);
width = 248;
}
);
leftKerningGroup = I;
note = I;
rightKerningGroup = I;
unicode = 0049;
},
{
glyphname = IJ;
lastChange = "2018-08-13 17:50:57 +0000";
layers = (
{
layerId = "A285862E-BE3D-4D67-A40D-0E28E121AD88";
paths = (
{
closed = 1;
nodes = (
"78 374 LINE",
"132 374 LINE",
"132 700 LINE",
"78 700 LINE"
);
},
{
closed = 1;
nodes = (
"442 210 LINE SMOOTH",
"442 108 OFFCURVE",
"407 34 OFFCURVE",
"294 34 CURVE SMOOTH",
"184 34 OFFCURVE",
"132 107 OFFCURVE",
"132 210 CURVE SMOOTH",
"132 227 LINE",
"78 227 LINE",
"78 210 LINE SMOOTH",
"78 63 OFFCURVE",
"159 -14 OFFCURVE",
"292 -14 CURVE SMOOTH",
"429 -14 OFFCURVE",
"496 65 OFFCURVE",
"496 210 CURVE SMOOTH",
"496 700 LINE",
"442 700 LINE"
);
}
);
width = 574;
},
{
layerId = "5117E3E8-E17C-4812-BAF5-9E7064564A59";
paths = (
{
closed = 1;
nodes = (
"54 342 LINE",
"186 342 LINE",
"186 700 LINE",
"54 700 LINE"
);
},
{
closed = 1;
nodes = (
"382 210 LINE SMOOTH",
"382 146 OFFCURVE",
"348 110 OFFCURVE",
"287 110 CURVE SMOOTH",
"222 110 OFFCURVE",
"186 147 OFFCURVE",
"186 210 CURVE SMOOTH",
"186 246 LINE",
"54 246 LINE",
"54 210 LINE SMOOTH",
"54 69 OFFCURVE",
"145 -14 OFFCURVE",
"291 -14 CURVE SMOOTH",
"430 -14 OFFCURVE",
"514 65 OFFCURVE",
"514 210 CURVE SMOOTH",
"514 700 LINE",
"382 700 LINE"
);
}
);
width = 568;
}
);
leftKerningGroup = U;
leftMetricsKey = U;
note = IJ;
rightKerningGroup = U;
rightMetricsKey = U;
unicode = 0132;
},
{
glyphname = J;
lastChange = "2018-08-19 09:02:14 +0000";
layers = (
{
layerId = "A285862E-BE3D-4D67-A40D-0E28E121AD88";
paths = (
{
closed = 1;
nodes = (
"406 700 LINE",
"406 210 LINE SMOOTH",
"406 108 OFFCURVE",
"371 34 OFFCURVE",
"258 34 CURVE SMOOTH",
"148 34 OFFCURVE",
"96 107 OFFCURVE",
"96 210 CURVE SMOOTH",
"96 257 LINE",
"42 257 LINE",
"42 210 LINE SMOOTH",
"42 63 OFFCURVE",
"123 -14 OFFCURVE",
"256 -14 CURVE SMOOTH",
"393 -14 OFFCURVE",
"460 65 OFFCURVE",
"460 210 CURVE SMOOTH",
"460 700 LINE"
);
}
);
width = 538;
},
{
layerId = "5117E3E8-E17C-4812-BAF5-9E7064564A59";
paths = (
{
closed = 1;
nodes = (
"350 700 LINE",
"350 210 LINE SMOOTH",
"350 144 OFFCURVE",
"316 106 OFFCURVE",
"257 106 CURVE SMOOTH",
"194 106 OFFCURVE",
"158 145 OFFCURVE",
"158 210 CURVE SMOOTH",
"158 276 LINE",
"26 276 LINE",
"26 210 LINE SMOOTH",
"26 69 OFFCURVE",
"117 -14 OFFCURVE",
"261 -14 CURVE SMOOTH",
"398 -14 OFFCURVE",
"482 65 OFFCURVE",
"482 210 CURVE SMOOTH",
"482 700 LINE"
);
}
);
width = 536;
}
);
leftKerningGroup = J;
note = J;
rightKerningGroup = U;
rightMetricsKey = U;
unicode = 004A;
},
{
glyphname = K;
lastChange = "2018-08-16 10:59:21 +0000";
layers = (
{
anchors = (
{
name = bottom;
position = "{323, 0}";
}
);
layerId = "A285862E-BE3D-4D67-A40D-0E28E121AD88";
paths = (
{
closed = 1;
nodes = (
"136 0 LINE",
"136 252 LINE",
"615 700 LINE",
"539 700 LINE",
"148 332 LINE",
"136 332 LINE",
"136 700 LINE",
"82 700 LINE",
"82 0 LINE"
);
},
{
closed = 1;
nodes = (
"263 398 LINE",
"543 0 LINE",
"610 0 LINE",
"302 433 LINE"
);
}
);
width = 617;
},
{
anchors = (
{
name = bottom;
position = "{327, 0}";
}
);
layerId = "5117E3E8-E17C-4812-BAF5-9E7064564A59";
paths = (
{
closed = 1;
nodes = (
"190 0 LINE",
"190 252 LINE",
"661 700 LINE",
"483 700 LINE",
"202 424 LINE",
"190 424 LINE",
"190 700 LINE",
"58 700 LINE",
"58 0 LINE"
);
},
{
closed = 1;
nodes = (
"237 361 LINE",
"489 0 LINE",
"651 0 LINE",
"329 448 LINE"
);
}
);
width = 649;
}
);
leftKerningGroup = H;
leftMetricsKey = I;
note = K;
rightKerningGroup = K;
unicode = 004B;
},
{
glyphname = L;
lastChange = "2018-08-19 09:01:53 +0000";
layers = (
{
anchors = (
{
name = bottom;
position = "{312, 0}";
},
{
name = caron;
position = "{135, 700}";
},
{
name = sidecaron;
position = "{136, 700}";
},
{
name = top;
position = "{108, 700}";
}
);
layerId = "A285862E-BE3D-4D67-A40D-0E28E121AD88";
paths = (
{
closed = 1;
nodes = (
"82 0 LINE",
"518 0 LINE",
"518 48 LINE",
"136 48 LINE",
"136 700 LINE",
"82 700 LINE"
);
}
);
width = 540;
},
{
anchors = (
{
name = bottom;
position = "{286, 0}";
},
{
name = caron;
position = "{190, 700}";
},
{
name = sidecaron;
position = "{190, 700}";
},
{
name = top;
position = "{124, 700}";
}
);
layerId = "5117E3E8-E17C-4812-BAF5-9E7064564A59";
paths = (
{
closed = 1;
nodes = (
"58 0 LINE",
"514 0 LINE",
"514 120 LINE",
"190 120 LINE",
"190 700 LINE",
"58 700 LINE"
);
}
);
width = 526;
}
);
leftKerningGroup = H;
leftMetricsKey = I;
note = L;
rightKerningGroup = L;
unicode = 004C;
},
{
glyphname = Lslash;
lastChange = "2017-07-18 09:12:28 +0000";
layers = (
{
layerId = "A285862E-BE3D-4D67-A40D-0E28E121AD88";
paths = (
{
closed = 1;
nodes = (
"140 354 LINE",
"42 305 LINE",
"66 259 LINE",
"140 297 LINE",
"140 0 LINE",
"560 0 LINE",
"560 50 LINE",
"196 50 LINE",
"196 326 LINE",
"284 372 LINE",
"262 416 LINE",
"196 383 LINE",
"196 700 LINE",
"140 700 LINE"
);
}
);
width = 620;
},
{
layerId = "5117E3E8-E17C-4812-BAF5-9E7064564A59";
paths = (
{
closed = 1;
nodes = (
"96 368 LINE",
"4 322 LINE",
"58 215 LINE",
"96 234 LINE",
"96 0 LINE",
"546 0 LINE",
"546 126 LINE",
"228 126 LINE",
"228 301 LINE",
"335 355 LINE",
"281 462 LINE",
"228 435 LINE",
"228 700 LINE",
"96 700 LINE"
);
}
);
width = 620;
}
);
leftKerningGroup = H;
note = Lslash;
rightKerningGroup = L;
unicode = 0141;
},
{
glyphname = M;
lastChange = "2018-08-16 10:59:34 +0000";
layers = (
{
layerId = "A285862E-BE3D-4D67-A40D-0E28E121AD88";
paths = (
{
closed = 1;
nodes = (
"82 0 LINE",
"136 0 LINE",
"136 636 LINE",
"148 636 LINE",
"391 0 LINE",
"473 0 LINE",
"716 636 LINE",
"728 636 LINE",
"728 0 LINE",
"782 0 LINE",
"782 700 LINE",
"682 700 LINE",
"438 62 LINE",
"426 62 LINE",
"182 700 LINE",
"82 700 LINE"
);
}
);
width = 864;
},
{
layerId = "5117E3E8-E17C-4812-BAF5-9E7064564A59";
paths = (
{
closed = 1;
nodes = (
"58 0 LINE",
"186 0 LINE",
"186 560 LINE",
"198 560 LINE",
"343 0 LINE",
"537 0 LINE",
"682 560 LINE",
"694 560 LINE",
"694 0 LINE",
"822 0 LINE",
"822 700 LINE",
"594 700 LINE",
"446 138 LINE",
"434 138 LINE",
"286 700 LINE",
"58 700 LINE"
);
}
);
width = 880;
}
);
leftKerningGroup = H;
leftMetricsKey = I;
note = M;
rightKerningGroup = H;
rightMetricsKey = I;
unicode = 004D;
},
{
glyphname = N;
lastChange = "2018-08-16 10:59:39 +0000";
layers = (
{
anchors = (
{
name = bottom;
position = "{328, 0}";
},
{
name = top;
position = "{330, 700}";
}
);
layerId = "A285862E-BE3D-4D67-A40D-0E28E121AD88";
paths = (
{
closed = 1;
nodes = (
"82 0 LINE",
"136 0 LINE",
"136 636 LINE",
"148 636 LINE",
"476 0 LINE",
"568 0 LINE",
"568 700 LINE",
"514 700 LINE",
"514 64 LINE",
"502 64 LINE",
"174 700 LINE",
"82 700 LINE"
);
}
);
width = 650;
},
{
anchors = (
{
name = bottom;
position = "{328, 0}";
},
{
name = top;
position = "{326, 700}";
}
);
layerId = "5117E3E8-E17C-4812-BAF5-9E7064564A59";
paths = (
{
closed = 1;
nodes = (
"58 0 LINE",
"190 0 LINE",
"190 576 LINE",
"202 576 LINE",
"362 0 LINE",
"596 0 LINE",
"596 700 LINE",
"464 700 LINE",
"464 124 LINE",
"452 124 LINE",
"292 700 LINE",
"58 700 LINE"
);
}
);
width = 654;
}
);
leftKerningGroup = H;
leftMetricsKey = I;
note = N;
rightKerningGroup = H;
rightMetricsKey = I;
unicode = 004E;
},
{
glyphname = Eng;
lastChange = "2018-08-19 10:04:45 +0000";
layers = (
{
layerId = "A285862E-BE3D-4D67-A40D-0E28E121AD88";
paths = (
{
closed = 1;
nodes = (
"326 -200 LINE",
"441 -200 LINE SMOOTH",
"531 -200 OFFCURVE",
"568 -154 OFFCURVE",
"568 -70 CURVE SMOOTH",
"568 0 LINE",
"514 0 LINE",
"514 -88 LINE SMOOTH",
"514 -130 OFFCURVE",
"496 -154 OFFCURVE",
"448 -154 CURVE SMOOTH",
"326 -154 LINE"
);
},
{
closed = 1;
nodes = (
"82 0 LINE",
"136 0 LINE",
"136 636 LINE",
"148 636 LINE",
"476 0 LINE",
"568 0 LINE",
"568 700 LINE",
"514 700 LINE",
"514 64 LINE",
"502 64 LINE",
"174 700 LINE",
"82 700 LINE"
);
}
);
width = 650;
},
{
layerId = "5117E3E8-E17C-4812-BAF5-9E7064564A59";
paths = (
{
closed = 1;
nodes = (
"289 -200 LINE",
"495 -200 LINE SMOOTH",
"555 -200 OFFCURVE",
"596 -167 OFFCURVE",
"596 -98 CURVE SMOOTH",
"596 0 LINE",
"464 0 LINE",
"464 -55 LINE SMOOTH",
"464 -77 OFFCURVE",
"454 -88 OFFCURVE",
"434 -88 CURVE SMOOTH",
"289 -88 LINE"
);
},
{
closed = 1;
nodes = (
"58 0 LINE",
"190 0 LINE",
"190 576 LINE",
"202 576 LINE",
"362 0 LINE",
"596 0 LINE",
"596 700 LINE",
"464 700 LINE",
"464 124 LINE",
"452 124 LINE",
"292 700 LINE",
"58 700 LINE"
);
}
);
width = 654;
}
);
leftKerningGroup = H;
leftMetricsKey = N;
note = Eng;
rightKerningGroup = H;
rightMetricsKey = N;
unicode = 014A;
},
{
glyphname = O;
lastChange = "2018-08-19 08:59:26 +0000";
layers = (
{
anchors = (
{
name = bottom;
position = "{318, 0}";
},
{
name = top;
position = "{318, 700}";
}
);
layerId = "5117E3E8-E17C-4812-BAF5-9E7064564A59";
paths = (
{
closed = 1;
nodes = (
"30 276 LINE SMOOTH",
"30 92 OFFCURVE",
"139 -14 OFFCURVE",
"318 -14 CURVE SMOOTH",
"497 -14 OFFCURVE",
"606 92 OFFCURVE",
"606 276 CURVE SMOOTH",
"606 424 LINE SMOOTH",
"606 603 OFFCURVE",
"497 714 OFFCURVE",
"318 714 CURVE SMOOTH",
"139 714 OFFCURVE",
"30 603 OFFCURVE",
"30 424 CURVE SMOOTH"
);
},
{
closed = 1;
nodes = (
"162 525 OFFCURVE",
"217 596 OFFCURVE",
"318 596 CURVE SMOOTH",
"416 596 OFFCURVE",
"474 529 OFFCURVE",
"474 430 CURVE SMOOTH",
"474 270 LINE SMOOTH",
"474 173 OFFCURVE",
"427 104 OFFCURVE",
"318 104 CURVE SMOOTH",
"212 104 OFFCURVE",
"162 169 OFFCURVE",
"162 270 CURVE SMOOTH",
"162 430 LINE SMOOTH"
);
}
);
width = 636;
},
{
anchors = (
{
name = bottom;
position = "{333, 0}";
},
{
name = top;
position = "{330, 700}";
}
);
layerId = "A285862E-BE3D-4D67-A40D-0E28E121AD88";
paths = (
{
closed = 1;
nodes = (
"64 272 LINE SMOOTH",
"64 84 OFFCURVE",
"168 -14 OFFCURVE",
"330 -14 CURVE SMOOTH",
"492 -14 OFFCURVE",
"596 84 OFFCURVE",
"596 272 CURVE SMOOTH",
"596 428 LINE SMOOTH",
"596 616 OFFCURVE",
"492 714 OFFCURVE",
"330 714 CURVE SMOOTH",
"168 714 OFFCURVE",
"64 616 OFFCURVE",
"64 428 CURVE SMOOTH"
);
},
{
closed = 1;
nodes = (
"118 578 OFFCURVE",
"196 666 OFFCURVE",
"330 666 CURVE SMOOTH",
"464 666 OFFCURVE",
"542 578 OFFCURVE",
"542 432 CURVE SMOOTH",
"542 268 LINE SMOOTH",
"542 122 OFFCURVE",
"464 34 OFFCURVE",
"330 34 CURVE SMOOTH",
"196 34 OFFCURVE",
"118 122 OFFCURVE",
"118 268 CURVE SMOOTH",
"118 432 LINE SMOOTH"
);
}
);
width = 660;
}
);
leftKerningGroup = O;
note = O;
rightKerningGroup = O;
unicode = 004F;
},
{
glyphname = OE;
lastChange = "2018-08-19 10:03:31 +0000";
layers = (
{
layerId = "A285862E-BE3D-4D67-A40D-0E28E121AD88";
paths = (
{
closed = 1;
nodes = (
"312 46 LINE",
"186 46 OFFCURVE",
"118 134 OFFCURVE",
"118 280 CURVE SMOOTH",
"118 420 LINE SMOOTH",
"118 566 OFFCURVE",
"186 654 OFFCURVE",
"312 654 CURVE",
"312 700 LINE",
"158 700 OFFCURVE",
"64 602 OFFCURVE",
"64 414 CURVE SMOOTH",
"64 286 LINE SMOOTH",
"64 98 OFFCURVE",
"158 0 OFFCURVE",
"312 0 CURVE"
);
},
{
closed = 1;
nodes = (
"312 0 LINE",
"526 0 LINE",
"526 48 LINE",
"366 48 LINE",
"366 327 LINE",
"498 327 LINE",
"498 375 LINE",
"366 375 LINE",
"366 652 LINE",
"522 652 LINE",
"522 700 LINE",
"312 700 LINE"
);
}
);
width = 574;
},
{
layerId = "5117E3E8-E17C-4812-BAF5-9E7064564A59";
paths = (
{
closed = 1;
nodes = (
"270 118 LINE",
"188 118 OFFCURVE",
"162 177 OFFCURVE",
"162 276 CURVE SMOOTH",
"162 424 LINE SMOOTH",
"162 517 OFFCURVE",
"193 582 OFFCURVE",
"270 582 CURVE",
"270 700 LINE",
"119 700 OFFCURVE",
"30 595 OFFCURVE",
"30 414 CURVE SMOOTH",
"30 286 LINE SMOOTH",
"30 99 OFFCURVE",
"119 0 OFFCURVE",
"270 0 CURVE"
);
},
{
closed = 1;
nodes = (
"270 0 LINE",
"524 0 LINE",
"524 120 LINE",
"402 120 LINE",
"402 291 LINE",
"492 291 LINE",
"492 411 LINE",
"402 411 LINE",
"402 580 LINE",
"518 580 LINE",
"518 700 LINE",
"270 700 LINE"
);
}
);
width = 552;
}
);
leftKerningGroup = O;
leftMetricsKey = O;
note = OE;
rightKerningGroup = E;
rightMetricsKey = E;
unicode = 0152;
},
{
glyphname = P;
lastChange = "2018-08-19 08:59:36 +0000";
layers = (
{
layerId = "A285862E-BE3D-4D67-A40D-0E28E121AD88";
paths = (
{
closed = 1;
nodes = (
"82 0 LINE",
"136 0 LINE",
"136 298 LINE",
"336 298 LINE SMOOTH",
"458 298 OFFCURVE",
"554 371 OFFCURVE",
"554 499 CURVE SMOOTH",
"554 627 OFFCURVE",
"458 700 OFFCURVE",
"336 700 CURVE SMOOTH",
"82 700 LINE"
);
},
{
closed = 1;
nodes = (
"330 652 LINE SMOOTH",
"438 652 OFFCURVE",
"500 596 OFFCURVE",
"500 499 CURVE SMOOTH",
"500 402 OFFCURVE",
"438 346 OFFCURVE",
"330 346 CURVE SMOOTH",
"136 346 LINE",
"136 652 LINE"
);
}
);
width = 588;
},
{
layerId = "5117E3E8-E17C-4812-BAF5-9E7064564A59";
paths = (
{
closed = 1;
nodes = (
"58 0 LINE",
"190 0 LINE",
"190 256 LINE",
"346 256 LINE SMOOTH",
"475 256 OFFCURVE",
"570 344 OFFCURVE",
"570 478 CURVE SMOOTH",
"570 612 OFFCURVE",
"478 700 OFFCURVE",
"346 700 CURVE SMOOTH",
"58 700 LINE"
);
},
{
closed = 1;
nodes = (
"333 580 LINE SMOOTH",
"396 580 OFFCURVE",
"438 540 OFFCURVE",
"438 478 CURVE SMOOTH",
"438 416 OFFCURVE",
"396 376 OFFCURVE",
"333 376 CURVE SMOOTH",
"190 376 LINE",
"190 580 LINE"
);
}
);
width = 582;
}
);
leftKerningGroup = H;
leftMetricsKey = I;
note = P;
rightKerningGroup = P;
unicode = 0050;
},
{
glyphname = Thorn;
lastChange = "2018-08-13 17:50:57 +0000";
layers = (
{
layerId = "A285862E-BE3D-4D67-A40D-0E28E121AD88";
paths = (
{
closed = 1;
nodes = (
"82 0 LINE",
"136 0 LINE",
"136 159 LINE",
"336 159 LINE SMOOTH",
"458 159 OFFCURVE",
"554 232 OFFCURVE",
"554 360 CURVE SMOOTH",
"554 488 OFFCURVE",
"458 561 OFFCURVE",
"336 561 CURVE SMOOTH",
"136 561 LINE",
"136 700 LINE",
"82 700 LINE"
);
},
{
closed = 1;
nodes = (
"330 513 LINE SMOOTH",
"438 513 OFFCURVE",
"500 457 OFFCURVE",
"500 360 CURVE SMOOTH",
"500 263 OFFCURVE",
"438 207 OFFCURVE",
"330 207 CURVE SMOOTH",
"136 207 LINE",
"136 513 LINE"
);
}
);
width = 588;
},
{
layerId = "5117E3E8-E17C-4812-BAF5-9E7064564A59";
paths = (
{
closed = 1;
nodes = (
"58 0 LINE",
"190 0 LINE",
"190 138 LINE",
"346 138 LINE SMOOTH",
"475 138 OFFCURVE",
"570 226 OFFCURVE",
"570 360 CURVE SMOOTH",
"570 494 OFFCURVE",
"478 582 OFFCURVE",
"346 582 CURVE SMOOTH",
"190 582 LINE",
"190 700 LINE",
"58 700 LINE"
);
},
{
closed = 1;
nodes = (
"333 458 LINE SMOOTH",
"396 458 OFFCURVE",
"438 420 OFFCURVE",
"438 360 CURVE SMOOTH",
"438 300 OFFCURVE",
"396 262 OFFCURVE",
"333 262 CURVE SMOOTH",
"190 262 LINE",
"190 458 LINE"
);
}
);
width = 582;
}
);
leftKerningGroup = H;
leftMetricsKey = I;
note = Thorn;
rightMetricsKey = P;
unicode = 00DE;
},
{
glyphname = Q;
lastChange = "2018-08-19 08:59:58 +0000";
layers = (
{
layerId = "A285862E-BE3D-4D67-A40D-0E28E121AD88";
paths = (
{
closed = 1;
nodes = (
"64 272 LINE SMOOTH",
"64 84 OFFCURVE",
"168 -14 OFFCURVE",
"330 -14 CURVE SMOOTH",
"492 -14 OFFCURVE",
"596 84 OFFCURVE",
"596 272 CURVE SMOOTH",
"596 428 LINE SMOOTH",
"596 616 OFFCURVE",
"492 714 OFFCURVE",
"330 714 CURVE SMOOTH",
"168 714 OFFCURVE",
"64 616 OFFCURVE",
"64 428 CURVE SMOOTH"
);
},
{
closed = 1;
nodes = (
"118 578 OFFCURVE",
"196 666 OFFCURVE",
"330 666 CURVE SMOOTH",
"464 666 OFFCURVE",
"542 578 OFFCURVE",
"542 432 CURVE SMOOTH",
"542 268 LINE SMOOTH",
"542 122 OFFCURVE",
"464 34 OFFCURVE",
"330 34 CURVE SMOOTH",
"196 34 OFFCURVE",
"118 122 OFFCURVE",
"118 268 CURVE SMOOTH",
"118 432 LINE SMOOTH"
);
},
{
closed = 1;
nodes = (
"303 -84 LINE SMOOTH",
"303 -126 OFFCURVE",
"327 -150 OFFCURVE",
"367 -150 CURVE SMOOTH",
"455 -150 LINE",
"455 -102 LINE",
"385 -102 LINE SMOOTH",
"367 -102 OFFCURVE",
"357 -92 OFFCURVE",
"357 -72 CURVE SMOOTH",
"357 0 LINE",
"303 0 LINE"
);
}
);
width = 660;
},
{
layerId = "5117E3E8-E17C-4812-BAF5-9E7064564A59";
paths = (
{
closed = 1;
nodes = (
"30 276 LINE SMOOTH",
"30 92 OFFCURVE",
"139 -14 OFFCURVE",
"318 -14 CURVE SMOOTH",
"497 -14 OFFCURVE",
"606 92 OFFCURVE",
"606 276 CURVE SMOOTH",
"606 424 LINE SMOOTH",
"606 603 OFFCURVE",
"497 714 OFFCURVE",
"318 714 CURVE SMOOTH",
"139 714 OFFCURVE",
"30 603 OFFCURVE",
"30 424 CURVE SMOOTH"
);
},
{
closed = 1;
nodes = (
"162 525 OFFCURVE",
"217 596 OFFCURVE",
"318 596 CURVE SMOOTH",
"416 596 OFFCURVE",
"474 529 OFFCURVE",
"474 430 CURVE SMOOTH",
"474 270 LINE SMOOTH",
"474 173 OFFCURVE",
"427 104 OFFCURVE",
"318 104 CURVE SMOOTH",
"212 104 OFFCURVE",
"162 169 OFFCURVE",
"162 270 CURVE SMOOTH",
"162 430 LINE SMOOTH"
);
},
{
closed = 1;
nodes = (
"252 -84 LINE SMOOTH",
"252 -140 OFFCURVE",
"294 -180 OFFCURVE",
"350 -180 CURVE SMOOTH",
"465 -180 LINE",
"465 -66 LINE",
"412 -66 LINE SMOOTH",
"394 -66 OFFCURVE",
"384 -56 OFFCURVE",
"384 -36 CURVE SMOOTH",
"384 0 LINE",
"252 0 LINE"
);
}
);
width = 636;
}
);
leftKerningGroup = O;
leftMetricsKey = O;
note = Q;
rightKerningGroup = O;
rightMetricsKey = O;
unicode = 0051;
},
{
glyphname = R;
lastChange = "2018-08-19 09:01:44 +0000";
layers = (
{
anchors = (
{
name = bottom;
position = "{313, 0}";
},
{
name = top;
position = "{314, 700}";
}
);
layerId = "A285862E-BE3D-4D67-A40D-0E28E121AD88";
paths = (
{
closed = 1;
nodes = (
"82 0 LINE",
"136 0 LINE",
"136 306 LINE",
"356 306 LINE SMOOTH",
"478 306 OFFCURVE",
"574 377 OFFCURVE",
"574 503 CURVE SMOOTH",
"574 629 OFFCURVE",
"478 700 OFFCURVE",
"356 700 CURVE SMOOTH",
"82 700 LINE"
);
},
{
closed = 1;
nodes = (
"350 652 LINE SMOOTH",
"458 652 OFFCURVE",
"520 598 OFFCURVE",
"520 503 CURVE SMOOTH",
"520 408 OFFCURVE",
"458 354 OFFCURVE",
"350 354 CURVE SMOOTH",
"136 354 LINE",
"136 652 LINE"
);
},
{
closed = 1;
nodes = (
"494 0 LINE",
"554 0 LINE",
"380 316 LINE",
"324 316 LINE"
);
}
);
width = 614;
},
{
anchors = (
{
name = bottom;
position = "{307, 0}";
},
{
name = top;
position = "{297, 700}";
}
);
layerId = "5117E3E8-E17C-4812-BAF5-9E7064564A59";
paths = (
{
closed = 1;
nodes = (
"58 0 LINE",
"190 0 LINE",
"190 259 LINE",
"366 259 LINE SMOOTH",
"495 259 OFFCURVE",
"590 346 OFFCURVE",
"590 479 CURVE SMOOTH",
"590 612 OFFCURVE",
"498 699 OFFCURVE",
"366 699 CURVE SMOOTH",
"58 699 LINE"
);
},
{
closed = 1;
nodes = (
"353 579 LINE SMOOTH",
"416 579 OFFCURVE",
"458 540 OFFCURVE",
"458 479 CURVE SMOOTH",
"458 418 OFFCURVE",
"416 379 OFFCURVE",
"353 379 CURVE SMOOTH",
"190 379 LINE",
"190 579 LINE"
);
},
{
closed = 1;
nodes = (
"436 0 LINE",
"582 0 LINE",
"416 316 LINE",
"278 316 LINE"
);
}
);
width = 616;
}
);
leftKerningGroup = H;
leftMetricsKey = I;
note = R;
rightKerningGroup = R;
unicode = 0052;
},
{
glyphname = S;
lastChange = "2018-08-19 09:01:29 +0000";
layers = (
{
anchors = (
{
name = bottom;
position = "{320, 0}";
},
{
name = top;
position = "{308, 700}";
}
);
layerId = "A285862E-BE3D-4D67-A40D-0E28E121AD88";
paths = (
{
closed = 1;
nodes = (
"82 531 CURVE SMOOTH",
"82 416 OFFCURVE",
"158 371 OFFCURVE",
"271 344 CURVE SMOOTH",
"341 327 LINE SMOOTH",
"437 304 OFFCURVE",
"502 267 OFFCURVE",
"502 184 CURVE SMOOTH",
"502 98 OFFCURVE",
"433 34 OFFCURVE",
"315 34 CURVE SMOOTH",
"187 34 OFFCURVE",
"104 100 OFFCURVE",
"104 248 CURVE SMOOTH",
"104 272 LINE",
"50 272 LINE",
"50 245 LINE SMOOTH",
"50 79 OFFCURVE",
"146 -14 OFFCURVE",
"316 -14 CURVE SMOOTH",
"454 -14 OFFCURVE",
"556 63 OFFCURVE",
"556 184 CURVE SMOOTH",
"556 296 OFFCURVE",
"478 346 OFFCURVE",
"365 373 CURVE SMOOTH",
"295 390 LINE SMOOTH",
"197 414 OFFCURVE",
"136 443 OFFCURVE",
"136 531 CURVE SMOOTH",
"136 617 OFFCURVE",
"218 666 OFFCURVE",
"310 666 CURVE SMOOTH",
"412 666 OFFCURVE",
"504 615 OFFCURVE",
"504 505 CURVE SMOOTH",
"504 462 LINE",
"558 462 LINE",
"558 508 LINE SMOOTH",
"558 642 OFFCURVE",
"450 714 OFFCURVE",
"312 714 CURVE SMOOTH",
"182 714 OFFCURVE",
"82 639 OFFCURVE"
);
}
);
width = 614;
},
{
anchors = (
{
name = bottom;
position = "{311, 0}";
},
{
name = top;
position = "{297, 700}";
}
);
layerId = "5117E3E8-E17C-4812-BAF5-9E7064564A59";
paths = (
{
closed = 1;
nodes = (
"54 511 CURVE SMOOTH",
"54 384 OFFCURVE",
"140 334 OFFCURVE",
"285 302 CURVE SMOOTH",
"294 300 LINE SMOOTH",
"386 280 OFFCURVE",
"438 260 OFFCURVE",
"438 199 CURVE SMOOTH",
"438 147 OFFCURVE",
"398 102 OFFCURVE",
"313 102 CURVE SMOOTH",
"207 102 OFFCURVE",
"158 160 OFFCURVE",
"158 246 CURVE SMOOTH",
"158 264 LINE",
"28 264 LINE",
"28 242 LINE SMOOTH",
"28 78 OFFCURVE",
"138 -14 OFFCURVE",
"309 -14 CURVE SMOOTH",
"458 -14 OFFCURVE",
"568 65 OFFCURVE",
"568 206 CURVE SMOOTH",
"568 333 OFFCURVE",
"483 384 OFFCURVE",
"339 416 CURVE SMOOTH",
"330 418 LINE SMOOTH",
"246 437 OFFCURVE",
"184 449 OFFCURVE",
"184 515 CURVE SMOOTH",
"184 563 OFFCURVE",
"227 598 OFFCURVE",
"297 598 CURVE SMOOTH",
"377 598 OFFCURVE",
"428 563 OFFCURVE",
"428 483 CURVE SMOOTH",
"428 462 LINE",
"556 462 LINE",
"556 492 LINE SMOOTH",
"556 632 OFFCURVE",
"447 714 OFFCURVE",
"297 714 CURVE SMOOTH",
"161 714 OFFCURVE",
"54 636 OFFCURVE"
);
}
);
width = 604;
}
);
leftKerningGroup = S;
note = S;
rightKerningGroup = S;
unicode = 0053;
},
{
glyphname = Germandbls;
lastChange = "2018-08-19 09:05:06 +0000";
layers = (
{
layerId = "A285862E-BE3D-4D67-A40D-0E28E121AD88";
paths = (
{
closed = 1;
nodes = (
"132 0 LINE",
"132 456 LINE SMOOTH",
"132 597 OFFCURVE",
"207 652 OFFCURVE",
"314 652 CURVE SMOOTH",
"483 652 LINE",
"348 496 LINE SMOOTH",
"315 458 OFFCURVE",
"289 425 OFFCURVE",
"289 384 CURVE SMOOTH",
"289 338 OFFCURVE",
"315 309 OFFCURVE",
"374 281 CURVE SMOOTH",
"430 254 LINE SMOOTH",
"468 236 OFFCURVE",
"522 207 OFFCURVE",
"522 145 CURVE SMOOTH",
"522 85 OFFCURVE",
"473 34 OFFCURVE",
"400 34 CURVE SMOOTH",
"304 34 OFFCURVE",
"262 95 OFFCURVE",
"262 168 CURVE",
"208 168 LINE",
"208 60 OFFCURVE",
"282 -14 OFFCURVE",
"400 -14 CURVE SMOOTH",
"508 -14 OFFCURVE",
"572 58 OFFCURVE",
"572 145 CURVE SMOOTH",
"572 227 OFFCURVE",
"515 272 OFFCURVE",
"440 306 CURVE SMOOTH",
"394 327 LINE SMOOTH",
"362 342 OFFCURVE",
"339 359 OFFCURVE",
"339 386 CURVE SMOOTH",
"339 410 OFFCURVE",
"354 429 OFFCURVE",
"368 445 CURVE SMOOTH",
"550 658 LINE",
"550 700 LINE",
"314 700 LINE SMOOTH",
"172 700 OFFCURVE",
"78 620 OFFCURVE",
"78 452 CURVE SMOOTH",
"78 0 LINE"
);
}
);
width = 602;
},
{
layerId = "5117E3E8-E17C-4812-BAF5-9E7064564A59";
paths = (
{
closed = 1;
nodes = (
"186 0 LINE",
"186 420 LINE SMOOTH",
"186 543 OFFCURVE",
"259 580 OFFCURVE",
"326 580 CURVE SMOOTH",
"433 580 LINE",
"353 479 LINE SMOOTH",
"320 437 OFFCURVE",
"293 401 OFFCURVE",
"293 355 CURVE SMOOTH",
"293 308 OFFCURVE",
"317 267 OFFCURVE",
"373 244 CURVE SMOOTH",
"421 224 LINE SMOOTH",
"455 210 OFFCURVE",
"485 194 OFFCURVE",
"485 159 CURVE SMOOTH",
"485 127 OFFCURVE",
"460 104 OFFCURVE",
"420 104 CURVE SMOOTH",
"380 104 OFFCURVE",
"350 129 OFFCURVE",
"350 168 CURVE",
"216 168 LINE",
"216 63 OFFCURVE",
"292 -14 OFFCURVE",
"420 -14 CURVE SMOOTH",
"548 -14 OFFCURVE",
"615 62 OFFCURVE",
"615 161 CURVE SMOOTH",
"615 257 OFFCURVE",
"559 300 OFFCURVE",
"488 331 CURVE SMOOTH",
"451 347 LINE SMOOTH",
"433 355 OFFCURVE",
"425 361 OFFCURVE",
"425 371 CURVE SMOOTH",
"425 379 OFFCURVE",
"428 384 OFFCURVE",
"436 394 CURVE SMOOTH",
"586 596 LINE",
"586 700 LINE",
"326 700 LINE SMOOTH",
"165 700 OFFCURVE",
"54 596 OFFCURVE",
"54 416 CURVE SMOOTH",
"54 0 LINE"
);
}
);
width = 637;
}
);
leftMetricsKey = U;
note = uni1E9E;
unicode = 1E9E;
},
{
glyphname = T;
lastChange = "2018-08-19 09:00:53 +0000";
layers = (
{
anchors = (
{
name = bottom;
position = "{295, 0}";
},
{
name = stroke;
position = "{294, 496}";
},
{
name = top;
position = "{294, 700}";
}
);
layerId = "A285862E-BE3D-4D67-A40D-0E28E121AD88";
paths = (
{
closed = 1;
nodes = (
"22 652 LINE",
"267 652 LINE",
"267 0 LINE",
"321 0 LINE",
"321 652 LINE",
"566 652 LINE",
"566 700 LINE",
"22 700 LINE"
);
}
);
width = 588;
},
{
anchors = (
{
name = bottom;
position = "{286, 0}";
},
{
name = stroke;
position = "{286, 496}";
},
{
name = top;
position = "{286, 700}";
}
);
layerId = "5117E3E8-E17C-4812-BAF5-9E7064564A59";
paths = (
{
closed = 1;
nodes = (
"8 580 LINE",
"220 580 LINE",
"220 0 LINE",
"352 0 LINE",
"352 580 LINE",
"564 580 LINE",
"564 700 LINE",
"8 700 LINE"
);
}
);
width = 572;
}
);
leftKerningGroup = T;
note = T;
rightKerningGroup = T;
unicode = 0054;
},
{
glyphname = U;
lastChange = "2018-08-19 09:00:37 +0000";
layers = (
{
anchors = (
{
name = bottom;
position = "{329, 0}";
},
{
name = top;
position = "{326, 700}";
}
);
layerId = "A285862E-BE3D-4D67-A40D-0E28E121AD88";
paths = (
{
closed = 1;
nodes = (
"78 227 LINE SMOOTH",
"78 62 OFFCURVE",
"180 -14 OFFCURVE",
"326 -14 CURVE SMOOTH",
"472 -14 OFFCURVE",
"574 62 OFFCURVE",
"574 227 CURVE SMOOTH",
"574 700 LINE",
"520 700 LINE",
"520 227 LINE SMOOTH",
"520 96 OFFCURVE",
"448 34 OFFCURVE",
"326 34 CURVE SMOOTH",
"204 34 OFFCURVE",
"132 96 OFFCURVE",
"132 227 CURVE SMOOTH",
"132 700 LINE",
"78 700 LINE"
);
}
);
width = 652;
},
{
anchors = (
{
name = bottom;
position = "{328, 0}";
},
{
name = top;
position = "{328, 700}";
}
);
layerId = "5117E3E8-E17C-4812-BAF5-9E7064564A59";
paths = (
{
closed = 1;
nodes = (
"54 248 LINE SMOOTH",
"54 88 OFFCURVE",
"153 -14 OFFCURVE",
"328 -14 CURVE SMOOTH",
"503 -14 OFFCURVE",
"602 88 OFFCURVE",
"602 248 CURVE SMOOTH",
"602 700 LINE",
"470 700 LINE",
"470 242 LINE SMOOTH",
"470 157 OFFCURVE",
"419 104 OFFCURVE",
"328 104 CURVE SMOOTH",
"237 104 OFFCURVE",
"186 157 OFFCURVE",
"186 242 CURVE SMOOTH",
"186 700 LINE",
"54 700 LINE"
);
}
);
width = 656;
}
);
leftKerningGroup = U;
note = U;
rightKerningGroup = U;
unicode = 0055;
},
{
glyphname = V;
lastChange = "2018-08-16 11:00:06 +0000";
layers = (
{
layerId = "A285862E-BE3D-4D67-A40D-0E28E121AD88";
paths = (
{
closed = 1;
nodes = (
"265 0 LINE",
"343 0 LINE",
"588 700 LINE",
"530 700 LINE",
"310 58 LINE",
"298 58 LINE",
"78 700 LINE",
"20 700 LINE"
);
}
);
width = 608;
},
{
layerId = "5117E3E8-E17C-4812-BAF5-9E7064564A59";
paths = (
{
closed = 1;
nodes = (
"197 0 LINE",
"403 0 LINE",
"598 700 LINE",
"462 700 LINE",
"306 117 LINE",
"294 117 LINE",
"138 700 LINE",
"2 700 LINE"
);
}
);
width = 600;
}
);
leftKerningGroup = V;
note = V;
rightKerningGroup = V;
unicode = 0056;
},
{
glyphname = W;
lastChange = "2018-08-19 08:40:20 +0000";
layers = (
{
anchors = (
{
name = top;
position = "{436, 700}";
}
);
layerId = "A285862E-BE3D-4D67-A40D-0E28E121AD88";
paths = (
{
closed = 1;
nodes = (
"175 0 LINE",
"268 0 LINE",
"430 635 LINE",
"442 635 LINE",
"604 0 LINE",
"697 0 LINE",
"833 700 LINE",
"777 700 LINE",
"655 65 LINE",
"643 65 LINE",
"481 700 LINE",
"391 700 LINE",
"229 65 LINE",
"217 65 LINE",
"95 700 LINE",
"39 700 LINE"
);
}
);
width = 872;
},
{
anchors = (
{
name = top;
position = "{448, 700}";
}
);
layerId = "5117E3E8-E17C-4812-BAF5-9E7064564A59";
paths = (
{
closed = 1;
nodes = (
"120 0 LINE",
"335 0 LINE",
"442 572 LINE",
"454 572 LINE",
"561 0 LINE",
"776 0 LINE",
"886 700 LINE",
"754 700 LINE",
"670 128 LINE",
"658 128 LINE",
"551 700 LINE",
"345 700 LINE",
"238 128 LINE",
"226 128 LINE",
"142 700 LINE",
"10 700 LINE"
);
}
);
width = 896;
}
);
leftKerningGroup = W;
note = W;
rightKerningGroup = W;
unicode = 0057;
},
{
glyphname = X;
lastChange = "2018-08-13 17:50:16 +0000";
layers = (
{
layerId = "A285862E-BE3D-4D67-A40D-0E28E121AD88";
paths = (
{
closed = 1;
nodes = (
"264 359 LINE",
"264 347 LINE",
"32 0 LINE",
"98 0 LINE",
"304 313 LINE",
"316 313 LINE",
"522 0 LINE",
"588 0 LINE",
"356 347 LINE",
"356 359 LINE",
"584 700 LINE",
"518 700 LINE",
"316 393 LINE",
"304 393 LINE",
"102 700 LINE",
"36 700 LINE"
);
}
);
width = 620;
},
{
layerId = "5117E3E8-E17C-4812-BAF5-9E7064564A59";
paths = (
{
closed = 1;
nodes = (
"209 360 LINE",
"209 346 LINE",
"12 0 LINE",
"158 0 LINE",
"305 256 LINE",
"319 256 LINE",
"466 0 LINE",
"612 0 LINE",
"415 346 LINE",
"415 360 LINE",
"610 700 LINE",
"464 700 LINE",
"319 450 LINE",
"305 450 LINE",
"160 700 LINE",
"14 700 LINE"
);
}
);
width = 624;
}
);
leftKerningGroup = X;
note = X;
rightKerningGroup = X;
unicode = 0058;
},
{
glyphname = Y;
lastChange = "2018-08-13 17:47:59 +0000";
layers = (
{
anchors = (
{
name = top;
position = "{310, 700}";
}
);
layerId = "A285862E-BE3D-4D67-A40D-0E28E121AD88";
paths = (
{
closed = 1;
nodes = (
"283 278 LINE",
"283 0 LINE",
"337 0 LINE",
"337 278 LINE",
"592 700 LINE",
"528 700 LINE",
"316 344 LINE",
"304 344 LINE",
"92 700 LINE",
"28 700 LINE"
);
}
);
width = 620;
},
{
anchors = (
{
name = top;
position = "{306, 700}";
}
);
layerId = "5117E3E8-E17C-4812-BAF5-9E7064564A59";
paths = (
{
closed = 1;
nodes = (
"240 237 LINE",
"240 0 LINE",
"372 0 LINE",
"372 237 LINE",
"618 700 LINE",
"468 700 LINE",
"315 402 LINE",
"297 402 LINE",
"144 700 LINE",
"-6 700 LINE"
);
}
);
width = 612;
}
);
leftKerningGroup = Y;
note = Y;
rightKerningGroup = Y;
unicode = 0059;
},
{
glyphname = Z;
lastChange = "2018-08-19 09:00:51 +0000";
layers = (
{
anchors = (
{
name = bottom;
position = "{287, 0}";
},
{
name = top;
position = "{286, 700}";
}
);
layerId = "A285862E-BE3D-4D67-A40D-0E28E121AD88";
paths = (
{
closed = 1;
nodes = (
"60 652 LINE",
"469 652 LINE",
"48 44 LINE",
"48 0 LINE",
"544 0 LINE",
"544 48 LINE",
"112 48 LINE",
"533 656 LINE",
"533 700 LINE",
"60 700 LINE"
);
}
);
width = 586;
},
{
anchors = (
{
name = bottom;
position = "{304, 0}";
},
{
name = top;
position = "{296, 700}";
}
);
layerId = "5117E3E8-E17C-4812-BAF5-9E7064564A59";
paths = (
{
closed = 1;
nodes = (
"38 582 LINE",
"374 582 LINE",
"28 114 LINE",
"28 0 LINE",
"542 0 LINE",
"542 118 LINE",
"194 118 LINE",
"540 586 LINE",
"540 700 LINE",
"38 700 LINE"
);
}
);
width = 570;
}
);
leftKerningGroup = Z;
note = Z;
rightKerningGroup = Z;
unicode = 005A;
},
{
glyphname = A.ss03;
lastChange = "2018-08-20 13:35:18 +0000";
layers = (
{
anchors = (
{
name = bottom;
position = "{557, 0}";
},
{
name = top;
position = "{304, 700}";
}
);
layerId = "A285862E-BE3D-4D67-A40D-0E28E121AD88";
paths = (
{
closed = 1;
nodes = (
"18 0 LINE",
"78 0 LINE",
"140 190 LINE",
"468 190 LINE",
"530 0 LINE",
"590 0 LINE",
"357 700 LINE",
"251 700 LINE"
);
},
{
closed = 1;
nodes = (
"298 670 LINE",
"310 670 LINE",
"452 238 LINE",
"156 238 LINE"
);
}
);
width = 608;
},
{
anchors = (
{
name = bottom;
position = "{543, 0}";
},
{
name = top;
position = "{302, 700}";
}
);
layerId = "5117E3E8-E17C-4812-BAF5-9E7064564A59";
paths = (
{
closed = 1;
nodes = (
"4 0 LINE",
"140 0 LINE",
"176 154 LINE",
"428 154 LINE",
"464 0 LINE",
"600 0 LINE",
"425 700 LINE",
"179 700 LINE"
);
},
{
closed = 1;
nodes = (
"296 660 LINE",
"308 660 LINE",
"399 276 LINE",
"205 276 LINE"
);
}
);
width = 604;
}
);
leftKerningGroup = A;
note = A;
rightKerningGroup = A;
},
{
glyphname = AE.ss03;
lastChange = "2018-08-19 09:09:35 +0000";
layers = (
{
anchors = (
{
name = top;
position = "{338, 700}";
}
);
layerId = "A285862E-BE3D-4D67-A40D-0E28E121AD88";
paths = (
{
closed = 1;
nodes = (
"304 238 LINE",
"153 238 LINE",
"292 670 LINE",
"304 670 LINE",
"304 700 LINE",
"247 700 LINE",
"18 0 LINE",
"76 0 LINE",
"137 190 LINE",
"304 190 LINE"
);
},
{
closed = 1;
nodes = (
"304 0 LINE",
"518 0 LINE",
"518 48 LINE",
"358 48 LINE",
"358 327 LINE",
"490 327 LINE",
"490 375 LINE",
"358 375 LINE",
"358 652 LINE",
"514 652 LINE",
"514 700 LINE",
"304 700 LINE"
);
}
);
width = 566;
},
{
anchors = (
{
name = top;
position = "{316, 700}";
}
);
layerId = "5117E3E8-E17C-4812-BAF5-9E7064564A59";
paths = (
{
closed = 1;
nodes = (
"266 276 LINE",
"185 276 LINE",
"254 660 LINE",
"266 660 LINE",
"266 700 LINE",
"139 700 LINE",
"2 0 LINE",
"136 0 LINE",
"164 156 LINE",
"266 156 LINE"
);
},
{
closed = 1;
nodes = (
"266 0 LINE",
"520 0 LINE",
"520 120 LINE",
"398 120 LINE",
"398 291 LINE",
"488 291 LINE",
"488 411 LINE",
"398 411 LINE",
"398 580 LINE",
"514 580 LINE",
"514 700 LINE",
"266 700 LINE"
);
}
);
width = 548;
}
);
leftKerningGroup = A;
leftMetricsKey = A;
note = AE;
rightKerningGroup = E;
rightMetricsKey = E;
},
{
glyphname = M.ss03;
lastChange = "2018-08-19 08:36:52 +0000";
layers = (
{
layerId = "A285862E-BE3D-4D67-A40D-0E28E121AD88";
paths = (
{
closed = 1;
nodes = (
"82 0 LINE",
"136 0 LINE",
"136 670 LINE",
"148 670 LINE",
"378 0 LINE",
"486 0 LINE",
"716 670 LINE",
"728 670 LINE",
"728 0 LINE",
"782 0 LINE",
"782 700 LINE",
"670 700 LINE",
"438 30 LINE",
"426 30 LINE",
"194 700 LINE",
"82 700 LINE"
);
}
);
width = 864;
},
{
layerId = "5117E3E8-E17C-4812-BAF5-9E7064564A59";
paths = (
{
closed = 1;
nodes = (
"58 0 LINE",
"186 0 LINE",
"186 660 LINE",
"198 660 LINE",
"322 0 LINE",
"558 0 LINE",
"682 660 LINE",
"694 660 LINE",
"694 0 LINE",
"822 0 LINE",
"822 700 LINE",
"570 700 LINE",
"446 40 LINE",
"434 40 LINE",
"310 700 LINE",
"58 700 LINE"
);
}
);
width = 880;
}
);
leftKerningGroup = H;
leftMetricsKey = I;
note = M;
rightKerningGroup = H;
rightMetricsKey = I;
},
{
glyphname = N.ss03;
lastChange = "2018-08-19 08:40:08 +0000";
layers = (
{
anchors = (
{
name = bottom;
position = "{328, 0}";
},
{
name = top;
position = "{330, 700}";
}
);
layerId = "A285862E-BE3D-4D67-A40D-0E28E121AD88";
paths = (
{
closed = 1;
nodes = (
"82 0 LINE",
"136 0 LINE",
"136 670 LINE",
"148 670 LINE",
"456 0 LINE",
"568 0 LINE",
"568 700 LINE",
"514 700 LINE",
"514 30 LINE",
"502 30 LINE",
"194 700 LINE",
"82 700 LINE"
);
}
);
width = 650;
},
{
anchors = (
{
name = bottom;
position = "{328, 0}";
},
{
name = top;
position = "{326, 700}";
}
);
layerId = "5117E3E8-E17C-4812-BAF5-9E7064564A59";
paths = (
{
closed = 1;
nodes = (
"58 0 LINE",
"190 0 LINE",
"190 660 LINE",
"202 660 LINE",
"336 0 LINE",
"596 0 LINE",
"596 700 LINE",
"464 700 LINE",
"464 40 LINE",
"452 40 LINE",
"318 700 LINE",
"58 700 LINE"
);
}
);
width = 654;
}
);
leftKerningGroup = H;
leftMetricsKey = I;
note = N;
rightKerningGroup = H;
rightMetricsKey = I;
},
{
glyphname = Eng.ss03;
lastChange = "2018-08-13 17:38:37 +0000";
layers = (
{
layerId = "A285862E-BE3D-4D67-A40D-0E28E121AD88";
paths = (
{
closed = 1;
nodes = (
"326 -200 LINE",
"437 -200 LINE SMOOTH",
"527 -200 OFFCURVE",
"568 -154 OFFCURVE",
"568 -70 CURVE SMOOTH",
"568 0 LINE",
"512 0 LINE",
"512 -84 LINE SMOOTH",
"512 -126 OFFCURVE",
"496 -150 OFFCURVE",
"444 -150 CURVE SMOOTH",
"326 -150 LINE"
);
},
{
closed = 1;
nodes = (
"82 0 LINE",
"136 0 LINE",
"136 660 LINE",
"148 660 LINE",
"462 0 LINE",
"568 0 LINE",
"568 700 LINE",
"514 700 LINE",
"514 40 LINE",
"502 40 LINE",
"188 700 LINE",
"82 700 LINE"
);
}
);
width = 650;
},
{
layerId = "5117E3E8-E17C-4812-BAF5-9E7064564A59";
paths = (
{
closed = 1;
nodes = (
"289 -200 LINE",
"495 -200 LINE SMOOTH",
"555 -200 OFFCURVE",
"596 -167 OFFCURVE",
"596 -98 CURVE SMOOTH",
"596 0 LINE",
"464 0 LINE",
"464 -53 LINE SMOOTH",
"464 -75 OFFCURVE",
"454 -86 OFFCURVE",
"434 -86 CURVE SMOOTH",
"289 -86 LINE"
);
},
{
closed = 1;
nodes = (
"58 0 LINE",
"190 0 LINE",
"190 640 LINE",
"202 640 LINE",
"340 0 LINE",
"596 0 LINE",
"596 700 LINE",
"464 700 LINE",
"464 60 LINE",
"452 60 LINE",
"314 700 LINE",
"58 700 LINE"
);
}
);
width = 654;
}
);
leftKerningGroup = H;
leftMetricsKey = N;
note = Eng;
rightKerningGroup = H;
rightMetricsKey = N;
},
{
glyphname = V.ss03;
lastChange = "2018-08-19 08:40:15 +0000";
layers = (
{
layerId = "A285862E-BE3D-4D67-A40D-0E28E121AD88";
paths = (
{
closed = 1;
nodes = (
"251 0 LINE",
"357 0 LINE",
"588 700 LINE",
"530 700 LINE",
"310 30 LINE",
"298 30 LINE",
"78 700 LINE",
"20 700 LINE"
);
}
);
width = 608;
},
{
layerId = "5117E3E8-E17C-4812-BAF5-9E7064564A59";
paths = (
{
closed = 1;
nodes = (
"177 0 LINE",
"423 0 LINE",
"596 700 LINE",
"460 700 LINE",
"306 40 LINE",
"294 40 LINE",
"140 700 LINE",
"4 700 LINE"
);
}
);
width = 600;
}
);
leftKerningGroup = V;
note = V;
rightKerningGroup = V;
},
{
glyphname = W.ss03;
lastChange = "2018-08-19 08:40:50 +0000";
layers = (
{
anchors = (
{
name = top;
position = "{436, 700}";
}
);
layerId = "A285862E-BE3D-4D67-A40D-0E28E121AD88";
paths = (
{
closed = 1;
nodes = (
"166 0 LINE",
"276 0 LINE",
"430 670 LINE",
"442 670 LINE",
"596 0 LINE",
"706 0 LINE",
"833 700 LINE",
"777 700 LINE",
"655 30 LINE",
"643 30 LINE",
"489 700 LINE",
"383 700 LINE",
"229 30 LINE",
"217 30 LINE",
"95 700 LINE",
"39 700 LINE"
);
}
);
width = 872;
},
{
anchors = (
{
name = top;
position = "{448, 700}";
}
);
layerId = "5117E3E8-E17C-4812-BAF5-9E7064564A59";
paths = (
{
closed = 1;
nodes = (
"105 0 LINE",
"345 0 LINE",
"442 660 LINE",
"454 660 LINE",
"551 0 LINE",
"791 0 LINE",
"882 700 LINE",
"750 700 LINE",
"676 40 LINE",
"664 40 LINE",
"567 700 LINE",
"329 700 LINE",
"232 40 LINE",
"220 40 LINE",
"146 700 LINE",
"14 700 LINE"
);
}
);
width = 896;
}
);
leftKerningGroup = W;
note = W;
rightKerningGroup = W;
},
{
glyphname = I.ss04;
lastChange = "2018-08-19 09:05:15 +0000";
layers = (
{
anchors = (
{
name = bottom;
position = "{201, 0}";
},
{
name = top;
position = "{201, 700}";
}
);
layerId = "A285862E-BE3D-4D67-A40D-0E28E121AD88";
paths = (
{
closed = 1;
nodes = (
"45 652 LINE",
"174 652 LINE",
"174 48 LINE",
"45 48 LINE",
"45 0 LINE",
"357 0 LINE",
"357 48 LINE",
"228 48 LINE",
"228 652 LINE",
"357 652 LINE",
"357 700 LINE",
"45 700 LINE"
);
}
);
width = 402;
},
{
anchors = (
{
name = bottom;
position = "{210, 0}";
},
{
name = top;
position = "{210, 700}";
}
);
layerId = "5117E3E8-E17C-4812-BAF5-9E7064564A59";
paths = (
{
closed = 1;
nodes = (
"30 584 LINE",
"144 584 LINE",
"144 116 LINE",
"30 116 LINE",
"30 0 LINE",
"390 0 LINE",
"390 116 LINE",
"276 116 LINE",
"276 584 LINE",
"390 584 LINE",
"390 700 LINE",
"30 700 LINE"
);
}
);
width = 420;
}
);
leftKerningGroup = I.ss02;
note = I;
rightKerningGroup = I.ss02;
},
{
glyphname = IJ.ss04;
lastChange = "2018-08-19 09:07:35 +0000";
layers = (
{
layerId = "A285862E-BE3D-4D67-A40D-0E28E121AD88";
paths = (
{
closed = 1;
nodes = (
"45 652 LINE",
"135 652 LINE",
"135 343 LINE",
"189 343 LINE",
"189 652 LINE",
"279 652 LINE",
"279 700 LINE",
"45 700 LINE"
);
},
{
closed = 1;
nodes = (
"389 652 LINE",
"499 652 LINE",
"499 210 LINE SMOOTH",
"499 108 OFFCURVE",
"464 34 OFFCURVE",
"351 34 CURVE SMOOTH",
"241 34 OFFCURVE",
"189 107 OFFCURVE",
"189 210 CURVE SMOOTH",
"189 227 LINE",
"135 227 LINE",
"135 210 LINE SMOOTH",
"135 63 OFFCURVE",
"216 -14 OFFCURVE",
"349 -14 CURVE SMOOTH",
"486 -14 OFFCURVE",
"553 65 OFFCURVE",
"553 210 CURVE SMOOTH",
"553 652 LINE",
"643 652 LINE",
"643 700 LINE",
"389 700 LINE"
);
}
);
width = 673;
},
{
layerId = "5117E3E8-E17C-4812-BAF5-9E7064564A59";
paths = (
{
closed = 1;
nodes = (
"30 580 LINE",
"110 580 LINE",
"110 342 LINE",
"242 342 LINE",
"242 580 LINE",
"322 580 LINE",
"322 700 LINE",
"30 700 LINE"
);
},
{
closed = 1;
nodes = (
"390 580 LINE",
"470 580 LINE",
"470 210 LINE SMOOTH",
"470 146 OFFCURVE",
"430 110 OFFCURVE",
"359 110 CURVE SMOOTH",
"284 110 OFFCURVE",
"242 147 OFFCURVE",
"242 210 CURVE SMOOTH",
"242 260 LINE",
"110 260 LINE",
"110 210 LINE SMOOTH",
"110 69 OFFCURVE",
"207 -14 OFFCURVE",
"363 -14 CURVE SMOOTH",
"512 -14 OFFCURVE",
"602 65 OFFCURVE",
"602 210 CURVE SMOOTH",
"602 580 LINE",
"682 580 LINE",
"682 700 LINE",
"390 700 LINE"
);
}
);
width = 697;
}
);
leftMetricsKey = I.ss04;
note = IJ;
rightKerningGroup = J.ss02;
rightMetricsKey = J.ss04;
},
{
glyphname = J.ss04;
lastChange = "2018-08-19 09:07:14 +0000";
layers = (
{
layerId = "A285862E-BE3D-4D67-A40D-0E28E121AD88";
paths = (
{
closed = 1;
nodes = (
"282 652 LINE",
"406 652 LINE",
"406 210 LINE SMOOTH",
"406 108 OFFCURVE",
"371 34 OFFCURVE",
"258 34 CURVE SMOOTH",
"148 34 OFFCURVE",
"96 107 OFFCURVE",
"96 210 CURVE SMOOTH",
"96 257 LINE",
"42 257 LINE",
"42 210 LINE SMOOTH",
"42 63 OFFCURVE",
"123 -14 OFFCURVE",
"256 -14 CURVE SMOOTH",
"393 -14 OFFCURVE",
"460 65 OFFCURVE",
"460 210 CURVE SMOOTH",
"460 652 LINE",
"530 652 LINE",
"530 700 LINE",
"282 700 LINE"
);
}
);
width = 560;
},
{
layerId = "5117E3E8-E17C-4812-BAF5-9E7064564A59";
paths = (
{
closed = 1;
nodes = (
"222 584 LINE",
"350 584 LINE",
"350 210 LINE SMOOTH",
"350 146 OFFCURVE",
"316 110 OFFCURVE",
"257 110 CURVE SMOOTH",
"194 110 OFFCURVE",
"158 147 OFFCURVE",
"158 210 CURVE SMOOTH",
"158 276 LINE",
"26 276 LINE",
"26 210 LINE SMOOTH",
"26 69 OFFCURVE",
"117 -14 OFFCURVE",
"261 -14 CURVE SMOOTH",
"398 -14 OFFCURVE",
"482 65 OFFCURVE",
"482 210 CURVE SMOOTH",
"482 584 LINE",
"562 584 LINE",
"562 700 LINE",
"222 700 LINE"
);
}
);
width = 577;
}
);
leftKerningGroup = J;
leftMetricsKey = J;
note = J;
rightKerningGroup = J.ss02;
},
{
glyphname = R.ss05;
lastChange = "2018-08-19 09:06:23 +0000";
layers = (
{
anchors = (
{
name = bottom;
position = "{313, 0}";
},
{
name = top;
position = "{311, 700}";
}
);
layerId = "A285862E-BE3D-4D67-A40D-0E28E121AD88";
paths = (
{
closed = 1;
nodes = (
"82 0 LINE",
"136 0 LINE",
"136 302 LINE",
"416 302 LINE SMOOTH",
"464 302 OFFCURVE",
"488 278 OFFCURVE",
"488 234 CURVE SMOOTH",
"488 0 LINE",
"542 0 LINE",
"542 240 LINE SMOOTH",
"542 302 OFFCURVE",
"500 326 OFFCURVE",
"457 327 CURVE",
"457 339 LINE",
"520 356 OFFCURVE",
"576 412 OFFCURVE",
"576 506 CURVE SMOOTH",
"576 626 OFFCURVE",
"485 700 OFFCURVE",
"355 700 CURVE SMOOTH",
"82 700 LINE"
);
},
{
closed = 1;
nodes = (
"349 652 LINE SMOOTH",
"460 652 OFFCURVE",
"520 597 OFFCURVE",
"520 501 CURVE SMOOTH",
"520 405 OFFCURVE",
"460 350 OFFCURVE",
"349 350 CURVE SMOOTH",
"136 350 LINE",
"136 652 LINE"
);
}
);
width = 622;
},
{
anchors = (
{
name = bottom;
position = "{307, 0}";
},
{
name = top;
position = "{297, 700}";
}
);
layerId = "5117E3E8-E17C-4812-BAF5-9E7064564A59";
paths = (
{
closed = 1;
nodes = (
"58 0 LINE",
"190 0 LINE",
"190 264 LINE",
"374 264 LINE SMOOTH",
"413 264 OFFCURVE",
"428 242 OFFCURVE",
"428 210 CURVE SMOOTH",
"428 0 LINE",
"560 0 LINE",
"560 232 LINE SMOOTH",
"560 288 OFFCURVE",
"527 324 OFFCURVE",
"472 327 CURVE",
"472 339 LINE",
"534 366 OFFCURVE",
"580 416 OFFCURVE",
"580 501 CURVE SMOOTH",
"580 620 OFFCURVE",
"493 700 OFFCURVE",
"362 700 CURVE SMOOTH",
"58 700 LINE"
);
},
{
closed = 1;
nodes = (
"348 580 LINE SMOOTH",
"412 580 OFFCURVE",
"448 540 OFFCURVE",
"448 482 CURVE SMOOTH",
"448 424 OFFCURVE",
"412 384 OFFCURVE",
"348 384 CURVE SMOOTH",
"190 384 LINE",
"190 580 LINE"
);
}
);
width = 616;
}
);
leftKerningGroup = H;
leftMetricsKey = I;
note = R;
rightKerningGroup = R;
},
{
glyphname = a;
lastChange = "2018-11-16 08:50:14 +0000";
layers = (
{
anchors = (
{
name = bottom;
position = "{462, 0}";
},
{
name = top;
position = "{282, 484}";
}
);
layerId = "A285862E-BE3D-4D67-A40D-0E28E121AD88";
paths = (
{
closed = 1;
nodes = (
"102 329 LINE",
"132 397 OFFCURVE",
"192 452 OFFCURVE",
"286 452 CURVE",
"380 452 OFFCURVE",
"436 397 OFFCURVE",
"436 310 CURVE SMOOTH",
"436 282 LINE",
"206 261 LINE SMOOTH",
"109 252 OFFCURVE",
"42 208 OFFCURVE",
"42 125 CURVE SMOOTH",
"42 42 OFFCURVE",
"117 -14 OFFCURVE",
"224 -14 CURVE SMOOTH",
"326 -14 OFFCURVE",
"386 28 OFFCURVE",
"424 87 CURVE",
"438 87 LINE",
"438 0 LINE",
"486 0 LINE",
"486 308 LINE SMOOTH",
"486 423 OFFCURVE",
"418 498 OFFCURVE",
"288 498 CURVE SMOOTH",
"158 498 OFFCURVE",
"91 423 OFFCURVE",
"56 351 CURVE"
);
},
{
closed = 1;
nodes = (
"92 182 OFFCURVE",
"139 212 OFFCURVE",
"210 218 CURVE SMOOTH",
"436 238 LINE",
"436 226 LINE SMOOTH",
"436 100 OFFCURVE",
"342 30 OFFCURVE",
"226 30 CURVE SMOOTH",
"149 30 OFFCURVE",
"92 68 OFFCURVE",
"92 125 CURVE SMOOTH"
);
}
);
width = 562;
},
{
anchors = (
{
name = bottom;
position = "{445, 0}";
},
{
name = top;
position = "{277, 496}";
}
);
layerId = "5117E3E8-E17C-4812-BAF5-9E7064564A59";
paths = (
{
closed = 1;
nodes = (
"140 312 LINE",
"166 368 OFFCURVE",
"206 408 OFFCURVE",
"276 408 CURVE SMOOTH",
"346 408 OFFCURVE",
"380 368 OFFCURVE",
"380 322 CURVE SMOOTH",
"380 306 LINE",
"190 285 LINE SMOOTH",
"95 275 OFFCURVE",
"26 220 OFFCURVE",
"26 141 CURVE SMOOTH",
"26 46 OFFCURVE",
"100 -14 OFFCURVE",
"212 -14 CURVE SMOOTH",
"317 -14 OFFCURVE",
"352 37 OFFCURVE",
"368 70 CURVE",
"382 70 LINE",
"382 0 LINE",
"506 0 LINE",
"506 313 LINE SMOOTH",
"506 433 OFFCURVE",
"413 510 OFFCURVE",
"281 510 CURVE SMOOTH",
"149 510 OFFCURVE",
"77 431 OFFCURVE",
"38 374 CURVE"
);
},
{
closed = 1;
nodes = (
"158 177 OFFCURVE",
"181 198 OFFCURVE",
"228 204 CURVE SMOOTH",
"380 222 LINE",
"380 210 LINE SMOOTH",
"380 142 OFFCURVE",
"331 90 OFFCURVE",
"243 90 CURVE SMOOTH",
"187 90 OFFCURVE",
"158 114 OFFCURVE",
"158 148 CURVE SMOOTH"
);
}
);
width = 556;
},
{
anchors = (
{
name = bottom;
position = "{452, 0}";
},
{
name = top;
position = "{278, 491}";
}
);
associatedMasterId = "A285862E-BE3D-4D67-A40D-0E28E121AD88";
layerId = "DD1DB37E-323C-4DFD-9F10-7ECED5D19DB1";
name = "Medium {530}";
paths = (
{
closed = 1;
nodes = (
"124 319 LINE",
"152 380 OFFCURVE",
"200 427 OFFCURVE",
"280 427 CURVE SMOOTH",
"360 427 OFFCURVE",
"404 380 OFFCURVE",
"404 317 CURVE SMOOTH",
"404 300 LINE",
"197 279 LINE SMOOTH",
"101 270 OFFCURVE",
"33 225 OFFCURVE",
"33 134 CURVE SMOOTH",
"33 44 OFFCURVE",
"107 -14 OFFCURVE",
"217 -14 CURVE SMOOTH",
"321 -14 OFFCURVE",
"366 33 OFFCURVE",
"392 77 CURVE",
"406 77 LINE",
"406 0 LINE",
"498 0 LINE",
"498 311 LINE SMOOTH",
"498 429 OFFCURVE",
"415 505 OFFCURVE",
"284 505 CURVE SMOOTH",
"153 505 OFFCURVE",
"83 428 OFFCURVE",
"46 364 CURVE"
);
},
{
closed = 1;
nodes = (
"130 176 OFFCURVE",
"163 199 OFFCURVE",
"220 205 CURVE SMOOTH",
"404 224 LINE",
"404 217 LINE SMOOTH",
"404 124 OFFCURVE",
"336 65 OFFCURVE",
"236 65 CURVE SMOOTH",
"171 65 OFFCURVE",
"130 93 OFFCURVE",
"130 135 CURVE SMOOTH"
);
}
);
width = 559;
}
);
leftKerningGroup = a;
note = a.alt;
rightKerningGroup = n;
rightMetricsKey = n;
unicode = 0061;
},
{
glyphname = ae;
lastChange = "2018-11-16 08:53:01 +0000";
layers = (
{
anchors = (
{
name = top;
position = "{474, 484}";
}
);
layerId = "A285862E-BE3D-4D67-A40D-0E28E121AD88";
paths = (
{
closed = 1;
nodes = (
"42 43 OFFCURVE",
"119 -14 OFFCURVE",
"228 -14 CURVE SMOOTH",
"349 -14 OFFCURVE",
"420 42 OFFCURVE",
"457 118 CURVE",
"469 118 LINE",
"507 38 OFFCURVE",
"584 -14 OFFCURVE",
"687 -14 CURVE SMOOTH",
"816 -14 OFFCURVE",
"871 57 OFFCURVE",
"904 125 CURVE",
"856 144 LINE",
"828 81 OFFCURVE",
"781 32 OFFCURVE",
"687 32 CURVE SMOOTH",
"574 32 OFFCURVE",
"497 107 OFFCURVE",
"490 231 CURVE",
"911 231 LINE",
"911 263 LINE SMOOTH",
"911 411 OFFCURVE",
"814 498 OFFCURVE",
"680 498 CURVE SMOOTH",
"593 498 OFFCURVE",
"521 455 OFFCURVE",
"480 388 CURVE",
"468 388 LINE",
"443 453 OFFCURVE",
"385 498 OFFCURVE",
"288 498 CURVE SMOOTH",
"158 498 OFFCURVE",
"91 423 OFFCURVE",
"56 351 CURVE",
"102 329 LINE",
"132 397 OFFCURVE",
"192 452 OFFCURVE",
"286 452 CURVE SMOOTH",
"380 452 OFFCURVE",
"436 397 OFFCURVE",
"436 310 CURVE SMOOTH",
"436 276 LINE",
"206 259 LINE SMOOTH",
"109 252 OFFCURVE",
"42 211 OFFCURVE",
"42 127 CURVE SMOOTH"
);
},
{
closed = 1;
nodes = (
"92 185 OFFCURVE",
"139 211 OFFCURVE",
"210 216 CURVE SMOOTH",
"436 232 LINE",
"436 226 LINE SMOOTH",
"436 100 OFFCURVE",
"348 30 OFFCURVE",
"228 30 CURVE SMOOTH",
"151 30 OFFCURVE",
"92 69 OFFCURVE",
"92 127 CURVE SMOOTH"
);
},
{
closed = 1;
nodes = (
"502 385 OFFCURVE",
"578 452 OFFCURVE",
"680 452 CURVE SMOOTH",
"783 452 OFFCURVE",
"855 391 OFFCURVE",
"859 275 CURVE",
"490 275 LINE"
);
}
);
width = 957;
},
{
anchors = (
{
name = top;
position = "{454, 496}";
}
);
layerId = "5117E3E8-E17C-4812-BAF5-9E7064564A59";
paths = (
{
closed = 1;
nodes = (
"26 49 OFFCURVE",
"111 -14 OFFCURVE",
"233 -14 CURVE SMOOTH",
"331 -14 OFFCURVE",
"399 26 OFFCURVE",
"439 87 CURVE",
"451 87 LINE",
"492 24 OFFCURVE",
"561 -14 OFFCURVE",
"645 -14 CURVE SMOOTH",
"774 -14 OFFCURVE",
"830 56 OFFCURVE",
"864 108 CURVE",
"761 168 LINE",
"744 133 OFFCURVE",
"707 94 OFFCURVE",
"637 94 CURVE SMOOTH",
"565 94 OFFCURVE",
"518 145 OFFCURVE",
"513 213 CURVE",
"874 213 LINE",
"874 260 LINE SMOOTH",
"874 409 OFFCURVE",
"779 510 OFFCURVE",
"639 510 CURVE SMOOTH",
"560 510 OFFCURVE",
"499 472 OFFCURVE",
"460 424 CURVE",
"448 424 LINE",
"412 480 OFFCURVE",
"353 510 OFFCURVE",
"277 510 CURVE SMOOTH",
"145 510 OFFCURVE",
"77 431 OFFCURVE",
"38 374 CURVE",
"140 312 LINE",
"166 368 OFFCURVE",
"206 408 OFFCURVE",
"276 408 CURVE SMOOTH",
"346 408 OFFCURVE",
"380 368 OFFCURVE",
"380 322 CURVE SMOOTH",
"380 298 LINE",
"190 283 LINE SMOOTH",
"95 275 OFFCURVE",
"26 220 OFFCURVE",
"26 141 CURVE SMOOTH"
);
},
{
closed = 1;
nodes = (
"158 177 OFFCURVE",
"181 198 OFFCURVE",
"228 202 CURVE SMOOTH",
"380 214 LINE",
"380 208 LINE SMOOTH",
"380 142 OFFCURVE",
"333 90 OFFCURVE",
"245 90 CURVE SMOOTH",
"187 90 OFFCURVE",
"158 114 OFFCURVE",
"158 148 CURVE SMOOTH"
);
},
{
closed = 1;
nodes = (
"522 360 OFFCURVE",
"561 402 OFFCURVE",
"632 402 CURVE SMOOTH",
"697 402 OFFCURVE",
"739 362 OFFCURVE",
"746 297 CURVE",
"514 297 LINE"
);
}
);
width = 896;
},
{
anchors = (
{
name = top;
position = "{463, 491}";
}
);
associatedMasterId = "A285862E-BE3D-4D67-A40D-0E28E121AD88";
layerId = "6B3779FE-0801-481C-847C-BF49A14166E2";
name = "Medium {530}";
paths = (
{
closed = 1;
nodes = (
"33 46 OFFCURVE",
"114 -14 OFFCURVE",
"231 -14 CURVE SMOOTH",
"339 -14 OFFCURVE",
"408 33 OFFCURVE",
"447 100 CURVE",
"459 100 LINE",
"498 30 OFFCURVE",
"571 -14 OFFCURVE",
"663 -14 CURVE SMOOTH",
"792 -14 OFFCURVE",
"847 56 OFFCURVE",
"881 115 CURVE",
"801 158 LINE",
"780 111 OFFCURVE",
"738 68 OFFCURVE",
"658 68 CURVE SMOOTH",
"569 68 OFFCURVE",
"510 129 OFFCURVE",
"504 216 CURVE",
"890 216 LINE",
"890 261 LINE SMOOTH",
"890 410 OFFCURVE",
"794 505 OFFCURVE",
"656 505 CURVE SMOOTH",
"574 505 OFFCURVE",
"508 465 OFFCURVE",
"469 409 CURVE",
"457 409 LINE",
"425 469 OFFCURVE",
"367 505 OFFCURVE",
"282 505 CURVE SMOOTH",
"151 505 OFFCURVE",
"83 428 OFFCURVE",
"46 364 CURVE",
"124 319 LINE",
"152 380 OFFCURVE",
"200 427 OFFCURVE",
"280 427 CURVE SMOOTH",
"360 427 OFFCURVE",
"404 380 OFFCURVE",
"404 317 CURVE SMOOTH",
"404 293 LINE",
"197 277 LINE SMOOTH",
"101 270 OFFCURVE",
"33 222 OFFCURVE",
"33 139 CURVE SMOOTH"
);
},
{
closed = 1;
nodes = (
"130 177 OFFCURVE",
"163 199 OFFCURVE",
"220 203 CURVE SMOOTH",
"404 217 LINE",
"404 211 LINE SMOOTH",
"404 120 OFFCURVE",
"339 65 OFFCURVE",
"238 65 CURVE SMOOTH",
"172 65 OFFCURVE",
"130 93 OFFCURVE",
"130 137 CURVE SMOOTH"
);
},
{
closed = 1;
nodes = (
"514 371 OFFCURVE",
"568 423 OFFCURVE",
"652 423 CURVE SMOOTH",
"734 423 OFFCURVE",
"788 374 OFFCURVE",
"793 292 CURVE",
"505 292 LINE"
);
}
);
width = 922;
}
);
leftKerningGroup = a;
leftMetricsKey = a;
note = ae;
rightKerningGroup = o;
rightMetricsKey = e;
unicode = 00E6;
},
{
glyphname = b;
lastChange = "2018-08-19 09:55:47 +0000";
layers = (
{
layerId = "A285862E-BE3D-4D67-A40D-0E28E121AD88";
paths = (
{
closed = 1;
nodes = (
"82 0 LINE",
"130 0 LINE",
"130 93 LINE",
"144 93 LINE",
"172 39 OFFCURVE",
"227 -14 OFFCURVE",
"336 -14 CURVE SMOOTH",
"469 -14 OFFCURVE",
"570 87 OFFCURVE",
"570 242 CURVE SMOOTH",
"570 397 OFFCURVE",
"469 498 OFFCURVE",
"336 498 CURVE SMOOTH",
"227 498 OFFCURVE",
"172 445 OFFCURVE",
"144 391 CURVE",
"132 391 LINE",
"132 700 LINE",
"82 700 LINE"
);
},
{
closed = 1;
nodes = (
"441 452 OFFCURVE",
"518 371 OFFCURVE",
"518 242 CURVE SMOOTH",
"518 113 OFFCURVE",
"441 32 OFFCURVE",
"327 32 CURVE SMOOTH",
"213 32 OFFCURVE",
"132 115 OFFCURVE",
"132 242 CURVE SMOOTH",
"132 369 OFFCURVE",
"213 452 OFFCURVE",
"327 452 CURVE SMOOTH"
);
}
);
width = 620;
},
{
layerId = "5117E3E8-E17C-4812-BAF5-9E7064564A59";
paths = (
{
closed = 1;
nodes = (
"56 0 LINE",
"180 0 LINE",
"180 70 LINE",
"194 70 LINE",
"220 28 OFFCURVE",
"264 -14 OFFCURVE",
"352 -14 CURVE SMOOTH",
"476 -14 OFFCURVE",
"580 96 OFFCURVE",
"580 248 CURVE SMOOTH",
"580 400 OFFCURVE",
"476 510 OFFCURVE",
"352 510 CURVE SMOOTH",
"264 510 OFFCURVE",
"220 468 OFFCURVE",
"194 426 CURVE",
"182 426 LINE",
"182 700 LINE",
"56 700 LINE"
);
},
{
closed = 1;
nodes = (
"394 398 OFFCURVE",
"454 344 OFFCURVE",
"454 248 CURVE SMOOTH",
"454 152 OFFCURVE",
"394 98 OFFCURVE",
"318 98 CURVE SMOOTH",
"240 98 OFFCURVE",
"182 154 OFFCURVE",
"182 248 CURVE SMOOTH",
"182 342 OFFCURVE",
"240 398 OFFCURVE",
"318 398 CURVE SMOOTH"
);
}
);
width = 606;
}
);
leftKerningGroup = h;
leftMetricsKey = l;
note = b;
rightKerningGroup = o;
rightMetricsKey = o;
unicode = 0062;
},
{
glyphname = c;
lastChange = "2018-08-19 09:55:59 +0000";
layers = (
{
anchors = (
{
name = bottom;
position = "{301, 0}";
},
{
name = top;
position = "{300, 484}";
}
);
layerId = "A285862E-BE3D-4D67-A40D-0E28E121AD88";
paths = (
{
closed = 1;
nodes = (
"50 92 OFFCURVE",
"160 -14 OFFCURVE",
"301 -14 CURVE SMOOTH",
"426 -14 OFFCURVE",
"509 68 OFFCURVE",
"528 170 CURVE",
"478 180 LINE",
"463 95 OFFCURVE",
"405 32 OFFCURVE",
"301 32 CURVE SMOOTH",
"188 32 OFFCURVE",
"102 121 OFFCURVE",
"102 242 CURVE SMOOTH",
"102 363 OFFCURVE",
"187 452 OFFCURVE",
"300 452 CURVE SMOOTH",
"396 452 OFFCURVE",
"464 393 OFFCURVE",
"475 305 CURVE",
"525 315 LINE",
"509 415 OFFCURVE",
"422 498 OFFCURVE",
"300 498 CURVE SMOOTH",
"160 498 OFFCURVE",
"50 392 OFFCURVE",
"50 242 CURVE SMOOTH"
);
}
);
width = 574;
},
{
anchors = (
{
name = bottom;
position = "{290, 0}";
},
{
name = top;
position = "{288, 496}";
}
);
layerId = "5117E3E8-E17C-4812-BAF5-9E7064564A59";
paths = (
{
closed = 1;
nodes = (
"26 94 OFFCURVE",
"140 -14 OFFCURVE",
"284 -14 CURVE SMOOTH",
"423 -14 OFFCURVE",
"510 63 OFFCURVE",
"534 176 CURVE",
"410 207 LINE",
"397 142 OFFCURVE",
"362 98 OFFCURVE",
"286 98 CURVE SMOOTH",
"205 98 OFFCURVE",
"152 158 OFFCURVE",
"152 248 CURVE SMOOTH",
"152 338 OFFCURVE",
"210 398 OFFCURVE",
"286 398 CURVE SMOOTH",
"362 398 OFFCURVE",
"401 348 OFFCURVE",
"410 288 CURVE",
"534 320 LINE",
"508 433 OFFCURVE",
"422 510 OFFCURVE",
"284 510 CURVE SMOOTH",
"140 510 OFFCURVE",
"26 402 OFFCURVE",
"26 248 CURVE SMOOTH"
);
}
);
width = 556;
}
);
leftKerningGroup = o;
leftMetricsKey = o;
note = c;
rightKerningGroup = o;
rightMetricsKey = "=o-4";
unicode = 0063;
},
{
glyphname = d;
lastChange = "2018-08-19 09:56:13 +0000";
layers = (
{
anchors = (
{
name = caron;
position = "{538, 700}";
},
{
name = strokeB;
position = "{538, 484}";
}
);
layerId = "A285862E-BE3D-4D67-A40D-0E28E121AD88";
paths = (
{
closed = 1;
nodes = (
"488 700 LINE",
"488 392 LINE",
"476 392 LINE",
"448 446 OFFCURVE",
"393 499 OFFCURVE",
"284 499 CURVE SMOOTH",
"151 499 OFFCURVE",
"50 398 OFFCURVE",
"50 243 CURVE SMOOTH",
"50 88 OFFCURVE",
"151 -13 OFFCURVE",
"284 -13 CURVE SMOOTH",
"393 -13 OFFCURVE",
"448 40 OFFCURVE",
"476 94 CURVE",
"490 94 LINE",
"490 0 LINE",
"538 0 LINE",
"538 700 LINE"
);
},
{
closed = 1;
nodes = (
"407 453 OFFCURVE",
"488 370 OFFCURVE",
"488 243 CURVE SMOOTH",
"488 116 OFFCURVE",
"407 33 OFFCURVE",
"293 33 CURVE SMOOTH",
"179 33 OFFCURVE",
"102 114 OFFCURVE",
"102 243 CURVE SMOOTH",
"102 372 OFFCURVE",
"179 453 OFFCURVE",
"293 453 CURVE SMOOTH"
);
}
);
width = 620;
},
{
anchors = (
{
name = caron;
position = "{550, 700}";
},
{
name = strokeB;
position = "{550, 496}";
}
);
layerId = "5117E3E8-E17C-4812-BAF5-9E7064564A59";
paths = (
{
closed = 1;
nodes = (
"424 700 LINE",
"424 426 LINE",
"412 426 LINE",
"386 468 OFFCURVE",
"342 510 OFFCURVE",
"254 510 CURVE SMOOTH",
"130 510 OFFCURVE",
"26 400 OFFCURVE",
"26 248 CURVE SMOOTH",
"26 96 OFFCURVE",
"130 -14 OFFCURVE",
"254 -14 CURVE SMOOTH",
"342 -14 OFFCURVE",
"386 28 OFFCURVE",
"412 70 CURVE",
"426 70 LINE",
"426 0 LINE",
"550 0 LINE",
"550 700 LINE"
);
},
{
closed = 1;
nodes = (
"366 398 OFFCURVE",
"424 342 OFFCURVE",
"424 248 CURVE SMOOTH",
"424 154 OFFCURVE",
"366 98 OFFCURVE",
"288 98 CURVE SMOOTH",
"212 98 OFFCURVE",
"152 152 OFFCURVE",
"152 248 CURVE SMOOTH",
"152 344 OFFCURVE",
"212 398 OFFCURVE",
"288 398 CURVE SMOOTH"
);
}
);
width = 606;
}
);
leftKerningGroup = o;
leftMetricsKey = o;
note = d;
rightKerningGroup = l;
rightMetricsKey = l;
unicode = 0064;
},
{
glyphname = eth;
lastChange = "2018-10-16 15:54:03 +0000";
layers = (
{
layerId = "A285862E-BE3D-4D67-A40D-0E28E121AD88";
paths = (
{
closed = 1;
nodes = (
"356 628 OFFCURVE",
"439 524 OFFCURVE",
"468 418 CURVE",
"456 418 LINE",
"421 466 OFFCURVE",
"367 498 OFFCURVE",
"288 498 CURVE SMOOTH",
"146 498 OFFCURVE",
"50 391 OFFCURVE",
"50 242 CURVE SMOOTH",
"50 93 OFFCURVE",
"146 -14 OFFCURVE",
"294 -14 CURVE SMOOTH",
"442 -14 OFFCURVE",
"538 90 OFFCURVE",
"538 247 CURVE SMOOTH",
"538 514 OFFCURVE",
"409 663 OFFCURVE",
"169 705 CURVE",
"161 662 LINE"
);
},
{
closed = 1;
nodes = (
"100 361 OFFCURVE",
"175 452 OFFCURVE",
"294 452 CURVE SMOOTH",
"412 452 OFFCURVE",
"488 366 OFFCURVE",
"488 242 CURVE SMOOTH",
"488 120 OFFCURVE",
"412 32 OFFCURVE",
"294 32 CURVE SMOOTH",
"175 32 OFFCURVE",
"100 115 OFFCURVE",
"100 242 CURVE SMOOTH"
);
},
{
closed = 1;
nodes = (
"248 568 LINE",
"285 549 LINE",
"369 707 LINE",
"332 726 LINE"
);
}
);
width = 593;
},
{
layerId = "5117E3E8-E17C-4812-BAF5-9E7064564A59";
paths = (
{
closed = 1;
nodes = (
"267 621 OFFCURVE",
"371 566 OFFCURVE",
"407 452 CURVE",
"395 452 LINE",
"365 484 OFFCURVE",
"323 506 OFFCURVE",
"255 506 CURVE SMOOTH",
"134 506 OFFCURVE",
"26 404 OFFCURVE",
"26 248 CURVE SMOOTH",
"26 92 OFFCURVE",
"134 -14 OFFCURVE",
"287 -14 CURVE SMOOTH",
"440 -14 OFFCURVE",
"548 92 OFFCURVE",
"548 275 CURVE SMOOTH",
"548 509 OFFCURVE",
"439 700 OFFCURVE",
"129 747 CURVE",
"110 642 LINE"
);
},
{
closed = 1;
nodes = (
"152 336 OFFCURVE",
"206 394 OFFCURVE",
"286 394 CURVE SMOOTH",
"366 394 OFFCURVE",
"420 336 OFFCURVE",
"420 248 CURVE SMOOTH",
"420 160 OFFCURVE",
"366 102 OFFCURVE",
"286 102 CURVE SMOOTH",
"206 102 OFFCURVE",
"152 160 OFFCURVE",
"152 248 CURVE SMOOTH"
);
},
{
closed = 1;
nodes = (
"183 561 LINE",
"264 541 LINE",
"323 762 LINE",
"242 782 LINE"
);
}
);
width = 578;
}
);
leftKerningGroup = o;
leftMetricsKey = o;
note = eth;
rightKerningGroup = o;
unicode = 00F0;
},
{
glyphname = e;
lastChange = "2018-11-16 08:51:04 +0000";
layers = (
{
anchors = (
{
name = bottom;
position = "{294, 0}";
},
{
name = top;
position = "{292, 484}";
}
);
layerId = "A285862E-BE3D-4D67-A40D-0E28E121AD88";
paths = (
{
closed = 1;
nodes = (
"50 99 OFFCURVE",
"148 -14 OFFCURVE",
"299 -14 CURVE SMOOTH",
"428 -14 OFFCURVE",
"483 57 OFFCURVE",
"516 125 CURVE",
"468 144 LINE",
"440 81 OFFCURVE",
"393 32 OFFCURVE",
"299 32 CURVE SMOOTH",
"186 32 OFFCURVE",
"109 107 OFFCURVE",
"102 231 CURVE",
"523 231 LINE",
"523 263 LINE SMOOTH",
"523 411 OFFCURVE",
"426 498 OFFCURVE",
"292 498 CURVE SMOOTH",
"153 498 OFFCURVE",
"50 389 OFFCURVE",
"50 246 CURVE SMOOTH"
);
},
{
closed = 1;
nodes = (
"114 385 OFFCURVE",
"190 452 OFFCURVE",
"292 452 CURVE SMOOTH",
"395 452 OFFCURVE",
"467 391 OFFCURVE",
"471 275 CURVE",
"102 275 LINE"
);
}
);
width = 569;
},
{
anchors = (
{
name = bottom;
position = "{277, 0}";
},
{
name = top;
position = "{275, 496}";
}
);
layerId = "5117E3E8-E17C-4812-BAF5-9E7064564A59";
paths = (
{
closed = 1;
nodes = (
"26 98 OFFCURVE",
"133 -14 OFFCURVE",
"281 -14 CURVE SMOOTH",
"414 -14 OFFCURVE",
"472 56 OFFCURVE",
"506 108 CURVE",
"403 168 LINE",
"386 133 OFFCURVE",
"349 94 OFFCURVE",
"279 94 CURVE SMOOTH",
"207 94 OFFCURVE",
"160 145 OFFCURVE",
"155 213 CURVE",
"516 213 LINE",
"516 260 LINE SMOOTH",
"516 409 OFFCURVE",
"419 510 OFFCURVE",
"275 510 CURVE SMOOTH",
"129 510 OFFCURVE",
"26 402 OFFCURVE",
"26 252 CURVE SMOOTH"
);
},
{
closed = 1;
nodes = (
"164 360 OFFCURVE",
"203 402 OFFCURVE",
"274 402 CURVE SMOOTH",
"339 402 OFFCURVE",
"381 362 OFFCURVE",
"388 297 CURVE",
"156 297 LINE"
);
}
);
width = 538;
},
{
anchors = (
{
name = bottom;
position = "{284, 0}";
},
{
name = top;
position = "{282, 491}";
}
);
associatedMasterId = "A285862E-BE3D-4D67-A40D-0E28E121AD88";
layerId = "ED94B97C-BE62-435C-81F1-549793FB848B";
name = "Medium {530}";
paths = (
{
closed = 1;
nodes = (
"36 98 OFFCURVE",
"139 -14 OFFCURVE",
"289 -14 CURVE SMOOTH",
"420 -14 OFFCURVE",
"477 56 OFFCURVE",
"510 115 CURVE",
"431 158 LINE",
"409 111 OFFCURVE",
"368 68 OFFCURVE",
"288 68 CURVE SMOOTH",
"198 68 OFFCURVE",
"139 129 OFFCURVE",
"134 216 CURVE",
"519 216 LINE",
"519 261 LINE SMOOTH",
"519 410 OFFCURVE",
"422 505 OFFCURVE",
"282 505 CURVE SMOOTH",
"139 505 OFFCURVE",
"36 396 OFFCURVE",
"36 249 CURVE SMOOTH"
);
},
{
closed = 1;
nodes = (
"143 371 OFFCURVE",
"197 423 OFFCURVE",
"282 423 CURVE SMOOTH",
"363 423 OFFCURVE",
"417 374 OFFCURVE",
"422 292 CURVE",
"134 292 LINE"
);
}
);
width = 551;
}
);
leftKerningGroup = o;
leftMetricsKey = o;
note = e;
rightKerningGroup = o;
rightMetricsKey = "=o-4";
unicode = 0065;
},
{
glyphname = f;
lastChange = "2018-10-10 23:51:48 +0000";
layers = (
{
layerId = "A285862E-BE3D-4D67-A40D-0E28E121AD88";
paths = (
{
closed = 1;
nodes = (
"24 440 LINE",
"190 440 LINE",
"190 0 LINE",
"240 0 LINE",
"240 440 LINE",
"408 440 LINE",
"408 484 LINE",
"240 484 LINE",
"240 626 LINE SMOOTH",
"240 646 OFFCURVE",
"250 656 OFFCURVE",
"268 656 CURVE SMOOTH",
"382 656 LINE",
"382 700 LINE",
"254 700 LINE SMOOTH",
"214 700 OFFCURVE",
"190 676 OFFCURVE",
"190 634 CURVE SMOOTH",
"190 484 LINE",
"24 484 LINE"
);
}
);
width = 440;
},
{
layerId = "5117E3E8-E17C-4812-BAF5-9E7064564A59";
paths = (
{
closed = 1;
nodes = (
"16 390 LINE",
"142 390 LINE",
"142 0 LINE",
"268 0 LINE",
"268 390 LINE",
"398 390 LINE",
"398 496 LINE",
"268 496 LINE",
"268 566 LINE SMOOTH",
"268 586 OFFCURVE",
"278 596 OFFCURVE",
"296 596 CURVE SMOOTH",
"372 596 LINE",
"372 700 LINE",
"242 700 LINE SMOOTH",
"184 700 OFFCURVE",
"142 656 OFFCURVE",
"142 598 CURVE SMOOTH",
"142 496 LINE",
"16 496 LINE"
);
}
);
width = 416;
}
);
leftKerningGroup = t;
note = f;
rightKerningGroup = f;
unicode = 0066;
},
{
glyphname = g;
lastChange = "2018-08-19 09:57:13 +0000";
layers = (
{
anchors = (
{
name = top;
position = "{312, 496}";
}
);
layerId = "A285862E-BE3D-4D67-A40D-0E28E121AD88";
paths = (
{
closed = 1;
nodes = (
"538 484 LINE",
"490 484 LINE",
"490 391 LINE",
"476 391 LINE",
"448 445 OFFCURVE",
"393 498 OFFCURVE",
"284 498 CURVE SMOOTH",
"151 498 OFFCURVE",
"50 399 OFFCURVE",
"50 246 CURVE SMOOTH",
"50 93 OFFCURVE",
"151 -6 OFFCURVE",
"284 -6 CURVE SMOOTH",
"393 -6 OFFCURVE",
"448 47 OFFCURVE",
"476 101 CURVE",
"488 101 LINE",
"488 28 LINE",
"538 23 LINE"
);
},
{
closed = 1;
nodes = (
"179 40 OFFCURVE",
"102 119 OFFCURVE",
"102 246 CURVE SMOOTH",
"102 373 OFFCURVE",
"179 452 OFFCURVE",
"293 452 CURVE SMOOTH",
"407 452 OFFCURVE",
"488 371 OFFCURVE",
"488 246 CURVE SMOOTH",
"488 121 OFFCURVE",
"407 40 OFFCURVE",
"293 40 CURVE SMOOTH"
);
},
{
closed = 1;
nodes = (
"62 -79 LINE",
"108 -154 OFFCURVE",
"179 -214 OFFCURVE",
"305 -214 CURVE SMOOTH",
"451 -214 OFFCURVE",
"538 -112 OFFCURVE",
"538 23 CURVE",
"488 28 LINE",
"488 -101 OFFCURVE",
"411 -168 OFFCURVE",
"303 -168 CURVE SMOOTH",
"204 -168 OFFCURVE",
"140 -115 OFFCURVE",
"109 -54 CURVE"
);
}
);
width = 620;
},
{
anchors = (
{
name = top;
position = "{306, 496}";
}
);
layerId = "5117E3E8-E17C-4812-BAF5-9E7064564A59";
paths = (
{
closed = 1;
nodes = (
"550 496 LINE",
"426 496 LINE",
"426 426 LINE",
"412 426 LINE",
"386 468 OFFCURVE",
"342 510 OFFCURVE",
"254 510 CURVE SMOOTH",
"130 510 OFFCURVE",
"26 404 OFFCURVE",
"26 256 CURVE SMOOTH",
"26 108 OFFCURVE",
"130 2 OFFCURVE",
"254 2 CURVE SMOOTH",
"342 2 OFFCURVE",
"386 44 OFFCURVE",
"412 86 CURVE",
"424 86 LINE",
"424 22 LINE",
"550 17 LINE"
);
},
{
closed = 1;
nodes = (
"212 114 OFFCURVE",
"152 164 OFFCURVE",
"152 256 CURVE SMOOTH",
"152 348 OFFCURVE",
"212 398 OFFCURVE",
"288 398 CURVE SMOOTH",
"366 398 OFFCURVE",
"424 346 OFFCURVE",
"424 256 CURVE SMOOTH",
"424 166 OFFCURVE",
"366 114 OFFCURVE",
"288 114 CURVE SMOOTH"
);
},
{
closed = 1;
nodes = (
"32 -74 LINE",
"82 -152 OFFCURVE",
"159 -214 OFFCURVE",
"295 -214 CURVE SMOOTH",
"451 -214 OFFCURVE",
"550 -119 OFFCURVE",
"550 17 CURVE",
"424 22 LINE",
"424 -66 OFFCURVE",
"365 -106 OFFCURVE",
"287 -106 CURVE SMOOTH",
"212 -106 OFFCURVE",
"164 -59 OFFCURVE",
"138 -8 CURVE"
);
}
);
width = 606;
}
);
leftKerningGroup = o;
leftMetricsKey = o;
note = g;
rightKerningGroup = u;
rightMetricsKey = u;
unicode = 0067;
},
{
glyphname = h;
lastChange = "2018-08-19 09:57:20 +0000";
layers = (
{
anchors = (
{
name = strokeA;
position = "{82, 484}";
}
);
layerId = "A285862E-BE3D-4D67-A40D-0E28E121AD88";
paths = (
{
closed = 1;
nodes = (
"82 0 LINE",
"132 0 LINE",
"132 242 LINE SMOOTH",
"132 380 OFFCURVE",
"211 448 OFFCURVE",
"314 448 CURVE SMOOTH",
"407 448 OFFCURVE",
"468 402 OFFCURVE",
"468 292 CURVE SMOOTH",
"468 0 LINE",
"518 0 LINE",
"518 296 LINE SMOOTH",
"518 431 OFFCURVE",
"426 494 OFFCURVE",
"324 494 CURVE SMOOTH",
"222 494 OFFCURVE",
"171 443 OFFCURVE",
"144 392 CURVE",
"132 392 LINE",
"132 700 LINE",
"82 700 LINE"
);
}
);
width = 594;
},
{
anchors = (
{
name = strokeA;
position = "{56, 496}";
}
);
layerId = "5117E3E8-E17C-4812-BAF5-9E7064564A59";
paths = (
{
closed = 1;
nodes = (
"56 0 LINE",
"182 0 LINE",
"182 256 LINE SMOOTH",
"182 344 OFFCURVE",
"225 394 OFFCURVE",
"306 394 CURVE SMOOTH",
"378 394 OFFCURVE",
"418 353 OFFCURVE",
"418 284 CURVE SMOOTH",
"418 0 LINE",
"544 0 LINE",
"544 296 LINE SMOOTH",
"544 425 OFFCURVE",
"461 504 OFFCURVE",
"351 504 CURVE SMOOTH",
"260 504 OFFCURVE",
"214 462 OFFCURVE",
"194 416 CURVE",
"182 416 LINE",
"182 700 LINE",
"56 700 LINE"
);
}
);
width = 594;
}
);
leftKerningGroup = h;
leftMetricsKey = l;
note = h;
rightKerningGroup = n;
rightMetricsKey = n;
unicode = 0068;
},
{
glyphname = idotless;
lastChange = "2018-08-19 09:57:24 +0000";
layers = (
{
anchors = (
{
name = bottom;
position = "{107, 0}";
},
{
name = top;
position = "{107, 484}";
}
);
layerId = "A285862E-BE3D-4D67-A40D-0E28E121AD88";
paths = (
{
closed = 1;
nodes = (
"82 484 LINE",
"82 0 LINE",
"132 0 LINE",
"132 484 LINE"
);
}
);
width = 214;
},
{
anchors = (
{
name = bottom;
position = "{119, 0}";
},
{
name = top;
position = "{119, 496}";
}
);
layerId = "5117E3E8-E17C-4812-BAF5-9E7064564A59";
paths = (
{
closed = 1;
nodes = (
"56 496 LINE",
"56 0 LINE",
"182 0 LINE",
"182 496 LINE"
);
}
);
width = 238;
}
);
leftKerningGroup = n;
note = dotlessi;
rightKerningGroup = u;
unicode = 0131;
},
{
glyphname = jdotless;
lastChange = "2018-10-10 23:51:54 +0000";
layers = (
{
anchors = (
{
name = top;
position = "{115, 484}";
}
);
layerId = "A285862E-BE3D-4D67-A40D-0E28E121AD88";
paths = (
{
closed = 1;
nodes = (
"90 484 LINE",
"90 -126 LINE SMOOTH",
"90 -146 OFFCURVE",
"80 -156 OFFCURVE",
"62 -156 CURVE SMOOTH",
"-40 -156 LINE",
"-40 -200 LINE",
"76 -200 LINE SMOOTH",
"116 -200 OFFCURVE",
"140 -176 OFFCURVE",
"140 -134 CURVE SMOOTH",
"140 484 LINE"
);
}
);
width = 222;
},
{
anchors = (
{
name = top;
position = "{123, 496}";
}
);
layerId = "5117E3E8-E17C-4812-BAF5-9E7064564A59";
paths = (
{
closed = 1;
nodes = (
"60 496 LINE",
"60 -64 LINE SMOOTH",
"60 -84 OFFCURVE",
"50 -94 OFFCURVE",
"32 -94 CURVE SMOOTH",
"-54 -94 LINE",
"-54 -200 LINE",
"88 -200 LINE SMOOTH",
"144 -200 OFFCURVE",
"186 -160 OFFCURVE",
"186 -104 CURVE SMOOTH",
"186 496 LINE"
);
}
);
width = 242;
}
);
leftKerningGroup = n;
note = uni0237;
rightKerningGroup = u;
rightMetricsKey = idotless;
unicode = 0237;
},
{
glyphname = k;
lastChange = "2018-08-19 09:57:51 +0000";
layers = (
{
anchors = (
{
name = bottom;
position = "{296, 0}";
}
);
layerId = "A285862E-BE3D-4D67-A40D-0E28E121AD88";
paths = (
{
closed = 1;
nodes = (
"132 0 LINE",
"132 150 LINE",
"516 484 LINE",
"439 484 LINE",
"144 224 LINE",
"132 224 LINE",
"132 700 LINE",
"82 700 LINE",
"82 0 LINE"
);
},
{
closed = 1;
nodes = (
"241 273 LINE",
"451 0 LINE",
"512 0 LINE",
"277 305 LINE"
);
}
);
width = 542;
},
{
anchors = (
{
name = bottom;
position = "{297, 0}";
}
);
layerId = "5117E3E8-E17C-4812-BAF5-9E7064564A59";
paths = (
{
closed = 1;
nodes = (
"182 0 LINE",
"182 171 LINE",
"572 496 LINE",
"396 496 LINE",
"194 326 LINE",
"182 326 LINE",
"182 700 LINE",
"56 700 LINE",
"56 0 LINE"
);
},
{
closed = 1;
nodes = (
"237 264 LINE",
"418 0 LINE",
"564 0 LINE",
"325 341 LINE"
);
}
);
width = 574;
}
);
leftKerningGroup = h;
leftMetricsKey = l;
note = k;
rightKerningGroup = k;
unicode = 006B;
},
{
glyphname = l;
lastChange = "2018-08-19 08:47:19 +0000";
layers = (
{
anchors = (
{
name = bottom;
position = "{107, 0}";
},
{
name = sidecaron;
position = "{132, 700}";
},
{
name = top;
position = "{107, 700}";
}
);
layerId = "A285862E-BE3D-4D67-A40D-0E28E121AD88";
paths = (
{
closed = 1;
nodes = (
"82 700 LINE",
"82 0 LINE",
"132 0 LINE",
"132 700 LINE"
);
}
);
width = 214;
},
{
anchors = (
{
name = bottom;
position = "{119, 0}";
},
{
name = sidecaron;
position = "{172, 700}";
},
{
name = top;
position = "{119, 700}";
}
);
layerId = "5117E3E8-E17C-4812-BAF5-9E7064564A59";
paths = (
{
closed = 1;
nodes = (
"56 700 LINE",
"56 0 LINE",
"182 0 LINE",
"182 700 LINE"
);
}
);
width = 238;
}
);
leftKerningGroup = l;
note = l;
rightKerningGroup = l;
unicode = 006C;
},
{
glyphname = lslash;
lastChange = "2018-08-19 09:58:01 +0000";
layers = (
{
layerId = "A285862E-BE3D-4D67-A40D-0E28E121AD88";
paths = (
{
closed = 1;
nodes = (
"121 700 LINE",
"121 0 LINE",
"171 0 LINE",
"171 700 LINE"
);
},
{
closed = 1;
nodes = (
"46 243 LINE",
"266 354 LINE",
"246 392 LINE",
"26 281 LINE"
);
}
);
width = 292;
},
{
layerId = "5117E3E8-E17C-4812-BAF5-9E7064564A59";
paths = (
{
closed = 1;
nodes = (
"111 700 LINE",
"111 0 LINE",
"237 0 LINE",
"237 700 LINE"
);
},
{
closed = 1;
nodes = (
"51 239 LINE",
"338 365 LINE",
"297 450 LINE",
"10 324 LINE"
);
}
);
width = 348;
}
);
leftKerningGroup = lslash;
note = lslash;
rightKerningGroup = laslash;
unicode = 0142;
},
{
glyphname = m;
lastChange = "2018-08-19 09:58:14 +0000";
layers = (
{
layerId = "A285862E-BE3D-4D67-A40D-0E28E121AD88";
paths = (
{
closed = 1;
nodes = (
"82 0 LINE",
"132 0 LINE",
"132 295 LINE SMOOTH",
"132 395 OFFCURVE",
"195 448 OFFCURVE",
"274 448 CURVE SMOOTH",
"354 448 OFFCURVE",
"400 399 OFFCURVE",
"400 328 CURVE SMOOTH",
"400 0 LINE",
"450 0 LINE",
"450 295 LINE SMOOTH",
"450 395 OFFCURVE",
"513 448 OFFCURVE",
"592 448 CURVE SMOOTH",
"672 448 OFFCURVE",
"718 399 OFFCURVE",
"718 328 CURVE SMOOTH",
"718 0 LINE",
"768 0 LINE",
"768 334 LINE SMOOTH",
"768 428 OFFCURVE",
"702 494 OFFCURVE",
"601 494 CURVE SMOOTH",
"531 494 OFFCURVE",
"476 465 OFFCURVE",
"445 401 CURVE",
"431 401 LINE",
"412 455 OFFCURVE",
"363 494 OFFCURVE",
"288 494 CURVE SMOOTH",
"216 494 OFFCURVE",
"170 465 OFFCURVE",
"144 417 CURVE",
"130 417 LINE",
"130 484 LINE",
"82 484 LINE"
);
}
);
width = 844;
},
{
layerId = "5117E3E8-E17C-4812-BAF5-9E7064564A59";
paths = (
{
closed = 1;
nodes = (
"56 0 LINE",
"182 0 LINE",
"182 302 LINE SMOOTH",
"182 364 OFFCURVE",
"220 394 OFFCURVE",
"272 394 CURVE SMOOTH",
"320 394 OFFCURVE",
"353 368 OFFCURVE",
"353 322 CURVE SMOOTH",
"353 0 LINE",
"479 0 LINE",
"479 302 LINE SMOOTH",
"479 364 OFFCURVE",
"517 394 OFFCURVE",
"569 394 CURVE SMOOTH",
"617 394 OFFCURVE",
"650 368 OFFCURVE",
"650 322 CURVE SMOOTH",
"650 0 LINE",
"776 0 LINE",
"776 332 LINE SMOOTH",
"776 435 OFFCURVE",
"703 504 OFFCURVE",
"612 504 CURVE SMOOTH",
"533 504 OFFCURVE",
"493 466 OFFCURVE",
"471 420 CURVE",
"457 420 LINE",
"436 470 OFFCURVE",
"389 504 OFFCURVE",
"325 504 CURVE SMOOTH",
"256 504 OFFCURVE",
"215 470 OFFCURVE",
"194 422 CURVE",
"180 422 LINE",
"180 496 LINE",
"56 496 LINE"
);
}
);
width = 826;
}
);
leftKerningGroup = n;
leftMetricsKey = idotless;
note = m;
rightKerningGroup = m;
rightMetricsKey = n;
unicode = 006D;
},
{
glyphname = n;
lastChange = "2018-08-19 09:58:20 +0000";
layers = (
{
anchors = (
{
name = bottom;
position = "{300, 0}";
},
{
name = top;
position = "{301, 484}";
}
);
layerId = "A285862E-BE3D-4D67-A40D-0E28E121AD88";
paths = (
{
closed = 1;
nodes = (
"82 0 LINE",
"132 0 LINE",
"132 242 LINE SMOOTH",
"132 380 OFFCURVE",
"211 448 OFFCURVE",
"314 448 CURVE SMOOTH",
"407 448 OFFCURVE",
"468 402 OFFCURVE",
"468 292 CURVE SMOOTH",
"468 0 LINE",
"518 0 LINE",
"518 296 LINE SMOOTH",
"518 431 OFFCURVE",
"426 494 OFFCURVE",
"324 494 CURVE SMOOTH",
"222 494 OFFCURVE",
"171 443 OFFCURVE",
"144 392 CURVE",
"130 392 LINE",
"130 484 LINE",
"82 484 LINE"
);
}
);
width = 594;
},
{
anchors = (
{
name = bottom;
position = "{301, 0}";
},
{
name = top;
position = "{293, 496}";
}
);
layerId = "5117E3E8-E17C-4812-BAF5-9E7064564A59";
paths = (
{
closed = 1;
nodes = (
"56 0 LINE",
"182 0 LINE",
"182 256 LINE SMOOTH",
"182 344 OFFCURVE",
"225 394 OFFCURVE",
"306 394 CURVE SMOOTH",
"378 394 OFFCURVE",
"418 353 OFFCURVE",
"418 284 CURVE SMOOTH",
"418 0 LINE",
"544 0 LINE",
"544 296 LINE SMOOTH",
"544 425 OFFCURVE",
"461 504 OFFCURVE",
"351 504 CURVE SMOOTH",
"260 504 OFFCURVE",
"214 462 OFFCURVE",
"194 416 CURVE",
"180 416 LINE",
"180 496 LINE",
"56 496 LINE"
);
}
);
width = 594;
}
);
leftKerningGroup = n;
leftMetricsKey = idotless;
note = n;
rightKerningGroup = n;
unicode = 006E;
},
{
glyphname = eng;
lastChange = "2018-10-10 23:52:46 +0000";
layers = (
{
layerId = "A285862E-BE3D-4D67-A40D-0E28E121AD88";
paths = (
{
closed = 1;
nodes = (
"82 0 LINE",
"132 0 LINE",
"132 246 LINE SMOOTH",
"132 378 OFFCURVE",
"201 452 OFFCURVE",
"314 452 CURVE SMOOTH",
"415 452 OFFCURVE",
"468 396 OFFCURVE",
"468 277 CURVE SMOOTH",
"468 0 LINE",
"518 0 LINE",
"518 284 LINE SMOOTH",
"518 436 OFFCURVE",
"433 498 OFFCURVE",
"324 498 CURVE SMOOTH",
"226 498 OFFCURVE",
"173 461 OFFCURVE",
"140 388 CURVE",
"130 388 LINE",
"130 484 LINE",
"82 484 LINE"
);
},
{
closed = 1;
nodes = (
"468 0 LINE",
"468 -126 LINE SMOOTH",
"468 -146 OFFCURVE",
"458 -156 OFFCURVE",
"440 -156 CURVE SMOOTH",
"338 -156 LINE",
"338 -200 LINE",
"454 -200 LINE SMOOTH",
"494 -200 OFFCURVE",
"518 -176 OFFCURVE",
"518 -134 CURVE SMOOTH",
"518 0 LINE"
);
}
);
width = 594;
},
{
layerId = "5117E3E8-E17C-4812-BAF5-9E7064564A59";
paths = (
{
closed = 1;
nodes = (
"56 0 LINE",
"182 0 LINE",
"182 260 LINE SMOOTH",
"182 344 OFFCURVE",
"223 398 OFFCURVE",
"306 398 CURVE SMOOTH",
"378 398 OFFCURVE",
"418 361 OFFCURVE",
"418 292 CURVE SMOOTH",
"418 0 LINE",
"544 0 LINE",
"544 310 LINE SMOOTH",
"544 437 OFFCURVE",
"465 510 OFFCURVE",
"351 510 CURVE SMOOTH",
"260 510 OFFCURVE",
"214 468 OFFCURVE",
"194 422 CURVE",
"180 422 LINE",
"180 496 LINE",
"56 496 LINE"
);
},
{
closed = 1;
nodes = (
"418 0 LINE",
"418 -64 LINE SMOOTH",
"418 -84 OFFCURVE",
"408 -94 OFFCURVE",
"390 -94 CURVE SMOOTH",
"304 -94 LINE",
"304 -200 LINE",
"446 -200 LINE SMOOTH",
"502 -200 OFFCURVE",
"544 -160 OFFCURVE",
"544 -104 CURVE SMOOTH",
"544 0 LINE"
);
}
);
width = 594;
}
);
leftKerningGroup = n;
leftMetricsKey = n;
note = eng;
rightKerningGroup = n;
rightMetricsKey = n;
unicode = 014B;
},
{
glyphname = o;
lastChange = "2018-08-19 09:58:38 +0000";
layers = (
{
anchors = (
{
name = top;
position = "{294, 484}";
}
);
layerId = "A285862E-BE3D-4D67-A40D-0E28E121AD88";
paths = (
{
closed = 1;
nodes = (
"50 93 OFFCURVE",
"146 -14 OFFCURVE",
"294 -14 CURVE SMOOTH",
"442 -14 OFFCURVE",
"538 93 OFFCURVE",
"538 242 CURVE SMOOTH",
"538 391 OFFCURVE",
"442 498 OFFCURVE",
"294 498 CURVE SMOOTH",
"146 498 OFFCURVE",
"50 391 OFFCURVE",
"50 242 CURVE SMOOTH"
);
},
{
closed = 1;
nodes = (
"100 361 OFFCURVE",
"175 452 OFFCURVE",
"294 452 CURVE SMOOTH",
"412 452 OFFCURVE",
"488 366 OFFCURVE",
"488 242 CURVE SMOOTH",
"488 120 OFFCURVE",
"412 32 OFFCURVE",
"294 32 CURVE SMOOTH",
"175 32 OFFCURVE",
"100 115 OFFCURVE",
"100 242 CURVE SMOOTH"
);
}
);
width = 588;
},
{
anchors = (
{
name = top;
position = "{286, 496}";
}
);
layerId = "5117E3E8-E17C-4812-BAF5-9E7064564A59";
paths = (
{
closed = 1;
nodes = (
"26 92 OFFCURVE",
"140 -14 OFFCURVE",
"286 -14 CURVE SMOOTH",
"432 -14 OFFCURVE",
"546 92 OFFCURVE",
"546 248 CURVE SMOOTH",
"546 404 OFFCURVE",
"432 510 OFFCURVE",
"286 510 CURVE SMOOTH",
"140 510 OFFCURVE",
"26 404 OFFCURVE",
"26 248 CURVE SMOOTH"
);
},
{
closed = 1;
nodes = (
"152 338 OFFCURVE",
"206 398 OFFCURVE",
"286 398 CURVE SMOOTH",
"366 398 OFFCURVE",
"420 338 OFFCURVE",
"420 248 CURVE SMOOTH",
"420 158 OFFCURVE",
"366 98 OFFCURVE",
"286 98 CURVE SMOOTH",
"206 98 OFFCURVE",
"152 158 OFFCURVE",
"152 248 CURVE SMOOTH"
);
}
);
width = 572;
}
);
leftKerningGroup = o;
note = o;
rightKerningGroup = o;
unicode = 006F;
},
{
glyphname = oe;
lastChange = "2018-11-16 08:54:28 +0000";
layers = (
{
layerId = "A285862E-BE3D-4D67-A40D-0E28E121AD88";
paths = (
{
closed = 1;
nodes = (
"50 93 OFFCURVE",
"146 -14 OFFCURVE",
"294 -14 CURVE SMOOTH",
"394 -14 OFFCURVE",
"470 35 OFFCURVE",
"509 129 CURVE",
"521 129 LINE",
"561 36 OFFCURVE",
"640 -14 OFFCURVE",
"741 -14 CURVE SMOOTH",
"870 -14 OFFCURVE",
"925 57 OFFCURVE",
"958 125 CURVE",
"910 144 LINE",
"882 81 OFFCURVE",
"835 32 OFFCURVE",
"741 32 CURVE SMOOTH",
"628 32 OFFCURVE",
"551 107 OFFCURVE",
"544 231 CURVE",
"965 231 LINE",
"965 263 LINE SMOOTH",
"965 411 OFFCURVE",
"868 498 OFFCURVE",
"734 498 CURVE SMOOTH",
"640 498 OFFCURVE",
"559 449 OFFCURVE",
"521 356 CURVE",
"509 356 LINE",
"471 448 OFFCURVE",
"395 498 OFFCURVE",
"294 498 CURVE SMOOTH",
"146 498 OFFCURVE",
"50 391 OFFCURVE",
"50 242 CURVE SMOOTH"
);
},
{
closed = 1;
nodes = (
"100 361 OFFCURVE",
"175 452 OFFCURVE",
"294 452 CURVE SMOOTH",
"412 452 OFFCURVE",
"488 366 OFFCURVE",
"488 242 CURVE SMOOTH",
"488 120 OFFCURVE",
"412 32 OFFCURVE",
"294 32 CURVE SMOOTH",
"175 32 OFFCURVE",
"100 115 OFFCURVE",
"100 242 CURVE SMOOTH"
);
},
{
closed = 1;
nodes = (
"556 385 OFFCURVE",
"632 452 OFFCURVE",
"734 452 CURVE SMOOTH",
"837 452 OFFCURVE",
"909 391 OFFCURVE",
"913 275 CURVE",
"544 275 LINE"
);
}
);
width = 1011;
},
{
layerId = "5117E3E8-E17C-4812-BAF5-9E7064564A59";
paths = (
{
closed = 1;
nodes = (
"26 92 OFFCURVE",
"140 -14 OFFCURVE",
"282 -14 CURVE SMOOTH",
"372 -14 OFFCURVE",
"438 19 OFFCURVE",
"481 91 CURVE",
"493 91 LINE",
"537 25 OFFCURVE",
"608 -14 OFFCURVE",
"691 -14 CURVE SMOOTH",
"820 -14 OFFCURVE",
"878 56 OFFCURVE",
"912 108 CURVE",
"809 168 LINE",
"792 133 OFFCURVE",
"755 94 OFFCURVE",
"685 94 CURVE SMOOTH",
"613 94 OFFCURVE",
"566 145 OFFCURVE",
"561 213 CURVE",
"922 213 LINE",
"922 260 LINE SMOOTH",
"922 409 OFFCURVE",
"825 510 OFFCURVE",
"685 510 CURVE SMOOTH",
"598 510 OFFCURVE",
"532 471 OFFCURVE",
"492 408 CURVE",
"480 408 LINE",
"440 475 OFFCURVE",
"371 510 OFFCURVE",
"282 510 CURVE SMOOTH",
"140 510 OFFCURVE",
"26 404 OFFCURVE",
"26 248 CURVE SMOOTH"
);
},
{
closed = 1;
nodes = (
"152 338 OFFCURVE",
"206 398 OFFCURVE",
"286 398 CURVE SMOOTH",
"366 398 OFFCURVE",
"420 338 OFFCURVE",
"420 248 CURVE SMOOTH",
"420 158 OFFCURVE",
"366 98 OFFCURVE",
"286 98 CURVE SMOOTH",
"206 98 OFFCURVE",
"152 158 OFFCURVE",
"152 248 CURVE SMOOTH"
);
},
{
closed = 1;
nodes = (
"570 360 OFFCURVE",
"609 402 OFFCURVE",
"680 402 CURVE SMOOTH",
"745 402 OFFCURVE",
"787 362 OFFCURVE",
"794 297 CURVE",
"562 297 LINE"
);
}
);
width = 944;
},
{
associatedMasterId = "A285862E-BE3D-4D67-A40D-0E28E121AD88";
layerId = "47D8E10F-F4CB-4DE1-BD52-540D5A768CC3";
name = "Medium {530}";
paths = (
{
closed = 1;
nodes = (
"36 92 OFFCURVE",
"143 -14 OFFCURVE",
"287 -14 CURVE SMOOTH",
"381 -14 OFFCURVE",
"452 26 OFFCURVE",
"493 107 CURVE",
"505 107 LINE",
"547 30 OFFCURVE",
"622 -14 OFFCURVE",
"712 -14 CURVE SMOOTH",
"841 -14 OFFCURVE",
"898 56 OFFCURVE",
"932 115 CURVE",
"852 158 LINE",
"830 111 OFFCURVE",
"789 68 OFFCURVE",
"709 68 CURVE SMOOTH",
"619 68 OFFCURVE",
"560 129 OFFCURVE",
"555 216 CURVE",
"940 216 LINE",
"940 261 LINE SMOOTH",
"940 410 OFFCURVE",
"843 505 OFFCURVE",
"706 505 CURVE SMOOTH",
"616 505 OFFCURVE",
"543 462 OFFCURVE",
"504 386 CURVE",
"492 386 LINE",
"453 464 OFFCURVE",
"381 505 OFFCURVE",
"287 505 CURVE SMOOTH",
"143 505 OFFCURVE",
"36 398 OFFCURVE",
"36 245 CURVE SMOOTH"
);
},
{
closed = 1;
nodes = (
"130 348 OFFCURVE",
"193 421 OFFCURVE",
"289 421 CURVE SMOOTH",
"386 421 OFFCURVE",
"449 350 OFFCURVE",
"449 245 CURVE SMOOTH",
"449 142 OFFCURVE",
"386 70 OFFCURVE",
"289 70 CURVE SMOOTH",
"193 70 OFFCURVE",
"130 140 OFFCURVE",
"130 245 CURVE SMOOTH"
);
},
{
closed = 1;
nodes = (
"565 371 OFFCURVE",
"619 423 OFFCURVE",
"703 423 CURVE SMOOTH",
"784 423 OFFCURVE",
"838 374 OFFCURVE",
"843 292 CURVE",
"556 292 LINE"
);
}
);
width = 972;
}
);
leftKerningGroup = o;
leftMetricsKey = o;
note = oe;
rightKerningGroup = o;
rightMetricsKey = e;
unicode = 0153;
},
{
glyphname = p;
lastChange = "2018-08-19 09:59:17 +0000";
layers = (
{
layerId = "A285862E-BE3D-4D67-A40D-0E28E121AD88";
paths = (
{
closed = 1;
nodes = (
"132 -200 LINE",
"132 93 LINE",
"144 93 LINE",
"172 39 OFFCURVE",
"227 -14 OFFCURVE",
"336 -14 CURVE SMOOTH",
"469 -14 OFFCURVE",
"570 87 OFFCURVE",
"570 242 CURVE SMOOTH",
"570 397 OFFCURVE",
"469 498 OFFCURVE",
"336 498 CURVE SMOOTH",
"227 498 OFFCURVE",
"172 445 OFFCURVE",
"144 391 CURVE",
"130 391 LINE",
"130 484 LINE",
"82 484 LINE",
"82 -200 LINE"
);
},
{
closed = 1;
nodes = (
"213 32 OFFCURVE",
"132 115 OFFCURVE",
"132 242 CURVE SMOOTH",
"132 369 OFFCURVE",
"213 452 OFFCURVE",
"327 452 CURVE SMOOTH",
"441 452 OFFCURVE",
"518 371 OFFCURVE",
"518 242 CURVE SMOOTH",
"518 113 OFFCURVE",
"441 32 OFFCURVE",
"327 32 CURVE SMOOTH"
);
}
);
width = 620;
},
{
layerId = "5117E3E8-E17C-4812-BAF5-9E7064564A59";
paths = (
{
closed = 1;
nodes = (
"182 -200 LINE",
"182 70 LINE",
"194 70 LINE",
"220 28 OFFCURVE",
"264 -14 OFFCURVE",
"352 -14 CURVE SMOOTH",
"476 -14 OFFCURVE",
"580 96 OFFCURVE",
"580 248 CURVE SMOOTH",
"580 400 OFFCURVE",
"476 510 OFFCURVE",
"352 510 CURVE SMOOTH",
"264 510 OFFCURVE",
"220 468 OFFCURVE",
"194 426 CURVE",
"180 426 LINE",
"180 496 LINE",
"56 496 LINE",
"56 -200 LINE"
);
},
{
closed = 1;
nodes = (
"240 98 OFFCURVE",
"182 154 OFFCURVE",
"182 248 CURVE SMOOTH",
"182 342 OFFCURVE",
"240 398 OFFCURVE",
"318 398 CURVE SMOOTH",
"394 398 OFFCURVE",
"454 344 OFFCURVE",
"454 248 CURVE SMOOTH",
"454 152 OFFCURVE",
"394 98 OFFCURVE",
"318 98 CURVE SMOOTH"
);
}
);
width = 606;
}
);
leftKerningGroup = n;
leftMetricsKey = idotless;
note = p;
rightKerningGroup = o;
rightMetricsKey = o;
unicode = 0070;
},
{
glyphname = thorn;
lastChange = "2018-08-19 09:59:25 +0000";
layers = (
{
layerId = "A285862E-BE3D-4D67-A40D-0E28E121AD88";
paths = (
{
closed = 1;
nodes = (
"132 -200 LINE",
"132 93 LINE",
"144 93 LINE",
"172 39 OFFCURVE",
"227 -14 OFFCURVE",
"336 -14 CURVE SMOOTH",
"469 -14 OFFCURVE",
"570 87 OFFCURVE",
"570 242 CURVE SMOOTH",
"570 397 OFFCURVE",
"469 498 OFFCURVE",
"336 498 CURVE SMOOTH",
"227 498 OFFCURVE",
"172 445 OFFCURVE",
"144 391 CURVE",
"132 391 LINE",
"132 700 LINE",
"82 700 LINE",
"82 -200 LINE"
);
},
{
closed = 1;
nodes = (
"213 32 OFFCURVE",
"132 115 OFFCURVE",
"132 242 CURVE SMOOTH",
"132 369 OFFCURVE",
"213 452 OFFCURVE",
"327 452 CURVE SMOOTH",
"441 452 OFFCURVE",
"518 371 OFFCURVE",
"518 242 CURVE SMOOTH",
"518 113 OFFCURVE",
"441 32 OFFCURVE",
"327 32 CURVE SMOOTH"
);
}
);
width = 620;
},
{
layerId = "5117E3E8-E17C-4812-BAF5-9E7064564A59";
paths = (
{
closed = 1;
nodes = (
"182 -200 LINE",
"182 70 LINE",
"194 70 LINE",
"220 28 OFFCURVE",
"264 -14 OFFCURVE",
"352 -14 CURVE SMOOTH",
"476 -14 OFFCURVE",
"580 96 OFFCURVE",
"580 248 CURVE SMOOTH",
"580 400 OFFCURVE",
"476 510 OFFCURVE",
"352 510 CURVE SMOOTH",
"264 510 OFFCURVE",
"220 468 OFFCURVE",
"194 426 CURVE",
"182 426 LINE",
"182 700 LINE",
"56 700 LINE",
"56 -200 LINE"
);
},
{
closed = 1;
nodes = (
"240 98 OFFCURVE",
"182 154 OFFCURVE",
"182 248 CURVE SMOOTH",
"182 342 OFFCURVE",
"240 398 OFFCURVE",
"318 398 CURVE SMOOTH",
"394 398 OFFCURVE",
"454 344 OFFCURVE",
"454 248 CURVE SMOOTH",
"454 152 OFFCURVE",
"394 98 OFFCURVE",
"318 98 CURVE SMOOTH"
);
}
);
width = 606;
}
);
leftKerningGroup = h;
leftMetricsKey = l;
note = thorn;
rightKerningGroup = o;
rightMetricsKey = o;
unicode = 00FE;
},
{
glyphname = q;
lastChange = "2018-08-19 09:59:33 +0000";
layers = (
{
layerId = "A285862E-BE3D-4D67-A40D-0E28E121AD88";
paths = (
{
closed = 1;
nodes = (
"538 484 LINE",
"490 484 LINE",
"490 391 LINE",
"476 391 LINE",
"448 445 OFFCURVE",
"393 498 OFFCURVE",
"284 498 CURVE SMOOTH",
"151 498 OFFCURVE",
"50 397 OFFCURVE",
"50 242 CURVE SMOOTH",
"50 87 OFFCURVE",
"151 -14 OFFCURVE",
"284 -14 CURVE SMOOTH",
"393 -14 OFFCURVE",
"448 39 OFFCURVE",
"476 93 CURVE",
"488 93 LINE",
"488 -200 LINE",
"538 -200 LINE"
);
},
{
closed = 1;
nodes = (
"179 32 OFFCURVE",
"102 113 OFFCURVE",
"102 242 CURVE SMOOTH",
"102 371 OFFCURVE",
"179 452 OFFCURVE",
"293 452 CURVE SMOOTH",
"407 452 OFFCURVE",
"488 369 OFFCURVE",
"488 242 CURVE SMOOTH",
"488 115 OFFCURVE",
"407 32 OFFCURVE",
"293 32 CURVE SMOOTH"
);
}
);
width = 620;
},
{
layerId = "5117E3E8-E17C-4812-BAF5-9E7064564A59";
paths = (
{
closed = 1;
nodes = (
"550 496 LINE",
"426 496 LINE",
"426 426 LINE",
"412 426 LINE",
"386 468 OFFCURVE",
"342 510 OFFCURVE",
"254 510 CURVE SMOOTH",
"130 510 OFFCURVE",
"26 400 OFFCURVE",
"26 248 CURVE SMOOTH",
"26 96 OFFCURVE",
"130 -14 OFFCURVE",
"254 -14 CURVE SMOOTH",
"342 -14 OFFCURVE",
"386 28 OFFCURVE",
"412 70 CURVE",
"424 70 LINE",
"424 -200 LINE",
"550 -200 LINE"
);
},
{
closed = 1;
nodes = (
"212 98 OFFCURVE",
"152 152 OFFCURVE",
"152 248 CURVE SMOOTH",
"152 344 OFFCURVE",
"212 398 OFFCURVE",
"288 398 CURVE SMOOTH",
"366 398 OFFCURVE",
"424 342 OFFCURVE",
"424 248 CURVE SMOOTH",
"424 154 OFFCURVE",
"366 98 OFFCURVE",
"288 98 CURVE SMOOTH"
);
}
);
width = 606;
}
);
leftKerningGroup = o;
leftMetricsKey = o;
note = q;
rightKerningGroup = u;
rightMetricsKey = idotless;
unicode = 0071;
},
{
glyphname = r;
lastChange = "2018-10-10 23:52:56 +0000";
layers = (
{
anchors = (
{
name = bottom;
position = "{106, 0}";
},
{
name = top;
position = "{211, 484}";
}
);
layerId = "A285862E-BE3D-4D67-A40D-0E28E121AD88";
paths = (
{
closed = 1;
nodes = (
"82 484 LINE",
"82 0 LINE",
"132 0 LINE",
"132 307 LINE SMOOTH",
"132 398 OFFCURVE",
"179 440 OFFCURVE",
"255 440 CURVE SMOOTH",
"336 440 LINE",
"336 486 LINE",
"266 486 LINE SMOOTH",
"199 486 OFFCURVE",
"164 467 OFFCURVE",
"144 423 CURVE",
"130 423 LINE",
"130 484 LINE"
);
}
);
width = 360;
},
{
anchors = (
{
name = bottom;
position = "{121, 0}";
},
{
name = top;
position = "{202, 496}";
}
);
layerId = "5117E3E8-E17C-4812-BAF5-9E7064564A59";
paths = (
{
closed = 1;
nodes = (
"56 496 LINE",
"56 0 LINE",
"182 0 LINE",
"182 284 LINE SMOOTH",
"182 354 OFFCURVE",
"228 388 OFFCURVE",
"292 388 CURVE SMOOTH",
"366 388 LINE",
"366 498 LINE",
"318 498 LINE SMOOTH",
"255 498 OFFCURVE",
"213 479 OFFCURVE",
"194 424 CURVE",
"180 424 LINE",
"180 496 LINE"
);
}
);
width = 374;
}
);
leftKerningGroup = n;
leftMetricsKey = idotless;
note = r;
rightKerningGroup = r;
unicode = 0072;
},
{
glyphname = s;
lastChange = "2018-11-05 15:40:40 +0000";
layers = (
{
anchors = (
{
name = bottom;
position = "{262, 0}";
},
{
name = top;
position = "{249, 484}";
}
);
layerId = "A285862E-BE3D-4D67-A40D-0E28E121AD88";
paths = (
{
closed = 1;
nodes = (
"63 284 OFFCURVE",
"125 247 OFFCURVE",
"228 229 CURVE SMOOTH",
"286 219 LINE SMOOTH",
"364 206 OFFCURVE",
"422 183 OFFCURVE",
"422 125 CURVE SMOOTH",
"422 67 OFFCURVE",
"365 30 OFFCURVE",
"283 30 CURVE SMOOTH",
"204 30 OFFCURVE",
"120 60 OFFCURVE",
"77 160 CURVE",
"32 140 LINE",
"83 28 OFFCURVE",
"180 -14 OFFCURVE",
"284 -14 CURVE SMOOTH",
"386 -14 OFFCURVE",
"472 38 OFFCURVE",
"472 128 CURVE SMOOTH",
"472 218 OFFCURVE",
"394 248 OFFCURVE",
"297 265 CURVE SMOOTH",
"239 275 LINE SMOOTH",
"166 288 OFFCURVE",
"113 309 OFFCURVE",
"113 367 CURVE SMOOTH",
"113 425 OFFCURVE",
"172 454 OFFCURVE",
"242 454 CURVE SMOOTH",
"312 454 OFFCURVE",
"386 426 OFFCURVE",
"435 352 CURVE",
"474 380 LINE",
"422 453 OFFCURVE",
"344 498 OFFCURVE",
"242 498 CURVE SMOOTH",
"140 498 OFFCURVE",
"63 449 OFFCURVE",
"63 365 CURVE SMOOTH"
);
}
);
width = 523;
},
{
anchors = (
{
name = bottom;
position = "{255, 0}";
},
{
name = top;
position = "{244, 496}";
}
);
layerId = "5117E3E8-E17C-4812-BAF5-9E7064564A59";
paths = (
{
closed = 1;
nodes = (
"43 265 OFFCURVE",
"116 222 OFFCURVE",
"232 203 CURVE SMOOTH",
"292 193 LINE SMOOTH",
"342 185 OFFCURVE",
"368 171 OFFCURVE",
"368 141 CURVE SMOOTH",
"368 111 OFFCURVE",
"336 88 OFFCURVE",
"278 88 CURVE SMOOTH",
"218 88 OFFCURVE",
"152 111 OFFCURVE",
"107 191 CURVE",
"8 130 LINE",
"58 51 OFFCURVE",
"152 -14 OFFCURVE",
"280 -14 CURVE SMOOTH",
"402 -14 OFFCURVE",
"490 51 OFFCURVE",
"490 149 CURVE SMOOTH",
"490 247 OFFCURVE",
"405 284 OFFCURVE",
"297 302 CURVE SMOOTH",
"237 312 LINE SMOOTH",
"190 320 OFFCURVE",
"165 334 OFFCURVE",
"165 361 CURVE SMOOTH",
"165 388 OFFCURVE",
"188 408 OFFCURVE",
"238 408 CURVE SMOOTH",
"288 408 OFFCURVE",
"345 388 OFFCURVE",
"402 322 CURVE",
"487 397 LINE",
"430 457 OFFCURVE",
"348 510 OFFCURVE",
"232 510 CURVE SMOOTH",
"118 510 OFFCURVE",
"43 449 OFFCURVE",
"43 357 CURVE SMOOTH"
);
}
);
width = 518;
},
{
anchors = (
{
name = bottom;
position = "{281, 0}";
},
{
name = top;
position = "{268, 484}";
}
);
associatedMasterId = "A285862E-BE3D-4D67-A40D-0E28E121AD88";
layerId = "975F05D0-480C-47FB-BB21-37C8741BEED8";
name = "1.1";
paths = (
{
closed = 1;
nodes = (
"73 274 OFFCURVE",
"147 244 OFFCURVE",
"247 229 CURVE SMOOTH",
"301 221 LINE SMOOTH",
"383 209 OFFCURVE",
"442 193 OFFCURVE",
"442 135 CURVE SMOOTH",
"442 73 OFFCURVE",
"380 32 OFFCURVE",
"284 32 CURVE SMOOTH",
"184 32 OFFCURVE",
"115 83 OFFCURVE",
"81 174 CURVE",
"35 155 LINE",
"68 71 OFFCURVE",
"147 -14 OFFCURVE",
"284 -14 CURVE SMOOTH",
"412 -14 OFFCURVE",
"492 48 OFFCURVE",
"492 136 CURVE SMOOTH",
"492 218 OFFCURVE",
"424 250 OFFCURVE",
"309 267 CURVE SMOOTH",
"255 275 LINE SMOOTH",
"182 286 OFFCURVE",
"123 302 OFFCURVE",
"123 366 CURVE SMOOTH",
"123 425 OFFCURVE",
"177 454 OFFCURVE",
"252 454 CURVE SMOOTH",
"330 454 OFFCURVE",
"402 416 OFFCURVE",
"451 339 CURVE",
"492 364 LINE",
"423 459 OFFCURVE",
"347 498 OFFCURVE",
"251 498 CURVE SMOOTH",
"152 498 OFFCURVE",
"73 449 OFFCURVE",
"73 364 CURVE SMOOTH"
);
}
);
width = 536;
},
{
anchors = (
{
name = bottom;
position = "{265, 0}";
},
{
name = top;
position = "{254, 496}";
}
);
associatedMasterId = "5117E3E8-E17C-4812-BAF5-9E7064564A59";
layerId = "39EC1C9D-2CF0-4E69-B53C-635ABF9F3430";
name = "1.1";
paths = (
{
closed = 1;
nodes = (
"40 264 OFFCURVE",
"103 219 OFFCURVE",
"242 203 CURVE SMOOTH",
"259 201 LINE SMOOTH",
"313 195 OFFCURVE",
"364 188 OFFCURVE",
"364 151 CURVE SMOOTH",
"364 112 OFFCURVE",
"317 90 OFFCURVE",
"266 90 CURVE SMOOTH",
"202 90 OFFCURVE",
"135 124 OFFCURVE",
"104 189 CURVE",
"4 126 LINE",
"50 56 OFFCURVE",
"126 -14 OFFCURVE",
"263 -14 CURVE SMOOTH",
"395 -14 OFFCURVE",
"486 57 OFFCURVE",
"486 154 CURVE SMOOTH",
"486 245 OFFCURVE",
"427 286 OFFCURVE",
"268 305 CURVE SMOOTH",
"251 307 LINE SMOOTH",
"199 313 OFFCURVE",
"162 322 OFFCURVE",
"162 358 CURVE SMOOTH",
"162 388 OFFCURVE",
"188 408 OFFCURVE",
"235 408 CURVE SMOOTH",
"301 408 OFFCURVE",
"351 368 OFFCURVE",
"389 323 CURVE",
"480 395 LINE",
"413 465 OFFCURVE",
"341 510 OFFCURVE",
"239 510 CURVE SMOOTH",
"124 510 OFFCURVE",
"40 448 OFFCURVE",
"40 356 CURVE SMOOTH"
);
}
);
width = 508;
}
);
leftKerningGroup = s;
note = s;
rightKerningGroup = s;
unicode = 0073;
},
{
glyphname = germandbls;
lastChange = "2018-08-16 11:28:21 +0000";
layers = (
{
layerId = "A285862E-BE3D-4D67-A40D-0E28E121AD88";
paths = (
{
closed = 1;
nodes = (
"126 0 LINE",
"126 452 LINE SMOOTH",
"126 609 OFFCURVE",
"229 668 OFFCURVE",
"316 668 CURVE SMOOTH",
"389 668 OFFCURVE",
"448 628 OFFCURVE",
"448 563 CURVE SMOOTH",
"448 507 OFFCURVE",
"413 473 OFFCURVE",
"374 446 CURVE SMOOTH",
"339 422 OFFCURVE",
"308 402 OFFCURVE",
"308 358 CURVE SMOOTH",
"308 325 OFFCURVE",
"326 300 OFFCURVE",
"370 278 CURVE SMOOTH",
"404 261 LINE SMOOTH",
"463 232 OFFCURVE",
"517 200 OFFCURVE",
"517 137 CURVE SMOOTH",
"517 69 OFFCURVE",
"467 32 OFFCURVE",
"394 32 CURVE SMOOTH",
"319 32 OFFCURVE",
"256 93 OFFCURVE",
"230 151 CURVE",
"185 130 LINE",
"219 61 OFFCURVE",
"295 -14 OFFCURVE",
"394 -14 CURVE SMOOTH",
"493 -14 OFFCURVE",
"567 43 OFFCURVE",
"567 137 CURVE SMOOTH",
"567 226 OFFCURVE",
"490 271 OFFCURVE",
"416 308 CURVE SMOOTH",
"390 321 LINE SMOOTH",
"368 332 OFFCURVE",
"358 343 OFFCURVE",
"358 358 CURVE SMOOTH",
"358 374 OFFCURVE",
"367 386 OFFCURVE",
"389 401 CURVE SMOOTH",
"443 438 OFFCURVE",
"498 483 OFFCURVE",
"498 563 CURVE SMOOTH",
"498 643 OFFCURVE",
"428 714 OFFCURVE",
"316 714 CURVE SMOOTH",
"175 714 OFFCURVE",
"76 614 OFFCURVE",
"76 448 CURVE SMOOTH",
"76 0 LINE"
);
}
);
width = 599;
},
{
layerId = "5117E3E8-E17C-4812-BAF5-9E7064564A59";
paths = (
{
closed = 1;
nodes = (
"176 0 LINE",
"176 434 LINE SMOOTH",
"176 564 OFFCURVE",
"249 610 OFFCURVE",
"316 610 CURVE SMOOTH",
"370 610 OFFCURVE",
"408 581 OFFCURVE",
"408 543 CURVE SMOOTH",
"408 501 OFFCURVE",
"377 473 OFFCURVE",
"345 450 CURVE SMOOTH",
"302 419 OFFCURVE",
"280 393 OFFCURVE",
"280 347 CURVE SMOOTH",
"280 303 OFFCURVE",
"306 269 OFFCURVE",
"365 248 CURVE SMOOTH",
"407 233 LINE SMOOTH",
"455 216 OFFCURVE",
"483 194 OFFCURVE",
"483 159 CURVE SMOOTH",
"483 119 OFFCURVE",
"454 88 OFFCURVE",
"406 88 CURVE SMOOTH",
"352 88 OFFCURVE",
"312 123 OFFCURVE",
"285 159 CURVE",
"203 81 LINE",
"240 40 OFFCURVE",
"300 -14 OFFCURVE",
"406 -14 CURVE SMOOTH",
"534 -14 OFFCURVE",
"607 65 OFFCURVE",
"607 164 CURVE SMOOTH",
"607 256 OFFCURVE",
"544 298 OFFCURVE",
"460 328 CURVE SMOOTH",
"435 337 LINE SMOOTH",
"417 343 OFFCURVE",
"409 350 OFFCURVE",
"409 360 CURVE SMOOTH",
"409 369 OFFCURVE",
"415 375 OFFCURVE",
"426 382 CURVE SMOOTH",
"480 417 OFFCURVE",
"532 460 OFFCURVE",
"532 547 CURVE SMOOTH",
"532 643 OFFCURVE",
"440 714 OFFCURVE",
"316 714 CURVE SMOOTH",
"159 714 OFFCURVE",
"50 610 OFFCURVE",
"50 430 CURVE SMOOTH",
"50 0 LINE"
);
}
);
width = 621;
}
);
leftMetricsKey = "=l-6";
note = germandbls;
unicode = 00DF;
},
{
glyphname = t;
lastChange = "2018-10-10 23:51:04 +0000";
layers = (
{
anchors = (
{
name = bottom;
position = "{253, 0}";
},
{
name = sidecaron;
position = "{240, 748}";
}
);
layerId = "A285862E-BE3D-4D67-A40D-0E28E121AD88";
paths = (
{
closed = 1;
nodes = (
"14 440 LINE",
"180 440 LINE",
"180 66 LINE SMOOTH",
"180 24 OFFCURVE",
"204 0 OFFCURVE",
"244 0 CURVE SMOOTH",
"376 0 LINE",
"376 44 LINE",
"258 44 LINE SMOOTH",
"240 44 OFFCURVE",
"230 54 OFFCURVE",
"230 74 CURVE SMOOTH",
"230 440 LINE",
"404 440 LINE",
"404 484 LINE",
"230 484 LINE",
"230 670 LINE",
"180 670 LINE",
"180 484 LINE",
"14 484 LINE"
);
}
);
width = 444;
},
{
anchors = (
{
name = bottom;
position = "{212, 0}";
},
{
name = sidecaron;
position = "{266, 745}";
}
);
layerId = "5117E3E8-E17C-4812-BAF5-9E7064564A59";
paths = (
{
closed = 1;
nodes = (
"4 390 LINE",
"130 390 LINE",
"130 96 LINE SMOOTH",
"130 40 OFFCURVE",
"172 0 OFFCURVE",
"228 0 CURVE SMOOTH",
"364 0 LINE",
"364 106 LINE",
"284 106 LINE SMOOTH",
"266 106 OFFCURVE",
"256 116 OFFCURVE",
"256 136 CURVE SMOOTH",
"256 390 LINE",
"392 390 LINE",
"392 496 LINE",
"256 496 LINE",
"256 650 LINE",
"130 650 LINE",
"130 496 LINE",
"4 496 LINE"
);
}
);
width = 420;
}
);
leftKerningGroup = t;
note = t;
rightKerningGroup = t;
unicode = 0074;
},
{
glyphname = tbar;
lastChange = "2018-10-10 23:53:19 +0000";
layers = (
{
layerId = "A285862E-BE3D-4D67-A40D-0E28E121AD88";
paths = (
{
closed = 1;
nodes = (
"14 286 LINE",
"14 242 LINE",
"404 242 LINE",
"404 286 LINE"
);
},
{
closed = 1;
nodes = (
"14 440 LINE",
"180 440 LINE",
"180 66 LINE SMOOTH",
"180 24 OFFCURVE",
"204 0 OFFCURVE",
"244 0 CURVE SMOOTH",
"376 0 LINE",
"376 44 LINE",
"258 44 LINE SMOOTH",
"240 44 OFFCURVE",
"230 54 OFFCURVE",
"230 74 CURVE SMOOTH",
"230 440 LINE",
"404 440 LINE",
"404 484 LINE",
"230 484 LINE",
"230 700 LINE",
"180 700 LINE",
"180 484 LINE",
"14 484 LINE"
);
}
);
width = 444;
},
{
layerId = "5117E3E8-E17C-4812-BAF5-9E7064564A59";
paths = (
{
closed = 1;
nodes = (
"4 306 LINE",
"4 200 LINE",
"392 200 LINE",
"392 306 LINE"
);
},
{
closed = 1;
nodes = (
"4 390 LINE",
"130 390 LINE",
"130 96 LINE SMOOTH",
"130 40 OFFCURVE",
"172 0 OFFCURVE",
"228 0 CURVE SMOOTH",
"364 0 LINE",
"364 106 LINE",
"284 106 LINE SMOOTH",
"266 106 OFFCURVE",
"256 116 OFFCURVE",
"256 136 CURVE SMOOTH",
"256 390 LINE",
"392 390 LINE",
"392 496 LINE",
"256 496 LINE",
"256 650 LINE",
"130 650 LINE",
"130 496 LINE",
"4 496 LINE"
);
}
);
width = 420;
}
);
leftKerningGroup = t;
leftMetricsKey = t;
note = tbar;
rightKerningGroup = t;
rightMetricsKey = t;
unicode = 0167;
},
{
glyphname = u;
lastChange = "2018-08-19 10:00:17 +0000";
layers = (
{
anchors = (
{
name = bottom;
position = "{488, 0}";
},
{
name = top;
position = "{296, 484}";
}
);
layerId = "A285862E-BE3D-4D67-A40D-0E28E121AD88";
paths = (
{
closed = 1;
nodes = (
"512 484 LINE",
"462 484 LINE",
"462 242 LINE SMOOTH",
"462 104 OFFCURVE",
"383 36 OFFCURVE",
"280 36 CURVE SMOOTH",
"187 36 OFFCURVE",
"126 82 OFFCURVE",
"126 192 CURVE SMOOTH",
"126 484 LINE",
"76 484 LINE",
"76 188 LINE SMOOTH",
"76 53 OFFCURVE",
"168 -10 OFFCURVE",
"270 -10 CURVE SMOOTH",
"372 -10 OFFCURVE",
"423 41 OFFCURVE",
"450 92 CURVE",
"464 92 LINE",
"464 0 LINE",
"512 0 LINE"
);
}
);
width = 594;
},
{
anchors = (
{
name = bottom;
position = "{476, 0}";
},
{
name = top;
position = "{295, 496}";
}
);
layerId = "5117E3E8-E17C-4812-BAF5-9E7064564A59";
paths = (
{
closed = 1;
nodes = (
"538 496 LINE",
"412 496 LINE",
"412 240 LINE SMOOTH",
"412 152 OFFCURVE",
"369 102 OFFCURVE",
"288 102 CURVE SMOOTH",
"216 102 OFFCURVE",
"176 143 OFFCURVE",
"176 212 CURVE SMOOTH",
"176 496 LINE",
"50 496 LINE",
"50 200 LINE SMOOTH",
"50 71 OFFCURVE",
"133 -8 OFFCURVE",
"243 -8 CURVE SMOOTH",
"334 -8 OFFCURVE",
"380 34 OFFCURVE",
"400 80 CURVE",
"414 80 LINE",
"414 0 LINE",
"538 0 LINE"
);
}
);
width = 594;
}
);
leftKerningGroup = u;
note = u;
rightKerningGroup = u;
rightMetricsKey = idotless;
unicode = 0075;
},
{
glyphname = v;
lastChange = "2018-08-19 10:00:23 +0000";
layers = (
{
layerId = "A285862E-BE3D-4D67-A40D-0E28E121AD88";
paths = (
{
closed = 1;
nodes = (
"228 0 LINE",
"296 0 LINE",
"492 484 LINE",
"438 484 LINE",
"268 52 LINE",
"256 52 LINE",
"86 484 LINE",
"32 484 LINE"
);
}
);
width = 524;
},
{
layerId = "5117E3E8-E17C-4812-BAF5-9E7064564A59";
paths = (
{
closed = 1;
nodes = (
"173 0 LINE",
"359 0 LINE",
"530 496 LINE",
"394 496 LINE",
"272 110 LINE",
"260 110 LINE",
"138 496 LINE",
"2 496 LINE"
);
}
);
width = 532;
}
);
leftKerningGroup = v;
note = v;
rightKerningGroup = v;
unicode = 0076;
},
{
glyphname = w;
lastChange = "2018-08-19 10:00:29 +0000";
layers = (
{
anchors = (
{
name = top;
position = "{398, 484}";
}
);
layerId = "A285862E-BE3D-4D67-A40D-0E28E121AD88";
paths = (
{
closed = 1;
nodes = (
"179 0 LINE",
"257 0 LINE",
"392 428 LINE",
"404 428 LINE",
"539 0 LINE",
"617 0 LINE",
"744 484 LINE",
"692 484 LINE",
"582 56 LINE",
"570 56 LINE",
"435 484 LINE",
"361 484 LINE",
"226 56 LINE",
"214 56 LINE",
"104 484 LINE",
"52 484 LINE"
);
}
);
width = 796;
},
{
anchors = (
{
name = top;
position = "{372, 496}";
}
);
layerId = "5117E3E8-E17C-4812-BAF5-9E7064564A59";
paths = (
{
closed = 1;
nodes = (
"108 0 LINE",
"288 0 LINE",
"366 388 LINE",
"378 388 LINE",
"456 0 LINE",
"636 0 LINE",
"734 496 LINE",
"608 496 LINE",
"549 108 LINE",
"537 108 LINE",
"459 496 LINE",
"285 496 LINE",
"207 108 LINE",
"195 108 LINE",
"136 496 LINE",
"10 496 LINE"
);
}
);
width = 744;
}
);
leftKerningGroup = w;
note = w;
rightKerningGroup = w;
unicode = 0077;
},
{
glyphname = x;
lastChange = "2018-08-19 10:00:36 +0000";
layers = (
{
layerId = "A285862E-BE3D-4D67-A40D-0E28E121AD88";
paths = (
{
closed = 1;
nodes = (
"247 248 LINE",
"46 0 LINE",
"112 0 LINE",
"283 212 LINE",
"295 212 LINE",
"466 0 LINE",
"532 0 LINE",
"331 248 LINE",
"524 484 LINE",
"459 484 LINE",
"295 282 LINE",
"283 282 LINE",
"119 484 LINE",
"54 484 LINE"
);
}
);
width = 578;
},
{
layerId = "5117E3E8-E17C-4812-BAF5-9E7064564A59";
paths = (
{
closed = 1;
nodes = (
"190 250 LINE",
"14 0 LINE",
"163 0 LINE",
"278 172 LINE",
"290 172 LINE",
"405 0 LINE",
"554 0 LINE",
"378 250 LINE",
"552 496 LINE",
"406 496 LINE",
"290 326 LINE",
"278 326 LINE",
"162 496 LINE",
"16 496 LINE"
);
}
);
width = 568;
}
);
leftKerningGroup = x;
note = x;
rightKerningGroup = x;
unicode = 0078;
},
{
glyphname = y;
lastChange = "2018-08-19 10:00:55 +0000";
layers = (
{
anchors = (
{
name = top;
position = "{274, 484}";
}
);
layerId = "A285862E-BE3D-4D67-A40D-0E28E121AD88";
paths = (
{
closed = 1;
nodes = (
"159 -200 LINE",
"213 -200 LINE",
"516 484 LINE",
"462 484 LINE",
"279 64 LINE"
);
},
{
closed = 1;
nodes = (
"259 -28 LINE",
"213 -200 LINE",
"516 484 LINE",
"462 484 LINE",
"279 64 LINE",
"269 64 LINE",
"86 484 LINE",
"32 484 LINE"
);
}
);
width = 548;
},
{
anchors = (
{
name = top;
position = "{274, 496}";
}
);
layerId = "5117E3E8-E17C-4812-BAF5-9E7064564A59";
paths = (
{
closed = 1;
nodes = (
"138 -200 LINE",
"274 -200 LINE",
"546 496 LINE",
"410 496 LINE",
"280 140 LINE"
);
},
{
closed = 1;
nodes = (
"231 -90 LINE",
"274 -200 LINE",
"546 496 LINE",
"410 496 LINE",
"280 140 LINE",
"268 140 LINE",
"138 496 LINE",
"2 496 LINE"
);
}
);
width = 548;
}
);
leftKerningGroup = v;
leftMetricsKey = v;
note = y;
rightKerningGroup = v;
rightMetricsKey = v;
unicode = 0079;
},
{
glyphname = z;
lastChange = "2018-10-10 23:53:37 +0000";
layers = (
{
anchors = (
{
name = top;
position = "{260, 484}";
}
);
layerId = "A285862E-BE3D-4D67-A40D-0E28E121AD88";
paths = (
{
closed = 1;
nodes = (
"63 440 LINE",
"412 440 LINE",
"54 40 LINE",
"54 0 LINE",
"486 0 LINE",
"486 44 LINE",
"120 44 LINE",
"478 444 LINE",
"478 484 LINE",
"63 484 LINE"
);
}
);
width = 530;
},
{
anchors = (
{
name = top;
position = "{265, 496}";
}
);
layerId = "5117E3E8-E17C-4812-BAF5-9E7064564A59";
paths = (
{
closed = 1;
nodes = (
"52 390 LINE",
"316 390 LINE",
"42 96 LINE",
"42 0 LINE",
"492 0 LINE",
"492 106 LINE",
"210 106 LINE",
"484 400 LINE",
"484 496 LINE",
"52 496 LINE"
);
}
);
width = 528;
}
);
leftKerningGroup = z;
note = z;
rightKerningGroup = z;
unicode = 007A;
},
{
glyphname = a.ss01;
lastChange = "2018-08-19 10:01:24 +0000";
layers = (
{
anchors = (
{
name = bottom;
position = "{514, 0}";
},
{
name = top;
position = "{312, 484}";
}
);
layerId = "A285862E-BE3D-4D67-A40D-0E28E121AD88";
paths = (
{
closed = 1;
nodes = (
"538 484 LINE",
"490 484 LINE",
"490 391 LINE",
"476 391 LINE",
"448 445 OFFCURVE",
"393 498 OFFCURVE",
"284 498 CURVE SMOOTH",
"151 498 OFFCURVE",
"50 397 OFFCURVE",
"50 242 CURVE SMOOTH",
"50 87 OFFCURVE",
"151 -14 OFFCURVE",
"284 -14 CURVE SMOOTH",
"393 -14 OFFCURVE",
"448 39 OFFCURVE",
"476 93 CURVE",
"490 93 LINE",
"490 0 LINE",
"538 0 LINE"
);
},
{
closed = 1;
nodes = (
"179 32 OFFCURVE",
"102 113 OFFCURVE",
"102 242 CURVE SMOOTH",
"102 371 OFFCURVE",
"179 452 OFFCURVE",
"293 452 CURVE SMOOTH",
"407 452 OFFCURVE",
"488 369 OFFCURVE",
"488 242 CURVE SMOOTH",
"488 115 OFFCURVE",
"407 32 OFFCURVE",
"293 32 CURVE SMOOTH"
);
}
);
width = 620;
},
{
anchors = (
{
name = bottom;
position = "{488, 0}";
},
{
name = top;
position = "{302, 496}";
}
);
layerId = "5117E3E8-E17C-4812-BAF5-9E7064564A59";
paths = (
{
closed = 1;
nodes = (
"550 496 LINE",
"426 496 LINE",
"426 426 LINE",
"412 426 LINE",
"386 468 OFFCURVE",
"342 510 OFFCURVE",
"254 510 CURVE SMOOTH",
"130 510 OFFCURVE",
"26 400 OFFCURVE",
"26 248 CURVE SMOOTH",
"26 96 OFFCURVE",
"130 -14 OFFCURVE",
"254 -14 CURVE SMOOTH",
"342 -14 OFFCURVE",
"386 28 OFFCURVE",
"412 70 CURVE",
"426 70 LINE",
"426 0 LINE",
"550 0 LINE"
);
},
{
closed = 1;
nodes = (
"212 98 OFFCURVE",
"152 152 OFFCURVE",
"152 248 CURVE SMOOTH",
"152 344 OFFCURVE",
"212 398 OFFCURVE",
"288 398 CURVE SMOOTH",
"366 398 OFFCURVE",
"424 342 OFFCURVE",
"424 248 CURVE SMOOTH",
"424 154 OFFCURVE",
"366 98 OFFCURVE",
"288 98 CURVE SMOOTH"
);
}
);
width = 606;
}
);
leftKerningGroup = o;
leftMetricsKey = o;
note = a;
rightKerningGroup = u;
rightMetricsKey = u;
},
{
glyphname = g.ss02;
lastChange = "2018-10-10 23:53:44 +0000";
layers = (
{
anchors = (
{
name = top;
position = "{312, 484}";
}
);
layerId = "A285862E-BE3D-4D67-A40D-0E28E121AD88";
paths = (
{
closed = 1;
nodes = (
"538 484 LINE",
"490 484 LINE",
"490 391 LINE",
"476 391 LINE",
"448 445 OFFCURVE",
"393 498 OFFCURVE",
"284 498 CURVE SMOOTH",
"151 498 OFFCURVE",
"50 399 OFFCURVE",
"50 246 CURVE SMOOTH",
"50 93 OFFCURVE",
"151 -6 OFFCURVE",
"284 -6 CURVE SMOOTH",
"393 -6 OFFCURVE",
"448 47 OFFCURVE",
"476 101 CURVE",
"488 101 LINE",
"488 -3 LINE",
"538 -3 LINE"
);
},
{
closed = 1;
nodes = (
"179 40 OFFCURVE",
"102 119 OFFCURVE",
"102 246 CURVE SMOOTH",
"102 373 OFFCURVE",
"179 452 OFFCURVE",
"293 452 CURVE SMOOTH",
"407 452 OFFCURVE",
"488 371 OFFCURVE",
"488 246 CURVE SMOOTH",
"488 121 OFFCURVE",
"407 40 OFFCURVE",
"293 40 CURVE SMOOTH"
);
},
{
closed = 1;
nodes = (
"90 -200 LINE",
"474 -200 LINE SMOOTH",
"514 -200 OFFCURVE",
"538 -176 OFFCURVE",
"538 -134 CURVE SMOOTH",
"538 -3 LINE",
"488 -3 LINE",
"488 -126 LINE SMOOTH",
"488 -146 OFFCURVE",
"478 -156 OFFCURVE",
"460 -156 CURVE SMOOTH",
"90 -156 LINE"
);
}
);
width = 620;
},
{
anchors = (
{
name = top;
position = "{306, 496}";
}
);
layerId = "5117E3E8-E17C-4812-BAF5-9E7064564A59";
paths = (
{
closed = 1;
nodes = (
"550 496 LINE",
"426 496 LINE",
"426 426 LINE",
"412 426 LINE",
"386 468 OFFCURVE",
"342 510 OFFCURVE",
"254 510 CURVE SMOOTH",
"130 510 OFFCURVE",
"26 404 OFFCURVE",
"26 256 CURVE SMOOTH",
"26 108 OFFCURVE",
"130 2 OFFCURVE",
"254 2 CURVE SMOOTH",
"342 2 OFFCURVE",
"386 44 OFFCURVE",
"412 86 CURVE",
"424 86 LINE",
"424 0 LINE",
"550 0 LINE"
);
},
{
closed = 1;
nodes = (
"212 114 OFFCURVE",
"152 164 OFFCURVE",
"152 256 CURVE SMOOTH",
"152 348 OFFCURVE",
"212 398 OFFCURVE",
"288 398 CURVE SMOOTH",
"366 398 OFFCURVE",
"424 346 OFFCURVE",
"424 256 CURVE SMOOTH",
"424 166 OFFCURVE",
"366 114 OFFCURVE",
"288 114 CURVE SMOOTH"
);
},
{
closed = 1;
nodes = (
"72 -200 LINE",
"452 -200 LINE SMOOTH",
"508 -200 OFFCURVE",
"550 -160 OFFCURVE",
"550 -104 CURVE SMOOTH",
"550 0 LINE",
"424 0 LINE",
"424 -64 LINE SMOOTH",
"424 -84 OFFCURVE",
"414 -94 OFFCURVE",
"396 -94 CURVE SMOOTH",
"72 -94 LINE"
);
}
);
width = 606;
}
);
leftKerningGroup = o;
leftMetricsKey = o;
note = g;
rightKerningGroup = u;
rightMetricsKey = u;
},
{
glyphname = v.ss03;
lastChange = "2018-08-19 10:01:42 +0000";
layers = (
{
layerId = "A285862E-BE3D-4D67-A40D-0E28E121AD88";
paths = (
{
closed = 1;
nodes = (
"216 0 LINE",
"308 0 LINE",
"490 484 LINE",
"436 484 LINE",
"268 30 LINE",
"256 30 LINE",
"88 484 LINE",
"34 484 LINE"
);
}
);
width = 524;
},
{
layerId = "5117E3E8-E17C-4812-BAF5-9E7064564A59";
paths = (
{
closed = 1;
nodes = (
"154 0 LINE",
"382 0 LINE",
"532 496 LINE",
"396 496 LINE",
"274 40 LINE",
"262 40 LINE",
"140 496 LINE",
"4 496 LINE"
);
}
);
width = 536;
}
);
leftKerningGroup = v;
note = v;
rightKerningGroup = v;
},
{
glyphname = w.ss03;
lastChange = "2018-08-19 10:01:48 +0000";
layers = (
{
anchors = (
{
name = top;
position = "{398, 484}";
}
);
layerId = "A285862E-BE3D-4D67-A40D-0E28E121AD88";
paths = (
{
closed = 1;
nodes = (
"165 0 LINE",
"259 0 LINE",
"392 454 LINE",
"404 454 LINE",
"537 0 LINE",
"631 0 LINE",
"744 484 LINE",
"692 484 LINE",
"588 30 LINE",
"576 30 LINE",
"443 484 LINE",
"353 484 LINE",
"220 30 LINE",
"208 30 LINE",
"104 484 LINE",
"52 484 LINE"
);
}
);
width = 796;
},
{
anchors = (
{
name = top;
position = "{376, 496}";
}
);
layerId = "5117E3E8-E17C-4812-BAF5-9E7064564A59";
paths = (
{
closed = 1;
nodes = (
"83 0 LINE",
"307 0 LINE",
"370 456 LINE",
"382 456 LINE",
"445 0 LINE",
"669 0 LINE",
"734 496 LINE",
"608 496 LINE",
"561 40 LINE",
"549 40 LINE",
"486 496 LINE",
"266 496 LINE",
"203 40 LINE",
"191 40 LINE",
"144 496 LINE",
"18 496 LINE"
);
}
);
width = 752;
}
);
leftKerningGroup = w;
note = w;
rightKerningGroup = w;
},
{
glyphname = y.ss03;
lastChange = "2018-08-19 10:02:01 +0000";
layers = (
{
anchors = (
{
name = top;
position = "{274, 484}";
}
);
layerId = "A285862E-BE3D-4D67-A40D-0E28E121AD88";
paths = (
{
closed = 1;
nodes = (
"229 0 LINE",
"289 0 LINE",
"239 -200 LINE",
"514 484 LINE",
"460 484 LINE",
"279 30 LINE",
"269 30 LINE",
"88 484 LINE",
"34 484 LINE"
);
},
{
closed = 1;
nodes = (
"239 -200 LINE",
"514 484 LINE",
"460 484 LINE",
"279 30 LINE",
"268 0 LINE",
"185 -200 LINE"
);
}
);
width = 548;
},
{
anchors = (
{
name = top;
position = "{274, 496}";
}
);
layerId = "5117E3E8-E17C-4812-BAF5-9E7064564A59";
paths = (
{
closed = 1;
nodes = (
"156 0 LINE",
"306 0 LINE",
"331 -200 LINE",
"544 496 LINE",
"408 496 LINE",
"280 40 LINE",
"268 40 LINE",
"140 496 LINE",
"4 496 LINE"
);
},
{
closed = 1;
nodes = (
"331 -200 LINE",
"544 496 LINE",
"408 496 LINE",
"280 40 LINE",
"264 0 LINE",
"195 -200 LINE"
);
}
);
width = 548;
}
);
leftKerningGroup = v;
leftMetricsKey = v.ss03;
note = y;
rightKerningGroup = v;
rightMetricsKey = v.ss03;
},
{
glyphname = ae.ss06;
lastChange = "2018-10-16 16:38:43 +0000";
layers = (
{
anchors = (
{
name = top;
position = "{270, 484}";
}
);
layerId = "A285862E-BE3D-4D67-A40D-0E28E121AD88";
paths = (
{
closed = 1;
nodes = (
"245 275 LINE",
"236 275 LINE SMOOTH",
"125 275 OFFCURVE",
"42 226 OFFCURVE",
"42 136 CURVE SMOOTH",
"42 40 OFFCURVE",
"131 -14 OFFCURVE",
"268 -14 CURVE",
"245 33 LINE",
"234 33 LINE SMOOTH",
"160 33 OFFCURVE",
"92 67 OFFCURVE",
"92 132 CURVE SMOOTH",
"92 202 OFFCURVE",
"147 231 OFFCURVE",
"234 231 CURVE SMOOTH",
"245 231 LINE"
);
},
{
closed = 1;
nodes = (
"268 498 LINE",
"147 498 OFFCURVE",
"72 423 OFFCURVE",
"43 343 CURVE",
"93 326 LINE",
"115 409 OFFCURVE",
"181 447 OFFCURVE",
"245 450 CURVE"
);
},
{
closed = 1;
nodes = (
"268 498 LINE",
"245 484 LINE",
"245 0 LINE",
"268 -14 LINE",
"295 0 LINE",
"295 484 LINE"
);
},
{
closed = 1;
nodes = (
"270 452 LINE",
"374 452 OFFCURVE",
"452 390 OFFCURVE",
"456 275 CURVE",
"295 275 LINE",
"295 231 LINE",
"508 231 LINE",
"508 263 LINE SMOOTH",
"508 410 OFFCURVE",
"403 498 OFFCURVE",
"268 498 CURVE"
);
},
{
closed = 1;
nodes = (
"268 -14 LINE",
"395 -14 OFFCURVE",
"460 54 OFFCURVE",
"493 122 CURVE",
"445 141 LINE",
"417 78 OFFCURVE",
"368 32 OFFCURVE",
"270 32 CURVE"
);
}
);
width = 554;
},
{
anchors = (
{
name = top;
position = "{289, 496}";
}
);
layerId = "5117E3E8-E17C-4812-BAF5-9E7064564A59";
paths = (
{
closed = 1;
nodes = (
"230 299 LINE",
"208 299 LINE SMOOTH",
"114 299 OFFCURVE",
"26 253 OFFCURVE",
"26 155 CURVE SMOOTH",
"26 49 OFFCURVE",
"134 -14 OFFCURVE",
"285 -14 CURVE",
"230 98 LINE",
"210 98 LINE SMOOTH",
"177 98 OFFCURVE",
"148 121 OFFCURVE",
"148 155 CURVE SMOOTH",
"148 189 OFFCURVE",
"177 211 OFFCURVE",
"210 211 CURVE SMOOTH",
"230 211 LINE"
);
},
{
closed = 1;
nodes = (
"287 510 LINE",
"167 510 OFFCURVE",
"93 460 OFFCURVE",
"38 405 CURVE",
"119 329 LINE",
"142 362 OFFCURVE",
"190 393 OFFCURVE",
"230 396 CURVE"
);
},
{
closed = 1;
nodes = (
"287 510 LINE",
"230 496 LINE",
"230 0 LINE",
"285 -14 LINE",
"348 0 LINE",
"348 496 LINE"
);
},
{
closed = 1;
nodes = (
"289 400 LINE",
"383 400 OFFCURVE",
"429 360 OFFCURVE",
"438 299 CURVE",
"348 299 LINE",
"348 211 LINE",
"568 211 LINE",
"568 250 LINE SMOOTH",
"568 405 OFFCURVE",
"461 510 OFFCURVE",
"287 510 CURVE"
);
},
{
closed = 1;
nodes = (
"285 -14 LINE",
"432 -14 OFFCURVE",
"501 50 OFFCURVE",
"539 93 CURVE",
"448 170 LINE",
"420 127 OFFCURVE",
"384 96 OFFCURVE",
"289 96 CURVE"
);
}
);
width = 590;
}
);
leftKerningGroup = a;
leftMetricsKey = a;
note = ae;
rightKerningGroup = o;
rightMetricsKey = e;
},
{
glyphname = oe.ss06;
lastChange = "2018-10-16 16:38:53 +0000";
layers = (
{
layerId = "A285862E-BE3D-4D67-A40D-0E28E121AD88";
paths = (
{
closed = 1;
nodes = (
"273 484 LINE",
"273 0 LINE",
"323 0 LINE",
"323 484 LINE"
);
},
{
closed = 1;
nodes = (
"298 498 LINE",
"148 498 OFFCURVE",
"50 391 OFFCURVE",
"50 242 CURVE SMOOTH",
"50 93 OFFCURVE",
"148 -14 OFFCURVE",
"298 -14 CURVE",
"298 32 LINE",
"177 32 OFFCURVE",
"100 115 OFFCURVE",
"100 242 CURVE SMOOTH",
"100 361 OFFCURVE",
"177 452 OFFCURVE",
"298 452 CURVE"
);
},
{
closed = 1;
nodes = (
"298 452 LINE",
"402 452 OFFCURVE",
"480 391 OFFCURVE",
"484 275 CURVE",
"323 275 LINE",
"323 231 LINE",
"536 231 LINE",
"536 263 LINE SMOOTH",
"536 411 OFFCURVE",
"433 498 OFFCURVE",
"298 498 CURVE"
);
},
{
closed = 1;
nodes = (
"298 -14 LINE",
"427 -14 OFFCURVE",
"488 57 OFFCURVE",
"521 125 CURVE",
"473 144 LINE",
"445 81 OFFCURVE",
"396 32 OFFCURVE",
"298 32 CURVE"
);
}
);
width = 582;
},
{
layerId = "5117E3E8-E17C-4812-BAF5-9E7064564A59";
paths = (
{
closed = 1;
nodes = (
"257 496 LINE",
"257 0 LINE",
"375 0 LINE",
"375 496 LINE"
);
},
{
closed = 1;
nodes = (
"316 510 LINE",
"142 510 OFFCURVE",
"26 404 OFFCURVE",
"26 248 CURVE SMOOTH",
"26 92 OFFCURVE",
"142 -14 OFFCURVE",
"320 -14 CURVE",
"316 96 LINE",
"208 96 OFFCURVE",
"152 156 OFFCURVE",
"152 248 CURVE SMOOTH",
"152 340 OFFCURVE",
"208 400 OFFCURVE",
"316 400 CURVE"
);
},
{
closed = 1;
nodes = (
"316 400 LINE",
"410 400 OFFCURVE",
"456 360 OFFCURVE",
"465 299 CURVE",
"375 299 LINE",
"375 211 LINE",
"595 211 LINE",
"595 250 LINE SMOOTH",
"595 405 OFFCURVE",
"490 510 OFFCURVE",
"316 510 CURVE"
);
},
{
closed = 1;
nodes = (
"320 -14 LINE",
"463 -14 OFFCURVE",
"528 50 OFFCURVE",
"566 93 CURVE",
"475 170 LINE",
"447 127 OFFCURVE",
"411 96 OFFCURVE",
"316 96 CURVE"
);
}
);
width = 617;
}
);
leftKerningGroup = o;
leftMetricsKey = o;
note = oe;
rightKerningGroup = o;
rightMetricsKey = e;
},
{
glyphname = f_f.liga;
lastChange = "2018-10-10 23:54:54 +0000";
layers = (
{
layerId = "A285862E-BE3D-4D67-A40D-0E28E121AD88";
paths = (
{
closed = 1;
nodes = (
"24 440 LINE",
"190 440 LINE",
"190 0 LINE",
"240 0 LINE",
"240 440 LINE",
"408 440 LINE",
"408 484 LINE",
"240 484 LINE",
"240 626 LINE SMOOTH",
"240 646 OFFCURVE",
"250 656 OFFCURVE",
"268 656 CURVE SMOOTH",
"382 656 LINE",
"382 700 LINE",
"254 700 LINE SMOOTH",
"214 700 OFFCURVE",
"190 676 OFFCURVE",
"190 634 CURVE SMOOTH",
"190 484 LINE",
"24 484 LINE"
);
},
{
closed = 1;
nodes = (
"314 440 LINE",
"480 440 LINE",
"480 0 LINE",
"530 0 LINE",
"530 440 LINE",
"698 440 LINE",
"698 484 LINE",
"530 484 LINE",
"530 626 LINE SMOOTH",
"530 646 OFFCURVE",
"540 656 OFFCURVE",
"558 656 CURVE SMOOTH",
"672 656 LINE",
"672 700 LINE",
"544 700 LINE SMOOTH",
"504 700 OFFCURVE",
"480 676 OFFCURVE",
"480 634 CURVE SMOOTH",
"480 484 LINE",
"314 484 LINE"
);
}
);
width = 730;
},
{
layerId = "5117E3E8-E17C-4812-BAF5-9E7064564A59";
paths = (
{
closed = 1;
nodes = (
"16 390 LINE",
"142 390 LINE",
"142 0 LINE",
"268 0 LINE",
"268 390 LINE",
"398 390 LINE",
"398 496 LINE",
"268 496 LINE",
"268 566 LINE SMOOTH",
"268 586 OFFCURVE",
"278 596 OFFCURVE",
"296 596 CURVE SMOOTH",
"372 596 LINE",
"372 700 LINE",
"242 700 LINE SMOOTH",
"184 700 OFFCURVE",
"142 656 OFFCURVE",
"142 598 CURVE SMOOTH",
"142 496 LINE",
"16 496 LINE"
);
},
{
closed = 1;
nodes = (
"322 390 LINE",
"448 390 LINE",
"448 0 LINE",
"574 0 LINE",
"574 390 LINE",
"704 390 LINE",
"704 496 LINE",
"574 496 LINE",
"574 566 LINE SMOOTH",
"574 586 OFFCURVE",
"584 596 OFFCURVE",
"602 596 CURVE SMOOTH",
"678 596 LINE",
"678 700 LINE",
"548 700 LINE SMOOTH",
"490 700 OFFCURVE",
"448 656 OFFCURVE",
"448 598 CURVE SMOOTH",
"448 496 LINE",
"322 496 LINE"
);
}
);
width = 722;
}
);
leftKerningGroup = t;
leftMetricsKey = f;
note = fi;
rightKerningGroup = f;
rightMetricsKey = f;
},
{
glyphname = f_f_i.liga;
lastChange = "2018-10-10 23:55:00 +0000";
layers = (
{
components = (
{
name = i;
transform = "{1, 0, 0, 1, 688, 0}";
}
);
layerId = "A285862E-BE3D-4D67-A40D-0E28E121AD88";
paths = (
{
closed = 1;
nodes = (
"24 440 LINE",
"190 440 LINE",
"190 0 LINE",
"240 0 LINE",
"240 440 LINE",
"408 440 LINE",
"408 484 LINE",
"240 484 LINE",
"240 626 LINE SMOOTH",
"240 646 OFFCURVE",
"250 656 OFFCURVE",
"268 656 CURVE SMOOTH",
"382 656 LINE",
"382 700 LINE",
"254 700 LINE SMOOTH",
"214 700 OFFCURVE",
"190 676 OFFCURVE",
"190 634 CURVE SMOOTH",
"190 484 LINE",
"24 484 LINE"
);
},
{
closed = 1;
nodes = (
"314 440 LINE",
"480 440 LINE",
"480 0 LINE",
"530 0 LINE",
"530 440 LINE",
"820 440 LINE",
"820 484 LINE",
"530 484 LINE",
"530 626 LINE SMOOTH",
"530 646 OFFCURVE",
"540 656 OFFCURVE",
"558 656 CURVE SMOOTH",
"666 656 LINE",
"666 700 LINE",
"544 700 LINE SMOOTH",
"504 700 OFFCURVE",
"480 676 OFFCURVE",
"480 634 CURVE SMOOTH",
"480 484 LINE",
"314 484 LINE"
);
}
);
width = 902;
},
{
components = (
{
name = i;
transform = "{1, 0, 0, 1, 698, 0}";
}
);
layerId = "5117E3E8-E17C-4812-BAF5-9E7064564A59";
paths = (
{
closed = 1;
nodes = (
"16 390 LINE",
"142 390 LINE",
"142 0 LINE",
"268 0 LINE",
"268 390 LINE",
"398 390 LINE",
"398 496 LINE",
"268 496 LINE",
"268 566 LINE SMOOTH",
"268 586 OFFCURVE",
"278 596 OFFCURVE",
"296 596 CURVE SMOOTH",
"372 596 LINE",
"372 700 LINE",
"242 700 LINE SMOOTH",
"184 700 OFFCURVE",
"142 656 OFFCURVE",
"142 598 CURVE SMOOTH",
"142 496 LINE",
"16 496 LINE"
);
},
{
closed = 1;
nodes = (
"322 390 LINE",
"448 390 LINE",
"448 0 LINE",
"574 0 LINE",
"574 390 LINE",
"880 390 LINE",
"880 496 LINE",
"574 496 LINE",
"574 566 LINE SMOOTH",
"574 586 OFFCURVE",
"584 596 OFFCURVE",
"602 596 CURVE SMOOTH",
"664 596 LINE",
"664 700 LINE",
"548 700 LINE SMOOTH",
"490 700 OFFCURVE",
"448 656 OFFCURVE",
"448 598 CURVE SMOOTH",
"448 496 LINE",
"322 496 LINE"
);
}
);
width = 936;
}
);
leftKerningGroup = t;
leftMetricsKey = f;
note = fi;
rightKerningGroup = i;
rightMetricsKey = i;
},
{
glyphname = f_f_j.liga;
lastChange = "2018-10-10 23:55:07 +0000";
layers = (
{
components = (
{
name = j;
transform = "{1, 0, 0, 1, 680, 0}";
}
);
layerId = "A285862E-BE3D-4D67-A40D-0E28E121AD88";
paths = (
{
closed = 1;
nodes = (
"24 440 LINE",
"190 440 LINE",
"190 0 LINE",
"240 0 LINE",
"240 440 LINE",
"408 440 LINE",
"408 484 LINE",
"240 484 LINE",
"240 626 LINE SMOOTH",
"240 646 OFFCURVE",
"250 656 OFFCURVE",
"268 656 CURVE SMOOTH",
"382 656 LINE",
"382 700 LINE",
"254 700 LINE SMOOTH",
"214 700 OFFCURVE",
"190 676 OFFCURVE",
"190 634 CURVE SMOOTH",
"190 484 LINE",
"24 484 LINE"
);
},
{
closed = 1;
nodes = (
"314 440 LINE",
"480 440 LINE",
"480 0 LINE",
"530 0 LINE",
"530 440 LINE",
"820 440 LINE",
"820 484 LINE",
"530 484 LINE",
"530 626 LINE SMOOTH",
"530 646 OFFCURVE",
"540 656 OFFCURVE",
"558 656 CURVE SMOOTH",
"666 656 LINE",
"666 700 LINE",
"544 700 LINE SMOOTH",
"504 700 OFFCURVE",
"480 676 OFFCURVE",
"480 634 CURVE SMOOTH",
"480 484 LINE",
"314 484 LINE"
);
}
);
width = 902;
},
{
components = (
{
name = j;
transform = "{1, 0, 0, 1, 694, 0}";
}
);
layerId = "5117E3E8-E17C-4812-BAF5-9E7064564A59";
paths = (
{
closed = 1;
nodes = (
"16 390 LINE",
"142 390 LINE",
"142 0 LINE",
"268 0 LINE",
"268 390 LINE",
"398 390 LINE",
"398 496 LINE",
"268 496 LINE",
"268 566 LINE SMOOTH",
"268 586 OFFCURVE",
"278 596 OFFCURVE",
"296 596 CURVE SMOOTH",
"372 596 LINE",
"372 700 LINE",
"242 700 LINE SMOOTH",
"184 700 OFFCURVE",
"142 656 OFFCURVE",
"142 598 CURVE SMOOTH",
"142 496 LINE",
"16 496 LINE"
);
},
{
closed = 1;
nodes = (
"322 390 LINE",
"448 390 LINE",
"448 0 LINE",
"574 0 LINE",
"574 390 LINE",
"880 390 LINE",
"880 496 LINE",
"574 496 LINE",
"574 566 LINE SMOOTH",
"574 586 OFFCURVE",
"584 596 OFFCURVE",
"602 596 CURVE SMOOTH",
"664 596 LINE",
"664 700 LINE",
"548 700 LINE SMOOTH",
"490 700 OFFCURVE",
"448 656 OFFCURVE",
"448 598 CURVE SMOOTH",
"448 496 LINE",
"322 496 LINE"
);
}
);
width = 936;
}
);
leftKerningGroup = t;
leftMetricsKey = f;
note = fi;
rightKerningGroup = i;
rightMetricsKey = i;
},
{
glyphname = f_i.liga;
lastChange = "2018-10-10 23:55:21 +0000";
layers = (
{
components = (
{
name = i;
transform = "{1, 0, 0, 1, 398, 0}";
}
);
layerId = "A285862E-BE3D-4D67-A40D-0E28E121AD88";
paths = (
{
closed = 1;
nodes = (
"24 440 LINE",
"190 440 LINE",
"190 0 LINE",
"240 0 LINE",
"240 440 LINE",
"530 440 LINE",
"530 484 LINE",
"240 484 LINE",
"240 626 LINE SMOOTH",
"240 646 OFFCURVE",
"250 656 OFFCURVE",
"268 656 CURVE SMOOTH",
"376 656 LINE",
"376 700 LINE",
"254 700 LINE SMOOTH",
"214 700 OFFCURVE",
"190 676 OFFCURVE",
"190 634 CURVE SMOOTH",
"190 484 LINE",
"24 484 LINE"
);
}
);
width = 612;
},
{
components = (
{
name = i;
transform = "{1, 0, 0, 1, 392, 0}";
}
);
layerId = "5117E3E8-E17C-4812-BAF5-9E7064564A59";
paths = (
{
closed = 1;
nodes = (
"16 390 LINE",
"142 390 LINE",
"142 0 LINE",
"268 0 LINE",
"268 390 LINE",
"574 390 LINE",
"574 496 LINE",
"268 496 LINE",
"268 566 LINE SMOOTH",
"268 586 OFFCURVE",
"278 596 OFFCURVE",
"296 596 CURVE SMOOTH",
"358 596 LINE",
"358 700 LINE",
"242 700 LINE SMOOTH",
"184 700 OFFCURVE",
"142 656 OFFCURVE",
"142 598 CURVE SMOOTH",
"142 496 LINE",
"16 496 LINE"
);
}
);
width = 630;
}
);
leftKerningGroup = t;
leftMetricsKey = f;
note = fi;
rightKerningGroup = i;
rightMetricsKey = i;
},
{
glyphname = f_j.liga;
lastChange = "2018-10-10 23:55:26 +0000";
layers = (
{
components = (
{
name = j;
transform = "{1, 0, 0, 1, 390, 0}";
}
);
layerId = "A285862E-BE3D-4D67-A40D-0E28E121AD88";
paths = (
{
closed = 1;
nodes = (
"24 440 LINE",
"190 440 LINE",
"190 0 LINE",
"240 0 LINE",
"240 440 LINE",
"530 440 LINE",
"530 484 LINE",
"240 484 LINE",
"240 626 LINE SMOOTH",
"240 646 OFFCURVE",
"250 656 OFFCURVE",
"268 656 CURVE SMOOTH",
"376 656 LINE",
"376 700 LINE",
"254 700 LINE SMOOTH",
"214 700 OFFCURVE",
"190 676 OFFCURVE",
"190 634 CURVE SMOOTH",
"190 484 LINE",
"24 484 LINE"
);
}
);
width = 612;
},
{
components = (
{
name = j;
transform = "{1, 0, 0, 1, 388, 0}";
}
);
layerId = "5117E3E8-E17C-4812-BAF5-9E7064564A59";
paths = (
{
closed = 1;
nodes = (
"16 390 LINE",
"142 390 LINE",
"142 0 LINE",
"268 0 LINE",
"268 390 LINE",
"574 390 LINE",
"574 496 LINE",
"268 496 LINE",
"268 566 LINE SMOOTH",
"268 586 OFFCURVE",
"278 596 OFFCURVE",
"296 596 CURVE SMOOTH",
"358 596 LINE",
"358 700 LINE",
"242 700 LINE SMOOTH",
"184 700 OFFCURVE",
"142 656 OFFCURVE",
"142 598 CURVE SMOOTH",
"142 496 LINE",
"16 496 LINE"
);
}
);
width = 630;
}
);
leftKerningGroup = t;
leftMetricsKey = f;
note = fi;
rightKerningGroup = i;
rightMetricsKey = i;
},
{
glyphname = f_l.liga;
lastChange = "2018-08-19 10:02:21 +0000";
layers = (
{
anchors = (
{
name = sidecaron;
position = "{525, 700}";
}
);
layerId = "A285862E-BE3D-4D67-A40D-0E28E121AD88";
paths = (
{
closed = 1;
nodes = (
"480 0 LINE",
"530 0 LINE",
"530 700 LINE",
"480 700 LINE"
);
},
{
closed = 1;
nodes = (
"24 440 LINE",
"190 440 LINE",
"190 0 LINE",
"240 0 LINE",
"240 440 LINE",
"394 440 LINE",
"394 484 LINE",
"240 484 LINE",
"240 626 LINE SMOOTH",
"240 646 OFFCURVE",
"250 656 OFFCURVE",
"268 656 CURVE SMOOTH",
"372 656 LINE",
"372 700 LINE",
"254 700 LINE SMOOTH",
"214 700 OFFCURVE",
"190 676 OFFCURVE",
"190 634 CURVE SMOOTH",
"190 484 LINE",
"24 484 LINE"
);
}
);
width = 612;
},
{
anchors = (
{
name = sidecaron;
position = "{569, 700}";
}
);
layerId = "5117E3E8-E17C-4812-BAF5-9E7064564A59";
paths = (
{
closed = 1;
nodes = (
"448 0 LINE",
"574 0 LINE",
"574 700 LINE",
"448 700 LINE"
);
},
{
closed = 1;
nodes = (
"16 388 LINE",
"142 388 LINE",
"142 0 LINE",
"268 0 LINE",
"268 388 LINE",
"384 388 LINE",
"384 496 LINE",
"268 496 LINE",
"268 562 LINE SMOOTH",
"268 582 OFFCURVE",
"278 592 OFFCURVE",
"296 592 CURVE SMOOTH",
"362 592 LINE",
"362 700 LINE",
"242 700 LINE SMOOTH",
"184 700 OFFCURVE",
"142 656 OFFCURVE",
"142 598 CURVE SMOOTH",
"142 496 LINE",
"16 496 LINE"
);
}
);
width = 630;
}
);
leftKerningGroup = t;
leftMetricsKey = f;
note = fl;
rightKerningGroup = l;
rightMetricsKey = l;
},
{
glyphname = f_lcaron.liga;
lastChange = "2018-08-19 10:02:23 +0000";
layers = (
{
components = (
{
alignment = -1;
name = l;
transform = "{1, 0, 0, 1, 398, 0}";
},
{
name = sidecaron;
transform = "{1, 0, 0, 1, 469, 0}";
}
);
layerId = "A285862E-BE3D-4D67-A40D-0E28E121AD88";
paths = (
{
closed = 1;
nodes = (
"24 440 LINE",
"190 440 LINE",
"190 0 LINE",
"240 0 LINE",
"240 440 LINE",
"394 440 LINE",
"394 484 LINE",
"240 484 LINE",
"240 626 LINE SMOOTH",
"240 646 OFFCURVE",
"250 656 OFFCURVE",
"268 656 CURVE SMOOTH",
"372 656 LINE",
"372 700 LINE",
"254 700 LINE SMOOTH",
"214 700 OFFCURVE",
"190 676 OFFCURVE",
"190 634 CURVE SMOOTH",
"190 484 LINE",
"24 484 LINE"
);
}
);
width = 644;
},
{
components = (
{
alignment = -1;
name = l;
transform = "{1, 0, 0, 1, 392, 0}";
},
{
name = sidecaron;
transform = "{1, 0, 0, 1, 523, 0}";
}
);
layerId = "5117E3E8-E17C-4812-BAF5-9E7064564A59";
paths = (
{
closed = 1;
nodes = (
"16 388 LINE",
"142 388 LINE",
"142 0 LINE",
"268 0 LINE",
"268 388 LINE",
"384 388 LINE",
"384 496 LINE",
"268 496 LINE",
"268 562 LINE SMOOTH",
"268 582 OFFCURVE",
"278 592 OFFCURVE",
"296 592 CURVE SMOOTH",
"362 592 LINE",
"362 700 LINE",
"242 700 LINE SMOOTH",
"184 700 OFFCURVE",
"142 656 OFFCURVE",
"142 598 CURVE SMOOTH",
"142 496 LINE",
"16 496 LINE"
);
}
);
width = 732;
}
);
leftKerningGroup = t;
leftMetricsKey = f;
note = fl;
rightKerningGroup = lcaron;
rightMetricsKey = lcaron;
},
{
glyphname = pi;
lastChange = "2017-07-18 09:12:28 +0000";
layers = (
{
layerId = "A285862E-BE3D-4D67-A40D-0E28E121AD88";
paths = (
{
closed = 1;
nodes = (
"201 452 LINE",
"421 452 LINE",
"421 68 LINE SMOOTH",
"421 29 OFFCURVE",
"448 0 OFFCURVE",
"487 0 CURVE SMOOTH",
"540 0 LINE",
"540 44 LINE",
"498 44 LINE SMOOTH",
"480 44 OFFCURVE",
"471 54 OFFCURVE",
"471 74 CURVE SMOOTH",
"471 452 LINE",
"540 452 LINE",
"540 496 LINE",
"83 496 LINE",
"83 452 LINE",
"151 452 LINE",
"151 0 LINE",
"201 0 LINE"
);
}
);
width = 620;
},
{
layerId = "5117E3E8-E17C-4812-BAF5-9E7064564A59";
paths = (
{
closed = 1;
nodes = (
"258 376 LINE",
"364 376 LINE",
"364 96 LINE SMOOTH",
"364 40 OFFCURVE",
"404 0 OFFCURVE",
"460 0 CURVE SMOOTH",
"568 0 LINE",
"568 120 LINE",
"517 120 LINE SMOOTH",
"499 120 OFFCURVE",
"490 130 OFFCURVE",
"490 150 CURVE SMOOTH",
"490 376 LINE",
"568 376 LINE",
"568 496 LINE",
"54 496 LINE",
"54 376 LINE",
"132 376 LINE",
"132 0 LINE",
"258 0 LINE"
);
}
);
width = 620;
}
);
note = pi;
unicode = 03C0;
},
{
glyphname = zero;
lastChange = "2018-08-19 09:11:03 +0000";
layers = (
{
layerId = "A285862E-BE3D-4D67-A40D-0E28E121AD88";
paths = (
{
closed = 1;
nodes = (
"64 272 LINE SMOOTH",
"64 84 OFFCURVE",
"154 -14 OFFCURVE",
"312 -14 CURVE SMOOTH",
"470 -14 OFFCURVE",
"560 84 OFFCURVE",
"560 272 CURVE SMOOTH",
"560 428 LINE SMOOTH",
"560 616 OFFCURVE",
"470 714 OFFCURVE",
"312 714 CURVE SMOOTH",
"154 714 OFFCURVE",
"64 616 OFFCURVE",
"64 428 CURVE SMOOTH"
);
},
{
closed = 1;
nodes = (
"118 578 OFFCURVE",
"182 666 OFFCURVE",
"312 666 CURVE SMOOTH",
"442 666 OFFCURVE",
"506 578 OFFCURVE",
"506 432 CURVE SMOOTH",
"506 268 LINE SMOOTH",
"506 122 OFFCURVE",
"442 34 OFFCURVE",
"312 34 CURVE SMOOTH",
"182 34 OFFCURVE",
"118 122 OFFCURVE",
"118 268 CURVE SMOOTH",
"118 432 LINE SMOOTH"
);
}
);
width = 624;
},
{
layerId = "5117E3E8-E17C-4812-BAF5-9E7064564A59";
paths = (
{
closed = 1;
nodes = (
"30 268 LINE SMOOTH",
"30 84 OFFCURVE",
"138 -14 OFFCURVE",
"298 -14 CURVE SMOOTH",
"458 -14 OFFCURVE",
"566 84 OFFCURVE",
"566 268 CURVE SMOOTH",
"566 432 LINE SMOOTH",
"566 610 OFFCURVE",
"458 714 OFFCURVE",
"298 714 CURVE SMOOTH",
"138 714 OFFCURVE",
"30 610 OFFCURVE",
"30 432 CURVE SMOOTH"
);
},
{
closed = 1;
nodes = (
"162 531 OFFCURVE",
"212 596 OFFCURVE",
"298 596 CURVE SMOOTH",
"381 596 OFFCURVE",
"434 535 OFFCURVE",
"434 438 CURVE SMOOTH",
"434 262 LINE SMOOTH",
"434 167 OFFCURVE",
"392 104 OFFCURVE",
"298 104 CURVE SMOOTH",
"207 104 OFFCURVE",
"162 163 OFFCURVE",
"162 262 CURVE SMOOTH",
"162 438 LINE SMOOTH"
);
}
);
width = 596;
}
);
leftKerningGroup = zero;
leftMetricsKey = O;
note = zero;
rightKerningGroup = zero;
rightMetricsKey = O;
unicode = 0030;
},
{
glyphname = one;
lastChange = "2018-08-13 17:53:38 +0000";
layers = (
{
layerId = "A285862E-BE3D-4D67-A40D-0E28E121AD88";
paths = (
{
closed = 1;
nodes = (
"10 404 LINE",
"76 404 LINE",
"237 640 LINE",
"249 640 LINE",
"249 0 LINE",
"303 0 LINE",
"305 700 LINE",
"215 700 LINE"
);
}
);
width = 387;
},
{
layerId = "5117E3E8-E17C-4812-BAF5-9E7064564A59";
paths = (
{
closed = 1;
nodes = (
"0 384 LINE",
"138 384 LINE",
"236 560 LINE",
"248 560 LINE",
"248 0 LINE",
"380 0 LINE",
"380 700 LINE",
"180 700 LINE"
);
}
);
width = 438;
}
);
leftKerningGroup = one;
note = one;
rightKerningGroup = one;
rightMetricsKey = I;
unicode = 0031;
},
{
glyphname = two;
lastChange = "2018-08-19 09:10:52 +0000";
layers = (
{
layerId = "A285862E-BE3D-4D67-A40D-0E28E121AD88";
paths = (
{
closed = 1;
nodes = (
"54 452 LINE",
"108 452 LINE",
"108 472 LINE SMOOTH",
"108 597 OFFCURVE",
"186 666 OFFCURVE",
"301 666 CURVE SMOOTH",
"409 666 OFFCURVE",
"484 601 OFFCURVE",
"484 491 CURVE SMOOTH",
"484 389 OFFCURVE",
"411 333 OFFCURVE",
"287 303 CURVE SMOOTH",
"145 269 OFFCURVE",
"50 219 OFFCURVE",
"50 67 CURVE SMOOTH",
"50 0 LINE",
"542 0 LINE",
"542 48 LINE",
"104 48 LINE",
"104 73 LINE SMOOTH",
"104 196 OFFCURVE",
"181 223 OFFCURVE",
"314 258 CURVE SMOOTH",
"454 295 OFFCURVE",
"538 365 OFFCURVE",
"538 491 CURVE SMOOTH",
"538 625 OFFCURVE",
"441 714 OFFCURVE",
"301 714 CURVE SMOOTH",
"161 714 OFFCURVE",
"54 625 OFFCURVE",
"54 476 CURVE SMOOTH"
);
}
);
width = 586;
},
{
layerId = "5117E3E8-E17C-4812-BAF5-9E7064564A59";
paths = (
{
closed = 1;
nodes = (
"28 442 LINE",
"160 442 LINE",
"160 464 LINE SMOOTH",
"160 555 OFFCURVE",
"221 596 OFFCURVE",
"293 596 CURVE SMOOTH",
"365 596 OFFCURVE",
"412 555 OFFCURVE",
"412 486 CURVE SMOOTH",
"412 404 OFFCURVE",
"352 371 OFFCURVE",
"252 344 CURVE SMOOTH",
"123 309 OFFCURVE",
"32 247 OFFCURVE",
"32 120 CURVE SMOOTH",
"32 0 LINE",
"540 0 LINE",
"540 120 LINE",
"164 120 LINE",
"164 132 LINE SMOOTH",
"164 197 OFFCURVE",
"216 218 OFFCURVE",
"314 243 CURVE SMOOTH",
"461 280 OFFCURVE",
"544 344 OFFCURVE",
"544 482 CURVE SMOOTH",
"544 626 OFFCURVE",
"427 714 OFFCURVE",
"291 714 CURVE SMOOTH",
"149 714 OFFCURVE",
"28 630 OFFCURVE",
"28 466 CURVE SMOOTH"
);
}
);
width = 568;
}
);
leftKerningGroup = two;
note = two;
rightKerningGroup = two;
unicode = 0032;
},
{
glyphname = three;
lastChange = "2018-08-19 09:31:53 +0000";
layers = (
{
layerId = "A285862E-BE3D-4D67-A40D-0E28E121AD88";
paths = (
{
closed = 1;
nodes = (
"60 650 LINE",
"460 650 LINE",
"205 428 LINE",
"205 374 LINE",
"291 374 LINE SMOOTH",
"392 374 OFFCURVE",
"476 320 OFFCURVE",
"476 208 CURVE SMOOTH",
"476 111 OFFCURVE",
"406 34 OFFCURVE",
"296 34 CURVE SMOOTH",
"178 34 OFFCURVE",
"100 94 OFFCURVE",
"100 224 CURVE SMOOTH",
"100 261 LINE",
"46 261 LINE",
"46 226 LINE SMOOTH",
"46 70 OFFCURVE",
"145 -14 OFFCURVE",
"296 -14 CURVE SMOOTH",
"429 -14 OFFCURVE",
"530 77 OFFCURVE",
"530 206 CURVE SMOOTH",
"530 341 OFFCURVE",
"433 422 OFFCURVE",
"302 422 CURVE SMOOTH",
"278 422 LINE",
"278 432 LINE",
"532 651 LINE",
"532 700 LINE",
"60 700 LINE"
);
}
);
width = 580;
},
{
layerId = "5117E3E8-E17C-4812-BAF5-9E7064564A59";
paths = (
{
closed = 1;
nodes = (
"38 580 LINE",
"355 580 LINE",
"182 438 LINE",
"182 320 LINE",
"304 320 LINE SMOOTH",
"371 320 OFFCURVE",
"418 287 OFFCURVE",
"418 220 CURVE SMOOTH",
"418 153 OFFCURVE",
"369 104 OFFCURVE",
"286 104 CURVE SMOOTH",
"197 104 OFFCURVE",
"150 160 OFFCURVE",
"150 228 CURVE SMOOTH",
"150 252 LINE",
"18 252 LINE",
"18 224 LINE SMOOTH",
"18 85 OFFCURVE",
"119 -14 OFFCURVE",
"286 -14 CURVE SMOOTH",
"442 -14 OFFCURVE",
"550 78 OFFCURVE",
"550 220 CURVE SMOOTH",
"550 347 OFFCURVE",
"463 414 OFFCURVE",
"366 414 CURVE SMOOTH",
"340 414 LINE",
"340 426 LINE",
"534 584 LINE",
"534 700 LINE",
"38 700 LINE"
);
}
);
width = 572;
}
);
leftKerningGroup = three;
note = three;
rightKerningGroup = three;
unicode = 0033;
},
{
glyphname = four;
lastChange = "2018-08-13 17:54:01 +0000";
layers = (
{
layerId = "A285862E-BE3D-4D67-A40D-0E28E121AD88";
paths = (
{
closed = 1;
nodes = (
"20 190 LINE",
"20 144 LINE",
"402 144 LINE",
"402 0 LINE",
"456 0 LINE",
"456 144 LINE",
"580 144 LINE",
"580 192 LINE",
"456 192 LINE",
"456 700 LINE",
"363 700 LINE"
);
},
{
closed = 1;
nodes = (
"402 648 LINE",
"402 192 LINE",
"80 192 LINE",
"390 648 LINE"
);
}
);
width = 592;
},
{
layerId = "5117E3E8-E17C-4812-BAF5-9E7064564A59";
paths = (
{
closed = 1;
nodes = (
"6 254 LINE",
"6 138 LINE",
"354 138 LINE",
"354 0 LINE",
"486 0 LINE",
"486 138 LINE",
"600 138 LINE",
"600 258 LINE",
"486 258 LINE",
"486 700 LINE",
"280 700 LINE"
);
},
{
closed = 1;
nodes = (
"354 586 LINE",
"354 258 LINE",
"144 258 LINE",
"342 586 LINE"
);
}
);
width = 606;
}
);
leftKerningGroup = four;
note = four;
rightKerningGroup = four;
unicode = 0034;
},
{
glyphname = five;
lastChange = "2018-08-19 09:10:43 +0000";
layers = (
{
layerId = "A285862E-BE3D-4D67-A40D-0E28E121AD88";
paths = (
{
closed = 1;
nodes = (
"72 330 LINE",
"156 330 LINE",
"176 369 OFFCURVE",
"214 424 OFFCURVE",
"306 424 CURVE SMOOTH",
"412 424 OFFCURVE",
"478 351 OFFCURVE",
"478 233 CURVE SMOOTH",
"478 109 OFFCURVE",
"410 34 OFFCURVE",
"292 34 CURVE SMOOTH",
"182 34 OFFCURVE",
"102 95 OFFCURVE",
"102 222 CURVE SMOOTH",
"102 246 LINE",
"50 246 LINE",
"50 218 LINE SMOOTH",
"50 79 OFFCURVE",
"147 -14 OFFCURVE",
"292 -14 CURVE SMOOTH",
"442 -14 OFFCURVE",
"534 91 OFFCURVE",
"534 233 CURVE SMOOTH",
"534 379 OFFCURVE",
"440 470 OFFCURVE",
"318 470 CURVE SMOOTH",
"208 470 OFFCURVE",
"159 413 OFFCURVE",
"138 366 CURVE",
"126 366 LINE",
"126 652 LINE",
"520 652 LINE",
"520 700 LINE",
"72 700 LINE"
);
}
);
width = 580;
},
{
layerId = "5117E3E8-E17C-4812-BAF5-9E7064564A59";
paths = (
{
closed = 1;
nodes = (
"46 312 LINE",
"219 312 LINE",
"230 334 OFFCURVE",
"256 360 OFFCURVE",
"307 360 CURVE SMOOTH",
"370 360 OFFCURVE",
"416 317 OFFCURVE",
"416 243 CURVE SMOOTH",
"416 158 OFFCURVE",
"366 104 OFFCURVE",
"284 104 CURVE SMOOTH",
"200 104 OFFCURVE",
"154 158 OFFCURVE",
"154 238 CURVE SMOOTH",
"154 248 LINE",
"22 248 LINE",
"22 230 LINE SMOOTH",
"22 82 OFFCURVE",
"130 -14 OFFCURVE",
"288 -14 CURVE SMOOTH",
"443 -14 OFFCURVE",
"548 91 OFFCURVE",
"548 249 CURVE SMOOTH",
"548 389 OFFCURVE",
"450 472 OFFCURVE",
"341 472 CURVE SMOOTH",
"247 472 OFFCURVE",
"209 425 OFFCURVE",
"190 398 CURVE",
"178 398 LINE",
"178 580 LINE",
"522 580 LINE",
"522 700 LINE",
"46 700 LINE"
);
}
);
width = 568;
}
);
leftKerningGroup = five;
note = five;
rightKerningGroup = five;
unicode = 0035;
},
{
glyphname = six;
lastChange = "2018-08-19 09:11:25 +0000";
layers = (
{
layerId = "A285862E-BE3D-4D67-A40D-0E28E121AD88";
paths = (
{
closed = 1;
nodes = (
"548 373 OFFCURVE",
"446 470 OFFCURVE",
"318 470 CURVE SMOOTH",
"212 470 OFFCURVE",
"155 417 OFFCURVE",
"130 369 CURVE",
"118 369 LINE",
"118 477 LINE SMOOTH",
"118 595 OFFCURVE",
"190 666 OFFCURVE",
"312 666 CURVE SMOOTH",
"430 666 OFFCURVE",
"488 601 OFFCURVE",
"488 500 CURVE",
"542 500 LINE",
"542 614 OFFCURVE",
"466 714 OFFCURVE",
"312 714 CURVE SMOOTH",
"156 714 OFFCURVE",
"64 614 OFFCURVE",
"64 470 CURVE SMOOTH",
"64 228 LINE SMOOTH",
"64 80 OFFCURVE",
"170 -14 OFFCURVE",
"306 -14 CURVE SMOOTH",
"442 -14 OFFCURVE",
"548 83 OFFCURVE",
"548 228 CURVE SMOOTH"
);
},
{
closed = 1;
nodes = (
"418 426 OFFCURVE",
"494 346 OFFCURVE",
"494 228 CURVE SMOOTH",
"494 110 OFFCURVE",
"418 34 OFFCURVE",
"306 34 CURVE SMOOTH",
"194 34 OFFCURVE",
"118 110 OFFCURVE",
"118 228 CURVE SMOOTH",
"118 346 OFFCURVE",
"194 426 OFFCURVE",
"306 426 CURVE SMOOTH"
);
}
);
width = 598;
},
{
layerId = "5117E3E8-E17C-4812-BAF5-9E7064564A59";
paths = (
{
closed = 1;
nodes = (
"546 363 OFFCURVE",
"451 458 OFFCURVE",
"324 458 CURVE SMOOTH",
"230 458 OFFCURVE",
"191 416 OFFCURVE",
"174 392 CURVE",
"162 392 LINE",
"162 472 LINE SMOOTH",
"162 552 OFFCURVE",
"209 596 OFFCURVE",
"292 596 CURVE SMOOTH",
"368 596 OFFCURVE",
"406 552 OFFCURVE",
"406 492 CURVE",
"540 492 LINE",
"540 632 OFFCURVE",
"437 714 OFFCURVE",
"292 714 CURVE SMOOTH",
"143 714 OFFCURVE",
"30 629 OFFCURVE",
"30 464 CURVE SMOOTH",
"30 219 LINE SMOOTH",
"30 82 OFFCURVE",
"139 -15 OFFCURVE",
"286 -13 CURVE SMOOTH",
"438 -11 OFFCURVE",
"546 85 OFFCURVE",
"546 230 CURVE SMOOTH"
);
},
{
closed = 1;
nodes = (
"363 355 OFFCURVE",
"414 306 OFFCURVE",
"414 230 CURVE SMOOTH",
"414 154 OFFCURVE",
"361 105 OFFCURVE",
"288 105 CURVE SMOOTH",
"215 105 OFFCURVE",
"162 152 OFFCURVE",
"162 230 CURVE SMOOTH",
"162 306 OFFCURVE",
"213 355 OFFCURVE",
"288 355 CURVE SMOOTH"
);
}
);
width = 566;
}
);
leftKerningGroup = six;
leftMetricsKey = O;
note = six;
rightKerningGroup = six;
unicode = 0036;
},
{
glyphname = seven;
lastChange = "2018-08-19 09:11:29 +0000";
layers = (
{
layerId = "A285862E-BE3D-4D67-A40D-0E28E121AD88";
paths = (
{
closed = 1;
nodes = (
"18 650 LINE",
"466 650 LINE",
"150 0 LINE",
"212 0 LINE",
"528 654 LINE",
"528 700 LINE",
"18 700 LINE"
);
}
);
width = 548;
},
{
layerId = "5117E3E8-E17C-4812-BAF5-9E7064564A59";
paths = (
{
closed = 1;
nodes = (
"4 580 LINE",
"374 580 LINE",
"106 0 LINE",
"252 0 LINE",
"524 584 LINE",
"524 700 LINE",
"4 700 LINE"
);
}
);
width = 528;
}
);
leftKerningGroup = seven;
note = seven;
rightKerningGroup = seven;
unicode = 0037;
},
{
glyphname = eight;
lastChange = "2018-08-19 09:11:57 +0000";
layers = (
{
layerId = "A285862E-BE3D-4D67-A40D-0E28E121AD88";
paths = (
{
closed = 1;
nodes = (
"58 432 OFFCURVE",
"132 385 OFFCURVE",
"186 369 CURVE",
"186 357 LINE",
"132 349 OFFCURVE",
"44 298 OFFCURVE",
"44 184 CURVE SMOOTH",
"44 66 OFFCURVE",
"144 -14 OFFCURVE",
"292 -14 CURVE SMOOTH",
"440 -14 OFFCURVE",
"540 66 OFFCURVE",
"540 184 CURVE SMOOTH",
"540 298 OFFCURVE",
"452 349 OFFCURVE",
"398 357 CURVE",
"398 369 LINE",
"452 385 OFFCURVE",
"526 432 OFFCURVE",
"526 528 CURVE SMOOTH",
"526 636 OFFCURVE",
"436 714 OFFCURVE",
"292 714 CURVE SMOOTH",
"148 714 OFFCURVE",
"58 636 OFFCURVE",
"58 528 CURVE SMOOTH"
);
},
{
closed = 1;
nodes = (
"98 288 OFFCURVE",
"180 338 OFFCURVE",
"292 338 CURVE SMOOTH",
"404 338 OFFCURVE",
"486 288 OFFCURVE",
"486 186 CURVE SMOOTH",
"486 84 OFFCURVE",
"404 34 OFFCURVE",
"292 34 CURVE SMOOTH",
"180 34 OFFCURVE",
"98 84 OFFCURVE",
"98 186 CURVE SMOOTH"
);
},
{
closed = 1;
nodes = (
"112 616 OFFCURVE",
"190 666 OFFCURVE",
"292 666 CURVE SMOOTH",
"394 666 OFFCURVE",
"472 616 OFFCURVE",
"472 526 CURVE SMOOTH",
"472 436 OFFCURVE",
"394 386 OFFCURVE",
"292 386 CURVE SMOOTH",
"190 386 OFFCURVE",
"112 436 OFFCURVE",
"112 526 CURVE SMOOTH"
);
}
);
width = 584;
},
{
layerId = "5117E3E8-E17C-4812-BAF5-9E7064564A59";
paths = (
{
closed = 1;
nodes = (
"32 438 OFFCURVE",
"85 392 OFFCURVE",
"144 367 CURVE",
"144 355 LINE",
"86 338 OFFCURVE",
"22 283 OFFCURVE",
"22 189 CURVE SMOOTH",
"22 67 OFFCURVE",
"132 -14 OFFCURVE",
"284 -14 CURVE SMOOTH",
"436 -14 OFFCURVE",
"546 67 OFFCURVE",
"546 189 CURVE SMOOTH",
"546 283 OFFCURVE",
"482 338 OFFCURVE",
"424 355 CURVE",
"424 367 LINE",
"483 392 OFFCURVE",
"536 438 OFFCURVE",
"536 523 CURVE SMOOTH",
"536 633 OFFCURVE",
"434 714 OFFCURVE",
"284 714 CURVE SMOOTH",
"134 714 OFFCURVE",
"32 633 OFFCURVE",
"32 523 CURVE SMOOTH"
);
},
{
closed = 1;
nodes = (
"154 260 OFFCURVE",
"200 300 OFFCURVE",
"284 300 CURVE SMOOTH",
"368 300 OFFCURVE",
"414 260 OFFCURVE",
"414 202 CURVE SMOOTH",
"414 144 OFFCURVE",
"368 104 OFFCURVE",
"284 104 CURVE SMOOTH",
"200 104 OFFCURVE",
"154 144 OFFCURVE",
"154 202 CURVE SMOOTH"
);
},
{
closed = 1;
nodes = (
"164 563 OFFCURVE",
"213 596 OFFCURVE",
"284 596 CURVE SMOOTH",
"355 596 OFFCURVE",
"404 563 OFFCURVE",
"404 507 CURVE SMOOTH",
"404 451 OFFCURVE",
"355 418 OFFCURVE",
"284 418 CURVE SMOOTH",
"213 418 OFFCURVE",
"164 451 OFFCURVE",
"164 507 CURVE SMOOTH"
);
}
);
width = 568;
}
);
leftKerningGroup = eight;
note = eight;
rightKerningGroup = eight;
unicode = 0038;
},
{
glyphname = nine;
lastChange = "2018-08-19 09:12:14 +0000";
layers = (
{
layerId = "A285862E-BE3D-4D67-A40D-0E28E121AD88";
paths = (
{
closed = 1;
nodes = (
"50 327 OFFCURVE",
"152 230 OFFCURVE",
"280 230 CURVE SMOOTH",
"386 230 OFFCURVE",
"443 283 OFFCURVE",
"468 331 CURVE",
"480 331 LINE",
"480 223 LINE SMOOTH",
"480 105 OFFCURVE",
"408 34 OFFCURVE",
"286 34 CURVE SMOOTH",
"168 34 OFFCURVE",
"110 99 OFFCURVE",
"110 200 CURVE",
"56 200 LINE",
"56 86 OFFCURVE",
"132 -14 OFFCURVE",
"286 -14 CURVE SMOOTH",
"442 -14 OFFCURVE",
"534 86 OFFCURVE",
"534 230 CURVE SMOOTH",
"534 472 LINE SMOOTH",
"534 620 OFFCURVE",
"428 714 OFFCURVE",
"292 714 CURVE SMOOTH",
"156 714 OFFCURVE",
"50 617 OFFCURVE",
"50 472 CURVE SMOOTH"
);
},
{
closed = 1;
nodes = (
"180 274 OFFCURVE",
"104 354 OFFCURVE",
"104 472 CURVE SMOOTH",
"104 590 OFFCURVE",
"180 666 OFFCURVE",
"292 666 CURVE SMOOTH",
"404 666 OFFCURVE",
"480 590 OFFCURVE",
"480 472 CURVE SMOOTH",
"480 354 OFFCURVE",
"404 274 OFFCURVE",
"292 274 CURVE SMOOTH"
);
}
);
width = 598;
},
{
layerId = "5117E3E8-E17C-4812-BAF5-9E7064564A59";
paths = (
{
closed = 1;
nodes = (
"22 338 OFFCURVE",
"117 243 OFFCURVE",
"244 243 CURVE SMOOTH",
"338 243 OFFCURVE",
"377 285 OFFCURVE",
"394 309 CURVE",
"406 309 LINE",
"406 229 LINE SMOOTH",
"406 149 OFFCURVE",
"359 105 OFFCURVE",
"276 105 CURVE SMOOTH",
"200 105 OFFCURVE",
"162 151 OFFCURVE",
"162 209 CURVE",
"28 209 LINE",
"28 69 OFFCURVE",
"131 -13 OFFCURVE",
"276 -13 CURVE SMOOTH",
"425 -13 OFFCURVE",
"538 72 OFFCURVE",
"538 237 CURVE SMOOTH",
"538 482 LINE SMOOTH",
"538 619 OFFCURVE",
"429 716 OFFCURVE",
"282 714 CURVE SMOOTH",
"130 712 OFFCURVE",
"22 616 OFFCURVE",
"22 471 CURVE SMOOTH"
);
},
{
closed = 1;
nodes = (
"205 346 OFFCURVE",
"154 395 OFFCURVE",
"154 471 CURVE SMOOTH",
"154 547 OFFCURVE",
"207 596 OFFCURVE",
"280 596 CURVE SMOOTH",
"353 596 OFFCURVE",
"406 549 OFFCURVE",
"406 471 CURVE SMOOTH",
"406 395 OFFCURVE",
"355 346 OFFCURVE",
"280 346 CURVE SMOOTH"
);
}
);
width = 568;
}
);
leftKerningGroup = nine;
note = nine;
rightKerningGroup = nine;
rightMetricsKey = O;
unicode = 0039;
},
{
glyphname = zero.osf;
lastChange = "2018-08-19 09:15:06 +0000";
layers = (
{
layerId = "A285862E-BE3D-4D67-A40D-0E28E121AD88";
paths = (
{
closed = 1;
nodes = (
"50 98 OFFCURVE",
"148 -14 OFFCURVE",
"300 -14 CURVE SMOOTH",
"452 -14 OFFCURVE",
"550 98 OFFCURVE",
"550 248 CURVE SMOOTH",
"550 398 OFFCURVE",
"452 510 OFFCURVE",
"300 510 CURVE SMOOTH",
"148 510 OFFCURVE",
"50 398 OFFCURVE",
"50 248 CURVE SMOOTH"
);
},
{
closed = 1;
nodes = (
"104 368 OFFCURVE",
"182 462 OFFCURVE",
"300 462 CURVE SMOOTH",
"418 462 OFFCURVE",
"496 373 OFFCURVE",
"496 248 CURVE SMOOTH",
"496 125 OFFCURVE",
"418 34 OFFCURVE",
"300 34 CURVE SMOOTH",
"182 34 OFFCURVE",
"104 120 OFFCURVE",
"104 248 CURVE SMOOTH"
);
}
);
width = 600;
},
{
layerId = "5117E3E8-E17C-4812-BAF5-9E7064564A59";
paths = (
{
closed = 1;
nodes = (
"26 90 OFFCURVE",
"142 -14 OFFCURVE",
"292 -14 CURVE SMOOTH",
"442 -14 OFFCURVE",
"558 90 OFFCURVE",
"558 248 CURVE SMOOTH",
"558 406 OFFCURVE",
"442 510 OFFCURVE",
"292 510 CURVE SMOOTH",
"142 510 OFFCURVE",
"26 406 OFFCURVE",
"26 248 CURVE SMOOTH"
);
},
{
closed = 1;
nodes = (
"158 328 OFFCURVE",
"214 392 OFFCURVE",
"292 392 CURVE SMOOTH",
"370 392 OFFCURVE",
"426 328 OFFCURVE",
"426 248 CURVE SMOOTH",
"426 168 OFFCURVE",
"370 104 OFFCURVE",
"292 104 CURVE SMOOTH",
"214 104 OFFCURVE",
"158 168 OFFCURVE",
"158 248 CURVE SMOOTH"
);
}
);
width = 584;
}
);
leftKerningGroup = zero.osf;
leftMetricsKey = o;
note = zero.tosn;
rightKerningGroup = zero.osf;
rightMetricsKey = o;
},
{
glyphname = one.osf;
lastChange = "2018-08-19 09:52:36 +0000";
layers = (
{
layerId = "A285862E-BE3D-4D67-A40D-0E28E121AD88";
paths = (
{
closed = 1;
nodes = (
"32 274 LINE",
"32 272 LINE",
"103 272 LINE",
"262 440 LINE",
"274 440 LINE",
"274 0 LINE",
"330 0 LINE",
"330 484 LINE",
"232 484 LINE"
);
}
);
width = 412;
},
{
layerId = "5117E3E8-E17C-4812-BAF5-9E7064564A59";
paths = (
{
closed = 1;
nodes = (
"12 286 LINE",
"12 274 LINE",
"140 274 LINE",
"200 402 LINE",
"212 402 LINE",
"212 0 LINE",
"344 0 LINE",
"344 496 LINE",
"116 496 LINE"
);
}
);
width = 400;
}
);
leftKerningGroup = one.osf;
note = one.tosn;
rightKerningGroup = one.osf;
rightMetricsKey = u;
},
{
glyphname = two.osf;
lastChange = "2018-08-19 09:52:48 +0000";
layers = (
{
layerId = "A285862E-BE3D-4D67-A40D-0E28E121AD88";
paths = (
{
closed = 1;
nodes = (
"88 320 LINE",
"141 399 OFFCURVE",
"225 450 OFFCURVE",
"325 450 CURVE SMOOTH",
"409 450 OFFCURVE",
"474 417 OFFCURVE",
"474 349 CURVE SMOOTH",
"474 266 OFFCURVE",
"391 246 OFFCURVE",
"251 224 CURVE SMOOTH",
"105 201 OFFCURVE",
"46 150 OFFCURVE",
"46 42 CURVE SMOOTH",
"46 0 LINE",
"534 0 LINE",
"534 48 LINE",
"102 48 LINE",
"102 125 OFFCURVE",
"138 160 OFFCURVE",
"257 176 CURVE SMOOTH",
"432 200 OFFCURVE",
"530 230 OFFCURVE",
"530 347 CURVE SMOOTH",
"530 440 OFFCURVE",
"448 498 OFFCURVE",
"329 498 CURVE SMOOTH",
"208 498 OFFCURVE",
"114 443 OFFCURVE",
"44 353 CURVE"
);
}
);
width = 582;
},
{
layerId = "5117E3E8-E17C-4812-BAF5-9E7064564A59";
paths = (
{
closed = 1;
nodes = (
"128 293 LINE",
"172 354 OFFCURVE",
"243 390 OFFCURVE",
"308 390 CURVE SMOOTH",
"372 390 OFFCURVE",
"402 368 OFFCURVE",
"402 331 CURVE SMOOTH",
"402 292 OFFCURVE",
"368 277 OFFCURVE",
"286 269 CURVE SMOOTH",
"115 252 OFFCURVE",
"30 194 OFFCURVE",
"30 44 CURVE SMOOTH",
"30 0 LINE",
"530 0 LINE",
"530 120 LINE",
"164 120 LINE",
"173 161 OFFCURVE",
"219 162 OFFCURVE",
"333 174 CURVE SMOOTH",
"452 187 OFFCURVE",
"534 230 OFFCURVE",
"534 341 CURVE SMOOTH",
"534 437 OFFCURVE",
"465 510 OFFCURVE",
"323 510 CURVE SMOOTH",
"203 510 OFFCURVE",
"115 464 OFFCURVE",
"28 367 CURVE"
);
}
);
width = 564;
}
);
leftKerningGroup = two.osf;
note = two.tosn;
rightKerningGroup = two.osf;
},
{
glyphname = three.osf;
lastChange = "2018-08-19 09:53:07 +0000";
layers = (
{
layerId = "A285862E-BE3D-4D67-A40D-0E28E121AD88";
paths = (
{
closed = 1;
nodes = (
"40 10 LINE",
"48 -135 OFFCURVE",
"145 -210 OFFCURVE",
"290 -210 CURVE SMOOTH",
"423 -210 OFFCURVE",
"524 -120 OFFCURVE",
"524 8 CURVE SMOOTH",
"524 140 OFFCURVE",
"427 220 OFFCURVE",
"296 220 CURVE SMOOTH",
"279 220 LINE",
"279 232 LINE",
"526 435 LINE",
"526 484 LINE",
"54 484 LINE",
"54 434 LINE",
"450 434 LINE",
"197 222 LINE",
"197 172 LINE",
"285 172 LINE SMOOTH",
"386 172 OFFCURVE",
"470 118 OFFCURVE",
"470 9 CURVE SMOOTH",
"470 -85 OFFCURVE",
"400 -162 OFFCURVE",
"290 -162 CURVE SMOOTH",
"174 -162 OFFCURVE",
"97 -106 OFFCURVE",
"94 19 CURVE"
);
}
);
width = 574;
},
{
layerId = "5117E3E8-E17C-4812-BAF5-9E7064564A59";
paths = (
{
closed = 1;
nodes = (
"18 12 LINE",
"27 -118 OFFCURVE",
"127 -208 OFFCURVE",
"286 -208 CURVE SMOOTH",
"442 -208 OFFCURVE",
"550 -116 OFFCURVE",
"550 24 CURVE SMOOTH",
"550 149 OFFCURVE",
"460 216 OFFCURVE",
"363 216 CURVE SMOOTH",
"348 216 LINE",
"348 228 LINE",
"534 384 LINE",
"534 496 LINE",
"38 496 LINE",
"38 376 LINE",
"350 376 LINE",
"182 232 LINE",
"182 122 LINE",
"304 122 LINE SMOOTH",
"371 122 OFFCURVE",
"418 88 OFFCURVE",
"418 22 CURVE SMOOTH",
"418 -42 OFFCURVE",
"369 -90 OFFCURVE",
"286 -90 CURVE SMOOTH",
"200 -90 OFFCURVE",
"153 -38 OFFCURVE",
"150 30 CURVE"
);
}
);
width = 580;
}
);
leftKerningGroup = three.osf;
note = three.tosn;
rightKerningGroup = three.osf;
},
{
glyphname = four.osf;
lastChange = "2018-08-19 09:53:10 +0000";
layers = (
{
layerId = "A285862E-BE3D-4D67-A40D-0E28E121AD88";
paths = (
{
closed = 1;
nodes = (
"22 46 LINE",
"22 0 LINE",
"404 0 LINE",
"404 -200 LINE",
"458 -200 LINE",
"458 0 LINE",
"582 0 LINE",
"582 48 LINE",
"458 48 LINE",
"458 484 LINE",
"365 484 LINE"
);
},
{
closed = 1;
nodes = (
"404 440 LINE",
"404 48 LINE",
"83 48 LINE",
"392 440 LINE"
);
}
);
width = 598;
},
{
layerId = "5117E3E8-E17C-4812-BAF5-9E7064564A59";
paths = (
{
closed = 1;
nodes = (
"20 112 LINE",
"20 0 LINE",
"348 0 LINE",
"348 -200 LINE",
"480 -200 LINE",
"480 0 LINE",
"594 0 LINE",
"594 120 LINE",
"480 120 LINE",
"480 496 LINE",
"266 496 LINE"
);
},
{
closed = 1;
nodes = (
"348 392 LINE",
"348 120 LINE",
"162 120 LINE",
"336 392 LINE"
);
}
);
width = 596;
}
);
leftKerningGroup = four.osf;
note = four.tosn;
rightKerningGroup = four.osf;
},
{
glyphname = five.osf;
lastChange = "2018-08-19 09:53:13 +0000";
layers = (
{
layerId = "A285862E-BE3D-4D67-A40D-0E28E121AD88";
paths = (
{
closed = 1;
nodes = (
"52 12 LINE",
"55 -124 OFFCURVE",
"151 -214 OFFCURVE",
"294 -214 CURVE SMOOTH",
"444 -214 OFFCURVE",
"536 -109 OFFCURVE",
"536 30 CURVE SMOOTH",
"536 173 OFFCURVE",
"442 264 OFFCURVE",
"320 264 CURVE SMOOTH",
"210 264 OFFCURVE",
"161 207 OFFCURVE",
"140 160 CURVE",
"128 160 LINE",
"128 436 LINE",
"522 436 LINE",
"522 484 LINE",
"74 484 LINE",
"74 124 LINE",
"158 124 LINE",
"178 163 OFFCURVE",
"216 218 OFFCURVE",
"308 218 CURVE SMOOTH",
"414 218 OFFCURVE",
"480 145 OFFCURVE",
"480 30 CURVE SMOOTH",
"480 -91 OFFCURVE",
"412 -166 OFFCURVE",
"294 -166 CURVE SMOOTH",
"185 -166 OFFCURVE",
"106 -106 OFFCURVE",
"104 17 CURVE"
);
}
);
width = 580;
},
{
layerId = "5117E3E8-E17C-4812-BAF5-9E7064564A59";
paths = (
{
closed = 1;
nodes = (
"27 12 LINE",
"35 -126 OFFCURVE",
"141 -214 OFFCURVE",
"292 -214 CURVE SMOOTH",
"447 -214 OFFCURVE",
"552 -109 OFFCURVE",
"552 49 CURVE SMOOTH",
"552 189 OFFCURVE",
"454 272 OFFCURVE",
"345 272 CURVE SMOOTH",
"251 272 OFFCURVE",
"213 225 OFFCURVE",
"194 198 CURVE",
"182 198 LINE",
"182 376 LINE",
"526 376 LINE",
"526 496 LINE",
"50 496 LINE",
"50 112 LINE",
"223 112 LINE",
"234 134 OFFCURVE",
"260 160 OFFCURVE",
"311 160 CURVE SMOOTH",
"374 160 OFFCURVE",
"420 117 OFFCURVE",
"420 43 CURVE SMOOTH",
"420 -42 OFFCURVE",
"370 -96 OFFCURVE",
"288 -96 CURVE SMOOTH",
"208 -96 OFFCURVE",
"162 -47 OFFCURVE",
"158 28 CURVE"
);
}
);
width = 580;
}
);
leftKerningGroup = five.osf;
note = five.tosn;
rightKerningGroup = five.osf;
},
{
glyphname = six.osf;
lastChange = "2018-08-19 09:19:04 +0000";
layers = (
{
layerId = "A285862E-BE3D-4D67-A40D-0E28E121AD88";
paths = (
{
closed = 1;
nodes = (
"186 426 OFFCURVE",
"110 346 OFFCURVE",
"110 228 CURVE SMOOTH",
"110 110 OFFCURVE",
"186 34 OFFCURVE",
"298 34 CURVE SMOOTH",
"410 34 OFFCURVE",
"486 110 OFFCURVE",
"486 228 CURVE SMOOTH",
"486 346 OFFCURVE",
"410 426 OFFCURVE",
"298 426 CURVE SMOOTH"
);
},
{
closed = 1;
nodes = (
"478 608 OFFCURVE",
"418 666 OFFCURVE",
"306 666 CURVE SMOOTH",
"184 666 OFFCURVE",
"110 595 OFFCURVE",
"110 477 CURVE SMOOTH",
"110 369 LINE",
"122 369 LINE",
"147 417 OFFCURVE",
"204 470 OFFCURVE",
"310 470 CURVE SMOOTH",
"438 470 OFFCURVE",
"540 373 OFFCURVE",
"540 228 CURVE SMOOTH",
"540 83 OFFCURVE",
"434 -14 OFFCURVE",
"298 -14 CURVE SMOOTH",
"162 -14 OFFCURVE",
"56 80 OFFCURVE",
"56 228 CURVE SMOOTH",
"56 470 LINE SMOOTH",
"56 614 OFFCURVE",
"150 714 OFFCURVE",
"306 714 CURVE SMOOTH",
"450 714 OFFCURVE",
"528 626 OFFCURVE",
"537 522 CURVE",
"484 516 LINE"
);
}
);
width = 590;
},
{
layerId = "5117E3E8-E17C-4812-BAF5-9E7064564A59";
paths = (
{
closed = 1;
nodes = (
"219 355 OFFCURVE",
"168 306 OFFCURVE",
"168 230 CURVE SMOOTH",
"168 152 OFFCURVE",
"221 105 OFFCURVE",
"294 105 CURVE SMOOTH",
"367 105 OFFCURVE",
"420 154 OFFCURVE",
"420 230 CURVE SMOOTH",
"420 306 OFFCURVE",
"369 355 OFFCURVE",
"294 355 CURVE SMOOTH"
);
},
{
closed = 1;
nodes = (
"407 561 OFFCURVE",
"368 596 OFFCURVE",
"300 596 CURVE SMOOTH",
"217 596 OFFCURVE",
"168 552 OFFCURVE",
"168 472 CURVE SMOOTH",
"168 392 LINE",
"180 392 LINE",
"197 416 OFFCURVE",
"236 458 OFFCURVE",
"330 458 CURVE SMOOTH",
"457 458 OFFCURVE",
"552 363 OFFCURVE",
"552 230 CURVE SMOOTH",
"552 85 OFFCURVE",
"444 -11 OFFCURVE",
"292 -13 CURVE SMOOTH",
"145 -15 OFFCURVE",
"36 82 OFFCURVE",
"36 219 CURVE SMOOTH",
"36 464 LINE SMOOTH",
"36 629 OFFCURVE",
"151 714 OFFCURVE",
"300 714 CURVE SMOOTH",
"432 714 OFFCURVE",
"531 646 OFFCURVE",
"548 528 CURVE",
"415 511 LINE"
);
}
);
width = 582;
}
);
leftKerningGroup = six.osf;
note = six.tosn;
rightKerningGroup = six.osf;
},
{
glyphname = seven.osf;
lastChange = "2018-08-19 09:53:15 +0000";
layers = (
{
layerId = "A285862E-BE3D-4D67-A40D-0E28E121AD88";
paths = (
{
closed = 1;
nodes = (
"20 434 LINE",
"468 434 LINE",
"152 -200 LINE",
"214 -200 LINE",
"530 438 LINE",
"530 484 LINE",
"20 484 LINE"
);
}
);
width = 550;
},
{
layerId = "5117E3E8-E17C-4812-BAF5-9E7064564A59";
paths = (
{
closed = 1;
nodes = (
"16 376 LINE",
"386 376 LINE",
"118 -200 LINE",
"264 -200 LINE",
"536 380 LINE",
"536 496 LINE",
"16 496 LINE"
);
}
);
width = 552;
}
);
leftKerningGroup = seven.osf;
note = seven.tosn;
rightKerningGroup = seven.osf;
},
{
glyphname = eight.osf;
lastChange = "2018-08-19 09:22:47 +0000";
layers = (
{
layerId = "A285862E-BE3D-4D67-A40D-0E28E121AD88";
paths = (
{
closed = 1;
nodes = (
"62 432 OFFCURVE",
"136 385 OFFCURVE",
"190 369 CURVE",
"190 357 LINE",
"136 349 OFFCURVE",
"48 298 OFFCURVE",
"48 184 CURVE SMOOTH",
"48 66 OFFCURVE",
"148 -14 OFFCURVE",
"296 -14 CURVE SMOOTH",
"444 -14 OFFCURVE",
"544 66 OFFCURVE",
"544 184 CURVE SMOOTH",
"544 298 OFFCURVE",
"456 349 OFFCURVE",
"402 357 CURVE",
"402 369 LINE",
"456 385 OFFCURVE",
"530 432 OFFCURVE",
"530 528 CURVE SMOOTH",
"530 636 OFFCURVE",
"440 714 OFFCURVE",
"296 714 CURVE SMOOTH",
"152 714 OFFCURVE",
"62 636 OFFCURVE",
"62 528 CURVE SMOOTH"
);
},
{
closed = 1;
nodes = (
"102 288 OFFCURVE",
"184 338 OFFCURVE",
"296 338 CURVE SMOOTH",
"408 338 OFFCURVE",
"490 288 OFFCURVE",
"490 186 CURVE SMOOTH",
"490 84 OFFCURVE",
"408 34 OFFCURVE",
"296 34 CURVE SMOOTH",
"184 34 OFFCURVE",
"102 84 OFFCURVE",
"102 186 CURVE SMOOTH"
);
},
{
closed = 1;
nodes = (
"116 616 OFFCURVE",
"194 666 OFFCURVE",
"296 666 CURVE SMOOTH",
"398 666 OFFCURVE",
"476 616 OFFCURVE",
"476 526 CURVE SMOOTH",
"476 436 OFFCURVE",
"398 386 OFFCURVE",
"296 386 CURVE SMOOTH",
"194 386 OFFCURVE",
"116 436 OFFCURVE",
"116 526 CURVE SMOOTH"
);
}
);
width = 592;
},
{
layerId = "5117E3E8-E17C-4812-BAF5-9E7064564A59";
paths = (
{
closed = 1;
nodes = (
"38 438 OFFCURVE",
"91 392 OFFCURVE",
"150 367 CURVE",
"150 355 LINE",
"92 338 OFFCURVE",
"28 283 OFFCURVE",
"28 189 CURVE SMOOTH",
"28 67 OFFCURVE",
"138 -14 OFFCURVE",
"290 -14 CURVE SMOOTH",
"442 -14 OFFCURVE",
"552 67 OFFCURVE",
"552 189 CURVE SMOOTH",
"552 283 OFFCURVE",
"488 338 OFFCURVE",
"430 355 CURVE",
"430 367 LINE",
"489 392 OFFCURVE",
"542 438 OFFCURVE",
"542 523 CURVE SMOOTH",
"542 633 OFFCURVE",
"440 714 OFFCURVE",
"290 714 CURVE SMOOTH",
"140 714 OFFCURVE",
"38 633 OFFCURVE",
"38 523 CURVE SMOOTH"
);
},
{
closed = 1;
nodes = (
"160 260 OFFCURVE",
"206 300 OFFCURVE",
"290 300 CURVE SMOOTH",
"374 300 OFFCURVE",
"420 260 OFFCURVE",
"420 202 CURVE SMOOTH",
"420 144 OFFCURVE",
"374 104 OFFCURVE",
"290 104 CURVE SMOOTH",
"206 104 OFFCURVE",
"160 144 OFFCURVE",
"160 202 CURVE SMOOTH"
);
},
{
closed = 1;
nodes = (
"170 563 OFFCURVE",
"219 596 OFFCURVE",
"290 596 CURVE SMOOTH",
"361 596 OFFCURVE",
"410 563 OFFCURVE",
"410 507 CURVE SMOOTH",
"410 451 OFFCURVE",
"361 418 OFFCURVE",
"290 418 CURVE SMOOTH",
"219 418 OFFCURVE",
"170 451 OFFCURVE",
"170 507 CURVE SMOOTH"
);
}
);
width = 580;
}
);
leftKerningGroup = eight.osf;
note = eight.tosn;
rightKerningGroup = eight.osf;
},
{
glyphname = nine.osf;
lastChange = "2018-08-19 09:53:22 +0000";
layers = (
{
layerId = "A285862E-BE3D-4D67-A40D-0E28E121AD88";
paths = (
{
closed = 1;
nodes = (
"58 -33 LINE",
"72 -133 OFFCURVE",
"147 -214 OFFCURVE",
"286 -214 CURVE SMOOTH",
"442 -214 OFFCURVE",
"534 -114 OFFCURVE",
"534 30 CURVE SMOOTH",
"534 256 LINE SMOOTH",
"534 404 OFFCURVE",
"428 498 OFFCURVE",
"292 498 CURVE SMOOTH",
"156 498 OFFCURVE",
"50 401 OFFCURVE",
"50 256 CURVE SMOOTH",
"50 111 OFFCURVE",
"152 14 OFFCURVE",
"280 14 CURVE SMOOTH",
"386 14 OFFCURVE",
"443 67 OFFCURVE",
"468 115 CURVE",
"480 115 LINE",
"480 23 LINE SMOOTH",
"480 -95 OFFCURVE",
"408 -166 OFFCURVE",
"286 -166 CURVE SMOOTH",
"179 -166 OFFCURVE",
"121 -112 OFFCURVE",
"111 -26 CURVE"
);
},
{
closed = 1;
nodes = (
"180 58 OFFCURVE",
"104 138 OFFCURVE",
"104 256 CURVE SMOOTH",
"104 374 OFFCURVE",
"180 450 OFFCURVE",
"292 450 CURVE SMOOTH",
"404 450 OFFCURVE",
"480 374 OFFCURVE",
"480 256 CURVE SMOOTH",
"480 138 OFFCURVE",
"404 58 OFFCURVE",
"292 58 CURVE SMOOTH"
);
}
);
width = 590;
},
{
layerId = "5117E3E8-E17C-4812-BAF5-9E7064564A59";
paths = (
{
closed = 1;
nodes = (
"39 -29 LINE",
"55 -146 OFFCURVE",
"152 -214 OFFCURVE",
"284 -214 CURVE SMOOTH",
"433 -214 OFFCURVE",
"546 -129 OFFCURVE",
"546 36 CURVE SMOOTH",
"546 278 LINE SMOOTH",
"546 415 OFFCURVE",
"437 512 OFFCURVE",
"290 510 CURVE SMOOTH",
"138 508 OFFCURVE",
"30 412 OFFCURVE",
"30 267 CURVE SMOOTH",
"30 134 OFFCURVE",
"125 39 OFFCURVE",
"252 39 CURVE SMOOTH",
"346 39 OFFCURVE",
"385 81 OFFCURVE",
"402 105 CURVE",
"414 105 LINE",
"414 28 LINE SMOOTH",
"414 -52 OFFCURVE",
"367 -96 OFFCURVE",
"284 -96 CURVE SMOOTH",
"217 -96 OFFCURVE",
"180 -61 OFFCURVE",
"172 -13 CURVE"
);
},
{
closed = 1;
nodes = (
"213 142 OFFCURVE",
"162 191 OFFCURVE",
"162 267 CURVE SMOOTH",
"162 343 OFFCURVE",
"215 392 OFFCURVE",
"288 392 CURVE SMOOTH",
"361 392 OFFCURVE",
"414 345 OFFCURVE",
"414 267 CURVE SMOOTH",
"414 191 OFFCURVE",
"363 142 OFFCURVE",
"288 142 CURVE SMOOTH"
);
}
);
width = 582;
}
);
leftKerningGroup = nine.osf;
note = nine.tosn;
rightKerningGroup = nine.osf;
},
{
glyphname = one.osf.ss03;
lastChange = "2018-08-19 09:53:25 +0000";
layers = (
{
layerId = "A285862E-BE3D-4D67-A40D-0E28E121AD88";
paths = (
{
closed = 1;
nodes = (
"32 272 LINE",
"103 272 LINE",
"262 454 LINE",
"274 454 LINE",
"274 0 LINE",
"330 0 LINE",
"330 484 LINE",
"222 484 LINE"
);
}
);
width = 412;
},
{
layerId = "5117E3E8-E17C-4812-BAF5-9E7064564A59";
paths = (
{
closed = 1;
nodes = (
"12 274 LINE",
"140 274 LINE",
"200 436 LINE",
"212 436 LINE",
"212 0 LINE",
"344 0 LINE",
"344 496 LINE",
"98 496 LINE"
);
}
);
width = 400;
}
);
leftKerningGroup = one.osf;
note = one.tosn;
rightKerningGroup = one.osf;
rightMetricsKey = u;
},
{
glyphname = zero.osf.zero;
lastChange = "2018-08-19 09:53:38 +0000";
layers = (
{
layerId = "A285862E-BE3D-4D67-A40D-0E28E121AD88";
paths = (
{
closed = 1;
nodes = (
"50 95 OFFCURVE",
"148 -14 OFFCURVE",
"300 -14 CURVE SMOOTH",
"452 -14 OFFCURVE",
"550 95 OFFCURVE",
"550 242 CURVE SMOOTH",
"550 389 OFFCURVE",
"452 498 OFFCURVE",
"300 498 CURVE SMOOTH",
"148 498 OFFCURVE",
"50 389 OFFCURVE",
"50 242 CURVE SMOOTH"
);
},
{
closed = 1;
nodes = (
"104 359 OFFCURVE",
"182 450 OFFCURVE",
"300 450 CURVE SMOOTH",
"418 450 OFFCURVE",
"496 364 OFFCURVE",
"496 242 CURVE SMOOTH",
"496 122 OFFCURVE",
"418 34 OFFCURVE",
"300 34 CURVE SMOOTH",
"182 34 OFFCURVE",
"104 117 OFFCURVE",
"104 242 CURVE SMOOTH"
);
},
{
closed = 1;
nodes = (
"108 137 LINE",
"130 99 LINE",
"492 347 LINE",
"470 385 LINE"
);
}
);
width = 600;
},
{
layerId = "5117E3E8-E17C-4812-BAF5-9E7064564A59";
paths = (
{
closed = 1;
nodes = (
"26 90 OFFCURVE",
"142 -14 OFFCURVE",
"292 -14 CURVE SMOOTH",
"442 -14 OFFCURVE",
"558 90 OFFCURVE",
"558 248 CURVE SMOOTH",
"558 406 OFFCURVE",
"442 510 OFFCURVE",
"292 510 CURVE SMOOTH",
"142 510 OFFCURVE",
"26 406 OFFCURVE",
"26 248 CURVE SMOOTH"
);
},
{
closed = 1;
nodes = (
"158 328 OFFCURVE",
"214 392 OFFCURVE",
"292 392 CURVE SMOOTH",
"370 392 OFFCURVE",
"426 328 OFFCURVE",
"426 248 CURVE SMOOTH",
"426 168 OFFCURVE",
"370 104 OFFCURVE",
"292 104 CURVE SMOOTH",
"214 104 OFFCURVE",
"158 168 OFFCURVE",
"158 248 CURVE SMOOTH"
);
},
{
closed = 1;
nodes = (
"83 157 LINE",
"139 85 LINE",
"501 339 LINE",
"445 411 LINE"
);
}
);
width = 584;
}
);
leftKerningGroup = zero.osf;
leftMetricsKey = o;
note = zero.tosn;
rightKerningGroup = zero.osf;
rightMetricsKey = o;
},
{
glyphname = one.ss03;
lastChange = "2018-08-19 09:24:55 +0000";
layers = (
{
layerId = "A285862E-BE3D-4D67-A40D-0E28E121AD88";
paths = (
{
closed = 1;
nodes = (
"10 404 LINE",
"76 404 LINE",
"237 670 LINE",
"249 670 LINE",
"249 0 LINE",
"303 0 LINE",
"305 700 LINE",
"195 700 LINE"
);
}
);
width = 387;
},
{
layerId = "5117E3E8-E17C-4812-BAF5-9E7064564A59";
paths = (
{
closed = 1;
nodes = (
"0 384 LINE",
"138 384 LINE",
"236 640 LINE",
"248 640 LINE",
"248 0 LINE",
"380 0 LINE",
"380 700 LINE",
"132 700 LINE"
);
}
);
width = 438;
}
);
leftKerningGroup = one;
note = one;
rightKerningGroup = one;
rightMetricsKey = I;
},
{
glyphname = zero.tf;
lastChange = "2017-12-13 16:26:11 +0000";
layers = (
{
layerId = "A285862E-BE3D-4D67-A40D-0E28E121AD88";
paths = (
{
closed = 1;
nodes = (
"70 272 LINE SMOOTH",
"70 84 OFFCURVE",
"156 -14 OFFCURVE",
"310 -14 CURVE SMOOTH",
"464 -14 OFFCURVE",
"550 84 OFFCURVE",
"550 272 CURVE SMOOTH",
"550 428 LINE SMOOTH",
"550 616 OFFCURVE",
"464 714 OFFCURVE",
"310 714 CURVE SMOOTH",
"156 714 OFFCURVE",
"70 616 OFFCURVE",
"70 428 CURVE SMOOTH"
);
},
{
closed = 1;
nodes = (
"124 578 OFFCURVE",
"184 666 OFFCURVE",
"310 666 CURVE SMOOTH",
"436 666 OFFCURVE",
"496 578 OFFCURVE",
"496 432 CURVE SMOOTH",
"496 268 LINE SMOOTH",
"496 122 OFFCURVE",
"436 34 OFFCURVE",
"310 34 CURVE SMOOTH",
"184 34 OFFCURVE",
"124 122 OFFCURVE",
"124 268 CURVE SMOOTH",
"124 432 LINE SMOOTH"
);
}
);
width = 620;
},
{
layerId = "5117E3E8-E17C-4812-BAF5-9E7064564A59";
paths = (
{
closed = 1;
nodes = (
"54 268 LINE SMOOTH",
"54 84 OFFCURVE",
"156 -14 OFFCURVE",
"310 -14 CURVE SMOOTH",
"464 -14 OFFCURVE",
"566 84 OFFCURVE",
"566 268 CURVE SMOOTH",
"566 432 LINE SMOOTH",
"566 610 OFFCURVE",
"464 714 OFFCURVE",
"310 714 CURVE SMOOTH",
"156 714 OFFCURVE",
"54 610 OFFCURVE",
"54 432 CURVE SMOOTH"
);
},
{
closed = 1;
nodes = (
"186 529 OFFCURVE",
"230 594 OFFCURVE",
"310 594 CURVE SMOOTH",
"387 594 OFFCURVE",
"434 533 OFFCURVE",
"434 436 CURVE SMOOTH",
"434 264 LINE SMOOTH",
"434 169 OFFCURVE",
"398 106 OFFCURVE",
"310 106 CURVE SMOOTH",
"225 106 OFFCURVE",
"186 165 OFFCURVE",
"186 264 CURVE SMOOTH",
"186 436 LINE SMOOTH"
);
}
);
width = 620;
}
);
note = zero;
},
{
glyphname = one.tf;
lastChange = "2018-08-16 11:34:49 +0000";
layers = (
{
layerId = "A285862E-BE3D-4D67-A40D-0E28E121AD88";
paths = (
{
closed = 1;
nodes = (
"62 48 LINE",
"62 0 LINE",
"586 0 LINE",
"586 48 LINE"
);
},
{
closed = 1;
nodes = (
"99 404 LINE",
"165 404 LINE",
"316 640 LINE",
"328 640 LINE",
"328 0 LINE",
"382 0 LINE",
"384 700 LINE",
"292 700 LINE"
);
}
);
width = 620;
},
{
layerId = "5117E3E8-E17C-4812-BAF5-9E7064564A59";
paths = (
{
closed = 1;
nodes = (
"68 120 LINE",
"68 0 LINE",
"572 0 LINE",
"572 120 LINE"
);
},
{
closed = 1;
nodes = (
"74 384 LINE",
"208 384 LINE",
"266 560 LINE",
"278 560 LINE",
"278 0 LINE",
"410 0 LINE",
"410 700 LINE",
"198 700 LINE"
);
}
);
width = 620;
}
);
note = one;
},
{
glyphname = two.tf;
lastChange = "2017-12-13 16:28:45 +0000";
layers = (
{
layerId = "A285862E-BE3D-4D67-A40D-0E28E121AD88";
paths = (
{
closed = 1;
nodes = (
"80 452 LINE",
"134 452 LINE",
"134 472 LINE SMOOTH",
"134 597 OFFCURVE",
"212 666 OFFCURVE",
"327 666 CURVE SMOOTH",
"435 666 OFFCURVE",
"510 601 OFFCURVE",
"510 491 CURVE SMOOTH",
"510 389 OFFCURVE",
"437 333 OFFCURVE",
"313 303 CURVE SMOOTH",
"171 269 OFFCURVE",
"76 219 OFFCURVE",
"76 67 CURVE SMOOTH",
"76 0 LINE",
"568 0 LINE",
"568 48 LINE",
"130 48 LINE",
"130 73 LINE SMOOTH",
"130 196 OFFCURVE",
"207 223 OFFCURVE",
"340 258 CURVE SMOOTH",
"480 295 OFFCURVE",
"564 365 OFFCURVE",
"564 491 CURVE SMOOTH",
"564 625 OFFCURVE",
"467 714 OFFCURVE",
"327 714 CURVE SMOOTH",
"187 714 OFFCURVE",
"80 625 OFFCURVE",
"80 476 CURVE SMOOTH"
);
}
);
width = 620;
},
{
layerId = "5117E3E8-E17C-4812-BAF5-9E7064564A59";
paths = (
{
closed = 1;
nodes = (
"54 442 LINE",
"186 442 LINE",
"186 464 LINE SMOOTH",
"186 553 OFFCURVE",
"247 592 OFFCURVE",
"319 592 CURVE SMOOTH",
"391 592 OFFCURVE",
"438 553 OFFCURVE",
"438 486 CURVE SMOOTH",
"438 404 OFFCURVE",
"378 371 OFFCURVE",
"278 344 CURVE SMOOTH",
"149 309 OFFCURVE",
"58 247 OFFCURVE",
"58 120 CURVE SMOOTH",
"58 0 LINE",
"566 0 LINE",
"566 120 LINE",
"190 120 LINE",
"190 132 LINE SMOOTH",
"190 197 OFFCURVE",
"242 218 OFFCURVE",
"340 243 CURVE SMOOTH",
"487 280 OFFCURVE",
"570 344 OFFCURVE",
"570 482 CURVE SMOOTH",
"570 626 OFFCURVE",
"453 714 OFFCURVE",
"317 714 CURVE SMOOTH",
"175 714 OFFCURVE",
"54 630 OFFCURVE",
"54 466 CURVE SMOOTH"
);
}
);
width = 620;
}
);
note = two;
},
{
glyphname = three.tf;
lastChange = "2018-08-19 09:32:05 +0000";
layers = (
{
layerId = "A285862E-BE3D-4D67-A40D-0E28E121AD88";
paths = (
{
closed = 1;
nodes = (
"80 650 LINE",
"480 650 LINE",
"225 428 LINE",
"225 374 LINE",
"311 374 LINE SMOOTH",
"412 374 OFFCURVE",
"496 320 OFFCURVE",
"496 208 CURVE SMOOTH",
"496 111 OFFCURVE",
"426 34 OFFCURVE",
"316 34 CURVE SMOOTH",
"198 34 OFFCURVE",
"120 94 OFFCURVE",
"120 224 CURVE SMOOTH",
"120 261 LINE",
"66 261 LINE",
"66 226 LINE SMOOTH",
"66 70 OFFCURVE",
"165 -14 OFFCURVE",
"316 -14 CURVE SMOOTH",
"449 -14 OFFCURVE",
"550 77 OFFCURVE",
"550 206 CURVE SMOOTH",
"550 341 OFFCURVE",
"453 422 OFFCURVE",
"322 422 CURVE SMOOTH",
"298 422 LINE",
"298 432 LINE",
"552 651 LINE",
"552 700 LINE",
"80 700 LINE"
);
}
);
width = 620;
},
{
layerId = "5117E3E8-E17C-4812-BAF5-9E7064564A59";
paths = (
{
closed = 1;
nodes = (
"60 576 LINE",
"375 576 LINE",
"204 438 LINE",
"204 320 LINE",
"326 320 LINE SMOOTH",
"393 320 OFFCURVE",
"440 287 OFFCURVE",
"440 220 CURVE SMOOTH",
"440 155 OFFCURVE",
"391 108 OFFCURVE",
"308 108 CURVE SMOOTH",
"219 108 OFFCURVE",
"172 162 OFFCURVE",
"172 230 CURVE SMOOTH",
"172 252 LINE",
"40 252 LINE",
"40 224 LINE SMOOTH",
"40 85 OFFCURVE",
"141 -14 OFFCURVE",
"308 -14 CURVE SMOOTH",
"464 -14 OFFCURVE",
"572 78 OFFCURVE",
"572 220 CURVE SMOOTH",
"572 347 OFFCURVE",
"485 414 OFFCURVE",
"388 414 CURVE SMOOTH",
"362 414 LINE",
"362 426 LINE",
"556 580 LINE",
"556 700 LINE",
"60 700 LINE"
);
}
);
width = 620;
}
);
note = three;
},
{
glyphname = four.tf;
lastChange = "2017-12-13 16:30:12 +0000";
layers = (
{
layerId = "A285862E-BE3D-4D67-A40D-0E28E121AD88";
paths = (
{
closed = 1;
nodes = (
"40 190 LINE",
"40 144 LINE",
"414 144 LINE",
"414 0 LINE",
"468 0 LINE",
"468 144 LINE",
"592 144 LINE",
"592 192 LINE",
"468 192 LINE",
"468 700 LINE",
"375 700 LINE"
);
},
{
closed = 1;
nodes = (
"414 648 LINE",
"414 192 LINE",
"100 192 LINE",
"402 648 LINE"
);
}
);
width = 620;
},
{
layerId = "5117E3E8-E17C-4812-BAF5-9E7064564A59";
paths = (
{
closed = 1;
nodes = (
"32 254 LINE",
"32 138 LINE",
"362 138 LINE",
"362 0 LINE",
"494 0 LINE",
"494 138 LINE",
"608 138 LINE",
"608 258 LINE",
"494 258 LINE",
"494 700 LINE",
"288 700 LINE"
);
},
{
closed = 1;
nodes = (
"362 586 LINE",
"362 258 LINE",
"168 258 LINE",
"350 586 LINE"
);
}
);
width = 620;
}
);
note = four;
},
{
glyphname = five.tf;
lastChange = "2017-12-13 16:30:42 +0000";
layers = (
{
layerId = "A285862E-BE3D-4D67-A40D-0E28E121AD88";
paths = (
{
closed = 1;
nodes = (
"94 330 LINE",
"178 330 LINE",
"198 369 OFFCURVE",
"236 424 OFFCURVE",
"328 424 CURVE SMOOTH",
"434 424 OFFCURVE",
"500 351 OFFCURVE",
"500 233 CURVE SMOOTH",
"500 109 OFFCURVE",
"432 34 OFFCURVE",
"314 34 CURVE SMOOTH",
"204 34 OFFCURVE",
"124 95 OFFCURVE",
"124 222 CURVE SMOOTH",
"124 246 LINE",
"72 246 LINE",
"72 218 LINE SMOOTH",
"72 79 OFFCURVE",
"169 -14 OFFCURVE",
"314 -14 CURVE SMOOTH",
"464 -14 OFFCURVE",
"556 91 OFFCURVE",
"556 233 CURVE SMOOTH",
"556 379 OFFCURVE",
"462 470 OFFCURVE",
"340 470 CURVE SMOOTH",
"230 470 OFFCURVE",
"181 413 OFFCURVE",
"160 366 CURVE",
"148 366 LINE",
"148 652 LINE",
"542 652 LINE",
"542 700 LINE",
"94 700 LINE"
);
}
);
width = 620;
},
{
layerId = "5117E3E8-E17C-4812-BAF5-9E7064564A59";
paths = (
{
closed = 1;
nodes = (
"68 312 LINE",
"241 312 LINE",
"252 334 OFFCURVE",
"278 360 OFFCURVE",
"329 360 CURVE SMOOTH",
"392 360 OFFCURVE",
"438 317 OFFCURVE",
"438 243 CURVE SMOOTH",
"438 160 OFFCURVE",
"388 108 OFFCURVE",
"306 108 CURVE SMOOTH",
"222 108 OFFCURVE",
"176 160 OFFCURVE",
"176 238 CURVE SMOOTH",
"176 248 LINE",
"44 248 LINE",
"44 230 LINE SMOOTH",
"44 82 OFFCURVE",
"152 -14 OFFCURVE",
"310 -14 CURVE SMOOTH",
"465 -14 OFFCURVE",
"570 91 OFFCURVE",
"570 249 CURVE SMOOTH",
"570 389 OFFCURVE",
"472 472 OFFCURVE",
"363 472 CURVE SMOOTH",
"269 472 OFFCURVE",
"231 425 OFFCURVE",
"212 398 CURVE",
"200 398 LINE",
"200 576 LINE",
"544 576 LINE",
"544 700 LINE",
"68 700 LINE"
);
}
);
width = 620;
}
);
note = five;
},
{
glyphname = six.tf;
lastChange = "2017-12-13 16:31:14 +0000";
layers = (
{
layerId = "A285862E-BE3D-4D67-A40D-0E28E121AD88";
paths = (
{
closed = 1;
nodes = (
"554 373 OFFCURVE",
"452 470 OFFCURVE",
"324 470 CURVE SMOOTH",
"218 470 OFFCURVE",
"161 417 OFFCURVE",
"136 369 CURVE",
"124 369 LINE",
"124 477 LINE SMOOTH",
"124 595 OFFCURVE",
"196 666 OFFCURVE",
"318 666 CURVE SMOOTH",
"436 666 OFFCURVE",
"494 601 OFFCURVE",
"494 500 CURVE",
"548 500 LINE",
"548 614 OFFCURVE",
"472 714 OFFCURVE",
"318 714 CURVE SMOOTH",
"162 714 OFFCURVE",
"70 614 OFFCURVE",
"70 470 CURVE SMOOTH",
"70 228 LINE SMOOTH",
"70 80 OFFCURVE",
"176 -14 OFFCURVE",
"312 -14 CURVE SMOOTH",
"448 -14 OFFCURVE",
"554 83 OFFCURVE",
"554 228 CURVE SMOOTH"
);
},
{
closed = 1;
nodes = (
"424 426 OFFCURVE",
"500 346 OFFCURVE",
"500 228 CURVE SMOOTH",
"500 110 OFFCURVE",
"424 34 OFFCURVE",
"312 34 CURVE SMOOTH",
"200 34 OFFCURVE",
"124 110 OFFCURVE",
"124 228 CURVE SMOOTH",
"124 346 OFFCURVE",
"200 426 OFFCURVE",
"312 426 CURVE SMOOTH"
);
}
);
width = 620;
},
{
layerId = "5117E3E8-E17C-4812-BAF5-9E7064564A59";
paths = (
{
closed = 1;
nodes = (
"572 363 OFFCURVE",
"477 458 OFFCURVE",
"350 458 CURVE SMOOTH",
"256 458 OFFCURVE",
"217 416 OFFCURVE",
"200 392 CURVE",
"188 392 LINE",
"188 472 LINE SMOOTH",
"188 550 OFFCURVE",
"235 594 OFFCURVE",
"318 594 CURVE SMOOTH",
"394 594 OFFCURVE",
"432 550 OFFCURVE",
"432 492 CURVE",
"566 492 LINE",
"566 632 OFFCURVE",
"463 714 OFFCURVE",
"318 714 CURVE SMOOTH",
"169 714 OFFCURVE",
"56 629 OFFCURVE",
"56 464 CURVE SMOOTH",
"56 219 LINE SMOOTH",
"56 82 OFFCURVE",
"165 -15 OFFCURVE",
"312 -13 CURVE SMOOTH",
"464 -11 OFFCURVE",
"572 85 OFFCURVE",
"572 230 CURVE SMOOTH"
);
},
{
closed = 1;
nodes = (
"389 351 OFFCURVE",
"440 304 OFFCURVE",
"440 230 CURVE SMOOTH",
"440 156 OFFCURVE",
"387 109 OFFCURVE",
"314 109 CURVE SMOOTH",
"241 109 OFFCURVE",
"188 154 OFFCURVE",
"188 230 CURVE SMOOTH",
"188 304 OFFCURVE",
"239 351 OFFCURVE",
"314 351 CURVE SMOOTH"
);
}
);
width = 620;
}
);
note = six;
},
{
glyphname = seven.tf;
lastChange = "2017-12-13 16:32:08 +0000";
layers = (
{
layerId = "A285862E-BE3D-4D67-A40D-0E28E121AD88";
paths = (
{
closed = 1;
nodes = (
"38 650 LINE",
"516 650 LINE",
"180 0 LINE",
"242 0 LINE",
"578 654 LINE",
"578 700 LINE",
"38 700 LINE"
);
}
);
width = 620;
},
{
layerId = "5117E3E8-E17C-4812-BAF5-9E7064564A59";
paths = (
{
closed = 1;
nodes = (
"36 578 LINE",
"434 578 LINE",
"152 0 LINE",
"298 0 LINE",
"584 582 LINE",
"584 700 LINE",
"36 700 LINE"
);
}
);
width = 620;
}
);
note = seven;
},
{
glyphname = eight.tf;
lastChange = "2017-12-13 16:32:27 +0000";
layers = (
{
layerId = "A285862E-BE3D-4D67-A40D-0E28E121AD88";
paths = (
{
closed = 1;
nodes = (
"76 432 OFFCURVE",
"150 385 OFFCURVE",
"204 369 CURVE",
"204 357 LINE",
"150 349 OFFCURVE",
"62 298 OFFCURVE",
"62 184 CURVE SMOOTH",
"62 66 OFFCURVE",
"162 -14 OFFCURVE",
"310 -14 CURVE SMOOTH",
"458 -14 OFFCURVE",
"558 66 OFFCURVE",
"558 184 CURVE SMOOTH",
"558 298 OFFCURVE",
"470 349 OFFCURVE",
"416 357 CURVE",
"416 369 LINE",
"470 385 OFFCURVE",
"544 432 OFFCURVE",
"544 528 CURVE SMOOTH",
"544 636 OFFCURVE",
"454 714 OFFCURVE",
"310 714 CURVE SMOOTH",
"166 714 OFFCURVE",
"76 636 OFFCURVE",
"76 528 CURVE SMOOTH"
);
},
{
closed = 1;
nodes = (
"116 288 OFFCURVE",
"198 338 OFFCURVE",
"310 338 CURVE SMOOTH",
"422 338 OFFCURVE",
"504 288 OFFCURVE",
"504 186 CURVE SMOOTH",
"504 84 OFFCURVE",
"422 34 OFFCURVE",
"310 34 CURVE SMOOTH",
"198 34 OFFCURVE",
"116 84 OFFCURVE",
"116 186 CURVE SMOOTH"
);
},
{
closed = 1;
nodes = (
"130 616 OFFCURVE",
"208 666 OFFCURVE",
"310 666 CURVE SMOOTH",
"412 666 OFFCURVE",
"490 616 OFFCURVE",
"490 526 CURVE SMOOTH",
"490 436 OFFCURVE",
"412 386 OFFCURVE",
"310 386 CURVE SMOOTH",
"208 386 OFFCURVE",
"130 436 OFFCURVE",
"130 526 CURVE SMOOTH"
);
}
);
width = 620;
},
{
layerId = "5117E3E8-E17C-4812-BAF5-9E7064564A59";
paths = (
{
closed = 1;
nodes = (
"58 438 OFFCURVE",
"111 392 OFFCURVE",
"170 367 CURVE",
"170 355 LINE",
"112 338 OFFCURVE",
"48 283 OFFCURVE",
"48 189 CURVE SMOOTH",
"48 67 OFFCURVE",
"158 -14 OFFCURVE",
"310 -14 CURVE SMOOTH",
"462 -14 OFFCURVE",
"572 67 OFFCURVE",
"572 189 CURVE SMOOTH",
"572 283 OFFCURVE",
"508 338 OFFCURVE",
"450 355 CURVE",
"450 367 LINE",
"509 392 OFFCURVE",
"562 438 OFFCURVE",
"562 523 CURVE SMOOTH",
"562 633 OFFCURVE",
"460 714 OFFCURVE",
"310 714 CURVE SMOOTH",
"160 714 OFFCURVE",
"58 633 OFFCURVE",
"58 523 CURVE SMOOTH"
);
},
{
closed = 1;
nodes = (
"180 259 OFFCURVE",
"226 298 OFFCURVE",
"310 298 CURVE SMOOTH",
"394 298 OFFCURVE",
"440 259 OFFCURVE",
"440 203 CURVE SMOOTH",
"440 147 OFFCURVE",
"394 108 OFFCURVE",
"310 108 CURVE SMOOTH",
"226 108 OFFCURVE",
"180 147 OFFCURVE",
"180 203 CURVE SMOOTH"
);
},
{
closed = 1;
nodes = (
"190 560 OFFCURVE",
"239 592 OFFCURVE",
"310 592 CURVE SMOOTH",
"381 592 OFFCURVE",
"430 560 OFFCURVE",
"430 506 CURVE SMOOTH",
"430 452 OFFCURVE",
"381 420 OFFCURVE",
"310 420 CURVE SMOOTH",
"239 420 OFFCURVE",
"190 452 OFFCURVE",
"190 506 CURVE SMOOTH"
);
}
);
width = 620;
}
);
note = eight;
},
{
glyphname = nine.tf;
lastChange = "2017-12-13 16:32:52 +0000";
layers = (
{
layerId = "A285862E-BE3D-4D67-A40D-0E28E121AD88";
paths = (
{
closed = 1;
nodes = (
"74 327 OFFCURVE",
"176 230 OFFCURVE",
"304 230 CURVE SMOOTH",
"410 230 OFFCURVE",
"467 283 OFFCURVE",
"492 331 CURVE",
"504 331 LINE",
"504 223 LINE SMOOTH",
"504 105 OFFCURVE",
"432 34 OFFCURVE",
"310 34 CURVE SMOOTH",
"192 34 OFFCURVE",
"134 99 OFFCURVE",
"134 200 CURVE",
"80 200 LINE",
"80 86 OFFCURVE",
"156 -14 OFFCURVE",
"310 -14 CURVE SMOOTH",
"466 -14 OFFCURVE",
"558 86 OFFCURVE",
"558 230 CURVE SMOOTH",
"558 472 LINE SMOOTH",
"558 620 OFFCURVE",
"452 714 OFFCURVE",
"316 714 CURVE SMOOTH",
"180 714 OFFCURVE",
"74 617 OFFCURVE",
"74 472 CURVE SMOOTH"
);
},
{
closed = 1;
nodes = (
"204 274 OFFCURVE",
"128 354 OFFCURVE",
"128 472 CURVE SMOOTH",
"128 590 OFFCURVE",
"204 666 OFFCURVE",
"316 666 CURVE SMOOTH",
"428 666 OFFCURVE",
"504 590 OFFCURVE",
"504 472 CURVE SMOOTH",
"504 354 OFFCURVE",
"428 274 OFFCURVE",
"316 274 CURVE SMOOTH"
);
}
);
width = 620;
},
{
layerId = "5117E3E8-E17C-4812-BAF5-9E7064564A59";
paths = (
{
closed = 1;
nodes = (
"48 338 OFFCURVE",
"143 243 OFFCURVE",
"270 243 CURVE SMOOTH",
"364 243 OFFCURVE",
"403 285 OFFCURVE",
"420 309 CURVE",
"432 309 LINE",
"432 229 LINE SMOOTH",
"432 151 OFFCURVE",
"385 107 OFFCURVE",
"302 107 CURVE SMOOTH",
"226 107 OFFCURVE",
"188 151 OFFCURVE",
"188 209 CURVE",
"54 209 LINE",
"54 69 OFFCURVE",
"157 -13 OFFCURVE",
"302 -13 CURVE SMOOTH",
"451 -13 OFFCURVE",
"564 72 OFFCURVE",
"564 237 CURVE SMOOTH",
"564 482 LINE SMOOTH",
"564 619 OFFCURVE",
"455 716 OFFCURVE",
"308 714 CURVE SMOOTH",
"156 712 OFFCURVE",
"48 616 OFFCURVE",
"48 471 CURVE SMOOTH"
);
},
{
closed = 1;
nodes = (
"231 350 OFFCURVE",
"180 397 OFFCURVE",
"180 471 CURVE SMOOTH",
"180 545 OFFCURVE",
"233 592 OFFCURVE",
"306 592 CURVE SMOOTH",
"379 592 OFFCURVE",
"432 547 OFFCURVE",
"432 471 CURVE SMOOTH",
"432 397 OFFCURVE",
"381 350 OFFCURVE",
"306 350 CURVE SMOOTH"
);
}
);
width = 620;
}
);
note = nine;
},
{
glyphname = one.tf.ss03;
lastChange = "2018-08-16 11:35:35 +0000";
layers = (
{
layerId = "A285862E-BE3D-4D67-A40D-0E28E121AD88";
paths = (
{
closed = 1;
nodes = (
"62 48 LINE",
"62 0 LINE",
"586 0 LINE",
"586 48 LINE"
);
},
{
closed = 1;
nodes = (
"99 404 LINE",
"165 404 LINE",
"316 670 LINE",
"328 670 LINE",
"328 0 LINE",
"382 0 LINE",
"384 700 LINE",
"274 700 LINE"
);
}
);
width = 620;
},
{
layerId = "5117E3E8-E17C-4812-BAF5-9E7064564A59";
paths = (
{
closed = 1;
nodes = (
"68 120 LINE",
"68 0 LINE",
"572 0 LINE",
"572 120 LINE"
);
},
{
closed = 1;
nodes = (
"74 384 LINE",
"208 384 LINE",
"266 640 LINE",
"278 640 LINE",
"278 0 LINE",
"410 0 LINE",
"410 700 LINE",
"162 700 LINE"
);
}
);
width = 620;
}
);
note = one;
},
{
glyphname = zero.tf.zero;
lastChange = "2017-12-13 16:34:20 +0000";
layers = (
{
layerId = "A285862E-BE3D-4D67-A40D-0E28E121AD88";
paths = (
{
closed = 1;
nodes = (
"98 228 LINE",
"120 190 LINE",
"522 472 LINE",
"500 510 LINE"
);
},
{
closed = 1;
nodes = (
"70 272 LINE SMOOTH",
"70 84 OFFCURVE",
"156 -14 OFFCURVE",
"310 -14 CURVE SMOOTH",
"464 -14 OFFCURVE",
"550 84 OFFCURVE",
"550 272 CURVE SMOOTH",
"550 428 LINE SMOOTH",
"550 616 OFFCURVE",
"464 714 OFFCURVE",
"310 714 CURVE SMOOTH",
"156 714 OFFCURVE",
"70 616 OFFCURVE",
"70 428 CURVE SMOOTH"
);
},
{
closed = 1;
nodes = (
"124 578 OFFCURVE",
"184 666 OFFCURVE",
"310 666 CURVE SMOOTH",
"436 666 OFFCURVE",
"496 578 OFFCURVE",
"496 432 CURVE SMOOTH",
"496 268 LINE SMOOTH",
"496 122 OFFCURVE",
"436 34 OFFCURVE",
"310 34 CURVE SMOOTH",
"184 34 OFFCURVE",
"124 122 OFFCURVE",
"124 268 CURVE SMOOTH",
"124 432 LINE SMOOTH"
);
}
);
width = 620;
},
{
layerId = "5117E3E8-E17C-4812-BAF5-9E7064564A59";
paths = (
{
closed = 1;
nodes = (
"101 259 LINE",
"157 187 LINE",
"519 441 LINE",
"463 513 LINE"
);
},
{
closed = 1;
nodes = (
"54 268 LINE SMOOTH",
"54 84 OFFCURVE",
"156 -14 OFFCURVE",
"310 -14 CURVE SMOOTH",
"464 -14 OFFCURVE",
"566 84 OFFCURVE",
"566 268 CURVE SMOOTH",
"566 432 LINE SMOOTH",
"566 610 OFFCURVE",
"464 714 OFFCURVE",
"310 714 CURVE SMOOTH",
"156 714 OFFCURVE",
"54 610 OFFCURVE",
"54 432 CURVE SMOOTH"
);
},
{
closed = 1;
nodes = (
"186 529 OFFCURVE",
"230 594 OFFCURVE",
"310 594 CURVE SMOOTH",
"387 594 OFFCURVE",
"434 533 OFFCURVE",
"434 436 CURVE SMOOTH",
"434 264 LINE SMOOTH",
"434 169 OFFCURVE",
"398 106 OFFCURVE",
"310 106 CURVE SMOOTH",
"225 106 OFFCURVE",
"186 165 OFFCURVE",
"186 264 CURVE SMOOTH",
"186 436 LINE SMOOTH"
);
}
);
width = 620;
}
);
note = zero;
},
{
glyphname = zero.tosf;
lastChange = "2017-07-18 09:12:28 +0000";
layers = (
{
layerId = "A285862E-BE3D-4D67-A40D-0E28E121AD88";
paths = (
{
closed = 1;
nodes = (
"60 243 LINE SMOOTH",
"60 93 OFFCURVE",
"158 -14 OFFCURVE",
"310 -14 CURVE SMOOTH",
"462 -14 OFFCURVE",
"560 93 OFFCURVE",
"560 243 CURVE SMOOTH",
"560 253 LINE SMOOTH",
"560 403 OFFCURVE",
"462 510 OFFCURVE",
"310 510 CURVE SMOOTH",
"158 510 OFFCURVE",
"60 403 OFFCURVE",
"60 253 CURVE SMOOTH"
);
},
{
closed = 1;
nodes = (
"114 373 OFFCURVE",
"192 462 OFFCURVE",
"310 462 CURVE SMOOTH",
"428 462 OFFCURVE",
"506 378 OFFCURVE",
"506 253 CURVE SMOOTH",
"506 243 LINE SMOOTH",
"506 120 OFFCURVE",
"428 34 OFFCURVE",
"310 34 CURVE SMOOTH",
"192 34 OFFCURVE",
"114 115 OFFCURVE",
"114 243 CURVE SMOOTH",
"114 253 LINE SMOOTH"
);
}
);
width = 620;
},
{
layerId = "5117E3E8-E17C-4812-BAF5-9E7064564A59";
paths = (
{
closed = 1;
nodes = (
"44 244 LINE SMOOTH",
"44 90 OFFCURVE",
"160 -14 OFFCURVE",
"310 -14 CURVE SMOOTH",
"460 -14 OFFCURVE",
"576 90 OFFCURVE",
"576 244 CURVE SMOOTH",
"576 252 LINE SMOOTH",
"576 406 OFFCURVE",
"460 510 OFFCURVE",
"310 510 CURVE SMOOTH",
"160 510 OFFCURVE",
"44 406 OFFCURVE",
"44 252 CURVE SMOOTH"
);
},
{
closed = 1;
nodes = (
"176 332 OFFCURVE",
"232 390 OFFCURVE",
"310 390 CURVE SMOOTH",
"388 390 OFFCURVE",
"444 332 OFFCURVE",
"444 255 CURVE SMOOTH",
"444 241 LINE SMOOTH",
"444 164 OFFCURVE",
"388 106 OFFCURVE",
"310 106 CURVE SMOOTH",
"232 106 OFFCURVE",
"176 164 OFFCURVE",
"176 241 CURVE SMOOTH",
"176 255 LINE SMOOTH"
);
}
);
width = 620;
}
);
note = zero.tosn;
},
{
glyphname = one.tosf;
lastChange = "2018-08-19 09:53:42 +0000";
layers = (
{
layerId = "A285862E-BE3D-4D67-A40D-0E28E121AD88";
paths = (
{
closed = 1;
nodes = (
"114 274 LINE",
"114 272 LINE",
"183 272 LINE",
"325 438 LINE",
"334 438 LINE",
"334 48 LINE",
"60 48 LINE",
"60 0 LINE",
"586 0 LINE",
"586 48 LINE",
"390 48 LINE",
"390 484 LINE",
"295 484 LINE"
);
}
);
width = 620;
},
{
layerId = "5117E3E8-E17C-4812-BAF5-9E7064564A59";
paths = (
{
closed = 1;
nodes = (
"86 286 LINE",
"86 274 LINE",
"214 274 LINE",
"268 406 LINE",
"286 406 LINE",
"286 120 LINE",
"46 120 LINE",
"46 0 LINE",
"576 0 LINE",
"576 120 LINE",
"418 120 LINE",
"418 496 LINE",
"184 496 LINE"
);
}
);
width = 620;
}
);
note = one.tosn;
},
{
glyphname = two.tosf;
lastChange = "2018-08-19 09:52:57 +0000";
layers = (
{
layerId = "A285862E-BE3D-4D67-A40D-0E28E121AD88";
paths = (
{
closed = 1;
nodes = (
"112 320 LINE",
"165 399 OFFCURVE",
"249 450 OFFCURVE",
"349 450 CURVE SMOOTH",
"433 450 OFFCURVE",
"498 417 OFFCURVE",
"498 349 CURVE SMOOTH",
"498 266 OFFCURVE",
"415 246 OFFCURVE",
"275 224 CURVE SMOOTH",
"129 201 OFFCURVE",
"70 150 OFFCURVE",
"70 42 CURVE SMOOTH",
"70 0 LINE",
"558 0 LINE",
"558 48 LINE",
"126 48 LINE",
"126 125 OFFCURVE",
"162 160 OFFCURVE",
"281 176 CURVE SMOOTH",
"456 200 OFFCURVE",
"554 230 OFFCURVE",
"554 347 CURVE SMOOTH",
"554 440 OFFCURVE",
"472 498 OFFCURVE",
"353 498 CURVE SMOOTH",
"232 498 OFFCURVE",
"138 443 OFFCURVE",
"68 353 CURVE"
);
}
);
width = 620;
},
{
layerId = "5117E3E8-E17C-4812-BAF5-9E7064564A59";
paths = (
{
closed = 1;
nodes = (
"154 293 LINE",
"198 354 OFFCURVE",
"269 390 OFFCURVE",
"334 390 CURVE SMOOTH",
"398 390 OFFCURVE",
"428 368 OFFCURVE",
"428 331 CURVE SMOOTH",
"428 292 OFFCURVE",
"394 277 OFFCURVE",
"312 269 CURVE SMOOTH",
"141 252 OFFCURVE",
"56 194 OFFCURVE",
"56 44 CURVE SMOOTH",
"56 0 LINE",
"556 0 LINE",
"556 120 LINE",
"190 120 LINE",
"199 161 OFFCURVE",
"245 162 OFFCURVE",
"359 174 CURVE SMOOTH",
"478 187 OFFCURVE",
"560 230 OFFCURVE",
"560 341 CURVE SMOOTH",
"560 437 OFFCURVE",
"491 510 OFFCURVE",
"349 510 CURVE SMOOTH",
"229 510 OFFCURVE",
"141 464 OFFCURVE",
"54 367 CURVE"
);
}
);
width = 620;
}
);
note = two.tosn;
},
{
glyphname = three.tosf;
lastChange = "2018-08-19 09:53:57 +0000";
layers = (
{
layerId = "A285862E-BE3D-4D67-A40D-0E28E121AD88";
paths = (
{
closed = 1;
nodes = (
"61 10 LINE",
"69 -135 OFFCURVE",
"166 -210 OFFCURVE",
"311 -210 CURVE SMOOTH",
"444 -210 OFFCURVE",
"545 -120 OFFCURVE",
"545 8 CURVE SMOOTH",
"545 140 OFFCURVE",
"448 220 OFFCURVE",
"317 220 CURVE SMOOTH",
"300 220 LINE",
"300 232 LINE",
"547 435 LINE",
"547 484 LINE",
"75 484 LINE",
"75 434 LINE",
"471 434 LINE",
"218 222 LINE",
"218 172 LINE",
"306 172 LINE SMOOTH",
"407 172 OFFCURVE",
"491 118 OFFCURVE",
"491 9 CURVE SMOOTH",
"491 -85 OFFCURVE",
"421 -162 OFFCURVE",
"311 -162 CURVE SMOOTH",
"195 -162 OFFCURVE",
"118 -106 OFFCURVE",
"115 19 CURVE"
);
}
);
width = 620;
},
{
layerId = "5117E3E8-E17C-4812-BAF5-9E7064564A59";
paths = (
{
closed = 1;
nodes = (
"35 12 LINE",
"44 -118 OFFCURVE",
"144 -208 OFFCURVE",
"303 -208 CURVE SMOOTH",
"459 -208 OFFCURVE",
"567 -116 OFFCURVE",
"567 24 CURVE SMOOTH",
"567 149 OFFCURVE",
"477 216 OFFCURVE",
"380 216 CURVE SMOOTH",
"365 216 LINE",
"365 228 LINE",
"551 384 LINE",
"551 496 LINE",
"55 496 LINE",
"55 376 LINE",
"367 376 LINE",
"199 232 LINE",
"199 122 LINE",
"321 122 LINE SMOOTH",
"388 122 OFFCURVE",
"435 88 OFFCURVE",
"435 22 CURVE SMOOTH",
"435 -42 OFFCURVE",
"386 -90 OFFCURVE",
"303 -90 CURVE SMOOTH",
"217 -90 OFFCURVE",
"170 -38 OFFCURVE",
"167 30 CURVE"
);
}
);
width = 620;
}
);
note = three.tosn;
},
{
glyphname = four.tosf;
lastChange = "2018-08-19 09:54:01 +0000";
layers = (
{
layerId = "A285862E-BE3D-4D67-A40D-0E28E121AD88";
paths = (
{
closed = 1;
nodes = (
"32 46 LINE",
"32 0 LINE",
"414 0 LINE",
"414 -200 LINE",
"468 -200 LINE",
"468 0 LINE",
"592 0 LINE",
"592 48 LINE",
"468 48 LINE",
"468 484 LINE",
"375 484 LINE"
);
},
{
closed = 1;
nodes = (
"414 440 LINE",
"414 48 LINE",
"93 48 LINE",
"402 440 LINE"
);
}
);
width = 620;
},
{
layerId = "5117E3E8-E17C-4812-BAF5-9E7064564A59";
paths = (
{
closed = 1;
nodes = (
"25 112 LINE",
"25 0 LINE",
"353 0 LINE",
"353 -200 LINE",
"485 -200 LINE",
"485 0 LINE",
"599 0 LINE",
"599 120 LINE",
"485 120 LINE",
"485 496 LINE",
"271 496 LINE"
);
},
{
closed = 1;
nodes = (
"353 392 LINE",
"353 120 LINE",
"165 120 LINE",
"341 392 LINE"
);
}
);
width = 620;
}
);
note = four.tosn;
},
{
glyphname = five.tosf;
lastChange = "2018-08-19 09:54:04 +0000";
layers = (
{
layerId = "A285862E-BE3D-4D67-A40D-0E28E121AD88";
paths = (
{
closed = 1;
nodes = (
"74 12 LINE",
"77 -124 OFFCURVE",
"173 -214 OFFCURVE",
"316 -214 CURVE SMOOTH",
"466 -214 OFFCURVE",
"558 -109 OFFCURVE",
"558 30 CURVE SMOOTH",
"558 173 OFFCURVE",
"464 264 OFFCURVE",
"342 264 CURVE SMOOTH",
"232 264 OFFCURVE",
"183 207 OFFCURVE",
"162 160 CURVE",
"150 160 LINE",
"150 436 LINE",
"544 436 LINE",
"544 484 LINE",
"96 484 LINE",
"96 124 LINE",
"180 124 LINE",
"200 163 OFFCURVE",
"238 218 OFFCURVE",
"330 218 CURVE SMOOTH",
"436 218 OFFCURVE",
"502 145 OFFCURVE",
"502 30 CURVE SMOOTH",
"502 -91 OFFCURVE",
"434 -166 OFFCURVE",
"316 -166 CURVE SMOOTH",
"207 -166 OFFCURVE",
"128 -106 OFFCURVE",
"126 17 CURVE"
);
}
);
width = 620;
},
{
layerId = "5117E3E8-E17C-4812-BAF5-9E7064564A59";
paths = (
{
closed = 1;
nodes = (
"49 12 LINE",
"57 -126 OFFCURVE",
"163 -214 OFFCURVE",
"314 -214 CURVE SMOOTH",
"469 -214 OFFCURVE",
"574 -109 OFFCURVE",
"574 49 CURVE SMOOTH",
"574 189 OFFCURVE",
"476 272 OFFCURVE",
"367 272 CURVE SMOOTH",
"273 272 OFFCURVE",
"235 225 OFFCURVE",
"216 198 CURVE",
"204 198 LINE",
"204 376 LINE",
"548 376 LINE",
"548 496 LINE",
"72 496 LINE",
"72 112 LINE",
"245 112 LINE",
"256 134 OFFCURVE",
"282 160 OFFCURVE",
"333 160 CURVE SMOOTH",
"396 160 OFFCURVE",
"442 117 OFFCURVE",
"442 43 CURVE SMOOTH",
"442 -42 OFFCURVE",
"392 -96 OFFCURVE",
"310 -96 CURVE SMOOTH",
"230 -96 OFFCURVE",
"184 -47 OFFCURVE",
"180 28 CURVE"
);
}
);
width = 620;
}
);
note = five.tosn;
},
{
glyphname = six.tosf;
lastChange = "2018-08-19 09:28:05 +0000";
layers = (
{
layerId = "A285862E-BE3D-4D67-A40D-0E28E121AD88";
paths = (
{
closed = 1;
nodes = (
"198 426 OFFCURVE",
"122 346 OFFCURVE",
"122 228 CURVE SMOOTH",
"122 110 OFFCURVE",
"198 34 OFFCURVE",
"310 34 CURVE SMOOTH",
"422 34 OFFCURVE",
"498 110 OFFCURVE",
"498 228 CURVE SMOOTH",
"498 346 OFFCURVE",
"422 426 OFFCURVE",
"310 426 CURVE SMOOTH"
);
},
{
closed = 1;
nodes = (
"490 608 OFFCURVE",
"430 666 OFFCURVE",
"318 666 CURVE SMOOTH",
"196 666 OFFCURVE",
"122 595 OFFCURVE",
"122 477 CURVE SMOOTH",
"122 369 LINE",
"134 369 LINE",
"159 417 OFFCURVE",
"216 470 OFFCURVE",
"322 470 CURVE SMOOTH",
"450 470 OFFCURVE",
"552 373 OFFCURVE",
"552 228 CURVE SMOOTH",
"552 83 OFFCURVE",
"446 -14 OFFCURVE",
"310 -14 CURVE SMOOTH",
"174 -14 OFFCURVE",
"68 80 OFFCURVE",
"68 228 CURVE SMOOTH",
"68 470 LINE SMOOTH",
"68 614 OFFCURVE",
"162 714 OFFCURVE",
"318 714 CURVE SMOOTH",
"462 714 OFFCURVE",
"540 626 OFFCURVE",
"549 522 CURVE",
"496 516 LINE"
);
}
);
width = 620;
},
{
layerId = "5117E3E8-E17C-4812-BAF5-9E7064564A59";
paths = (
{
closed = 1;
nodes = (
"239 355 OFFCURVE",
"188 306 OFFCURVE",
"188 230 CURVE SMOOTH",
"188 152 OFFCURVE",
"241 105 OFFCURVE",
"314 105 CURVE SMOOTH",
"387 105 OFFCURVE",
"440 154 OFFCURVE",
"440 230 CURVE SMOOTH",
"440 306 OFFCURVE",
"389 355 OFFCURVE",
"314 355 CURVE SMOOTH"
);
},
{
closed = 1;
nodes = (
"427 561 OFFCURVE",
"388 596 OFFCURVE",
"320 596 CURVE SMOOTH",
"237 596 OFFCURVE",
"188 552 OFFCURVE",
"188 472 CURVE SMOOTH",
"188 392 LINE",
"200 392 LINE",
"217 416 OFFCURVE",
"256 458 OFFCURVE",
"350 458 CURVE SMOOTH",
"477 458 OFFCURVE",
"572 363 OFFCURVE",
"572 230 CURVE SMOOTH",
"572 85 OFFCURVE",
"464 -11 OFFCURVE",
"312 -13 CURVE SMOOTH",
"165 -15 OFFCURVE",
"56 82 OFFCURVE",
"56 219 CURVE SMOOTH",
"56 464 LINE SMOOTH",
"56 629 OFFCURVE",
"171 714 OFFCURVE",
"320 714 CURVE SMOOTH",
"452 714 OFFCURVE",
"551 646 OFFCURVE",
"568 528 CURVE",
"435 511 LINE"
);
}
);
width = 620;
}
);
note = six.tosn;
},
{
glyphname = seven.tosf;
lastChange = "2018-08-19 09:54:09 +0000";
layers = (
{
layerId = "A285862E-BE3D-4D67-A40D-0E28E121AD88";
paths = (
{
closed = 1;
nodes = (
"32 434 LINE",
"510 434 LINE",
"174 -200 LINE",
"236 -200 LINE",
"572 438 LINE",
"572 484 LINE",
"32 484 LINE"
);
}
);
width = 620;
},
{
layerId = "5117E3E8-E17C-4812-BAF5-9E7064564A59";
paths = (
{
closed = 1;
nodes = (
"32 376 LINE",
"430 376 LINE",
"148 -200 LINE",
"294 -200 LINE",
"580 380 LINE",
"580 496 LINE",
"32 496 LINE"
);
}
);
width = 620;
}
);
note = seven.tosn;
},
